<svg width="53" height="23" viewBox="0 0 53 23" fill="none" xmlns="http://www.w3.org/2000/svg">
<path fill-rule="evenodd" clip-rule="evenodd" d="M8.79147 14.2687C8.7758 14.3665 8.73761 14.4596 8.67978 14.541C8.62195 14.6224 8.54596 14.69 8.45752 14.7388C8.27941 14.8509 8.12357 14.9069 7.96587 14.963C7.63007 15.076 7.27664 15.189 6.9028 15.3201C6.50855 15.4512 6.15513 15.5822 5.83973 15.6772C5.44641 15.8083 5.07257 15.9213 4.71729 16.0524C4.44999 16.1638 4.19891 16.3091 3.97054 16.4845C3.75815 16.672 3.57279 16.8867 3.41952 17.1228C3.26183 17.3849 3.16257 17.723 3.16257 18.1172C3.16257 18.9064 3.35923 19.5067 3.75347 19.8819C4.14679 20.277 4.87591 20.4641 5.95661 20.4641C7.05864 20.4641 7.80632 20.258 8.20149 19.8449C8.59388 19.4317 8.79054 18.8504 8.79054 18.1V14.2687H8.79147ZM5.95754 5.95138C7.88702 5.95138 9.30352 6.30848 10.208 7.04076C11.1133 7.75496 11.566 8.67348 11.566 9.76196V19.0375C11.566 19.4127 11.4881 19.8259 11.3508 20.2761C11.2117 20.7281 10.9371 21.1404 10.5039 21.5146C10.0911 21.8916 9.52059 22.2108 8.7924 22.4549C8.0642 22.6989 7.11987 22.83 5.95847 22.83C4.79892 22.83 3.85273 22.6989 3.12546 22.4549C2.3982 22.2108 1.82677 21.8916 1.41397 21.5146C1.02996 21.1774 0.739054 20.7515 0.56797 20.2761C0.428825 19.8268 0.349976 19.4136 0.349976 19.0384V17.5558C0.349976 16.7666 0.566115 16.0343 0.999321 15.3951C1.43253 14.7388 2.04198 14.2885 2.82955 14.0065C3.22287 13.8754 3.67555 13.7443 4.18668 13.5753C4.69874 13.4053 5.16998 13.2362 5.64307 13.0871C6.11616 12.9361 6.52896 12.7851 6.88239 12.6531C7.09568 12.57 7.3123 12.4952 7.53174 12.4289L7.88609 12.2599C8.02524 12.1848 8.1616 12.0718 8.29982 11.9217C8.43711 11.7726 8.55492 11.6035 8.65418 11.4155C8.75905 11.2118 8.81308 10.987 8.81188 10.7591V10.1579C8.81333 9.93759 8.76586 9.71955 8.67273 9.51877C8.59481 9.29276 8.43711 9.08663 8.22097 8.89949C8.00483 8.71145 7.70892 8.56138 7.35549 8.44747C7.00113 8.33627 6.52989 8.27931 5.99743 8.27931C4.89539 8.27931 4.1672 8.48725 3.77388 8.91757C3.43993 9.29366 3.24327 9.76286 3.20431 10.2881C3.20431 10.4011 3.10598 10.4762 2.98725 10.4762L0.587451 10.5141C0.530445 10.5144 0.47565 10.4927 0.434995 10.4537C0.394339 10.4148 0.371117 10.3617 0.370384 10.3062V9.76377C0.370384 9.2367 0.469641 8.74852 0.68578 8.27931C0.902847 7.80921 1.23772 7.41594 1.68948 7.07692C2.14217 6.73971 2.73307 6.45855 3.44086 6.27051C4.13009 6.04449 4.9761 5.95138 5.95939 5.95138H5.95754ZM49.4637 14.2687C49.448 14.3665 49.4098 14.4596 49.352 14.541C49.2942 14.6224 49.2182 14.69 49.1297 14.7388C48.9535 14.8509 48.7958 14.9069 48.6381 14.963C48.3041 15.076 47.9489 15.189 47.575 15.3201C47.1808 15.4512 46.8264 15.5822 46.512 15.6772C46.1177 15.8083 45.7439 15.9213 45.3895 16.0524C45.1219 16.1638 44.8705 16.3091 44.6418 16.4845C44.4298 16.6721 44.2447 16.8868 44.0917 17.1228C43.9341 17.3849 43.8357 17.723 43.8357 18.1172C43.8357 18.9064 44.0305 19.5067 44.4248 19.8819C44.8181 20.277 45.5472 20.4641 46.6288 20.4641C47.7327 20.4641 48.4795 20.258 48.8737 19.8449C49.2661 19.4317 49.4628 18.8504 49.4628 18.1L49.4637 14.2687ZM46.6307 5.95138C48.5602 5.95138 49.9767 6.30848 50.882 7.04076C51.7865 7.75496 52.2392 8.67348 52.2392 9.76196V19.0375C52.2392 19.4127 52.1613 19.8259 52.023 20.2761C51.8858 20.7281 51.6102 21.1404 51.177 21.5146C50.7642 21.8916 50.1937 22.2108 49.4655 22.4549C48.7383 22.6989 47.793 22.83 46.6325 22.83C45.473 22.83 44.5268 22.6989 43.7995 22.4549C43.0723 22.2108 42.5009 21.8916 42.0881 21.5146C41.7047 21.1772 41.4144 20.7513 41.2439 20.2761C41.1048 19.8259 41.0259 19.4127 41.0259 19.0375V17.5549C41.0259 16.7657 41.243 16.0334 41.6753 15.3942C42.1085 14.7379 42.7188 14.2876 43.5055 14.0056C43.8988 13.8745 44.3515 13.7434 44.8635 13.5743C45.3737 13.4044 45.8468 13.2353 46.3199 13.0862C46.793 12.9352 47.2049 12.7842 47.5593 12.6522C47.7725 12.569 47.9892 12.4943 48.2086 12.428L48.563 12.259C48.7002 12.1839 48.8385 12.0709 48.9758 11.9208C49.1166 11.7683 49.2357 11.598 49.3301 11.4146C49.435 11.2109 49.489 10.9861 49.4878 10.7582V10.157C49.4893 9.93669 49.4418 9.71865 49.3487 9.51786C49.2707 9.29185 49.114 9.08573 48.8969 8.89859C48.6808 8.71055 48.3867 8.56047 48.0314 8.44656C47.6771 8.33536 47.2058 8.27841 46.6734 8.27841C45.5713 8.27841 44.8441 8.48634 44.4498 8.91667C44.1159 9.29276 43.9192 9.76196 43.8793 10.2872C43.8793 10.4002 43.7819 10.4753 43.6641 10.4753H41.2773C41.2209 10.475 41.1669 10.4534 41.1267 10.4149C41.0865 10.3763 41.0633 10.3241 41.0621 10.2691V9.72399C41.0621 9.19964 41.1604 8.71145 41.3775 8.24134C41.5936 7.77304 41.9276 7.37797 42.3793 7.04076C42.8339 6.70265 43.4229 6.42058 44.1326 6.23344C44.8005 6.04359 45.6465 5.95138 46.6307 5.95138ZM38.1892 6.02641H39.7643C39.9016 6.02641 39.9999 6.15841 39.961 6.28859L39.4294 8.24134C39.4109 8.33627 39.3116 8.39232 39.2328 8.39232H38.1308C37.5408 8.39232 37.0686 8.46736 36.6948 8.61833C36.3395 8.7675 36.0454 8.93656 35.8478 9.14268C35.6512 9.35061 35.5324 9.55583 35.474 9.76286C35.421 9.96522 35.3945 10.1733 35.3952 10.3821V22.4549C35.3939 22.5102 35.3704 22.5629 35.3296 22.6015C35.2888 22.6401 35.234 22.6615 35.1772 22.661H32.8173C32.7607 22.661 32.7064 22.6394 32.666 22.6009C32.6256 22.5624 32.6023 22.5099 32.6011 22.4549V9.83699C32.6011 9.61279 32.6401 9.27467 32.7384 8.84254C32.8173 8.4113 33.0538 7.99815 33.4276 7.56601C33.8015 7.15286 34.3525 6.77768 35.1002 6.47754C35.8488 6.17558 36.872 6.02641 38.1892 6.02641ZM30.2394 18.6244V19.1876C30.2394 19.4317 30.2022 19.7698 30.103 20.202C30.0241 20.6142 29.7876 21.0463 29.4138 21.4586C29.0399 21.8726 28.4889 22.2478 27.7412 22.548C26.9936 22.849 25.9694 23 24.6522 23C23.335 23 22.3108 22.849 21.5632 22.548C20.8155 22.2478 20.2645 21.8916 19.8906 21.4595C19.5168 21.0472 19.2803 20.6151 19.2014 20.1848C19.1235 19.7508 19.065 19.4326 19.065 19.1885V6.55257C19.065 6.43957 19.1634 6.34464 19.2812 6.34464H21.6225C21.7413 6.34464 21.8396 6.43957 21.8396 6.55257V18.3803C21.8396 18.7745 21.898 19.0565 21.9574 19.2816C22.0177 19.5076 22.1355 19.7319 22.3127 19.9199C22.489 20.126 22.7654 20.2951 23.1383 20.4262C23.4927 20.5582 23.9852 20.6341 24.5947 20.6341C25.2255 20.6341 25.7357 20.5582 26.1104 20.4262C26.4843 20.2951 26.7598 20.126 26.9564 19.938C27.1513 19.7508 27.2904 19.5447 27.3488 19.3187C27.4082 19.0927 27.488 18.9064 27.488 18.3604V6.53449C27.488 6.42239 27.5854 6.32837 27.7032 6.32837H30.0446C30.1614 6.32837 30.2598 6.42239 30.2598 6.5363V18.6262H30.2412L30.2394 18.6244ZM14.1254 0.000904048H16.4677C16.5855 0.000904048 16.6838 0.0940214 16.6838 0.206124V22.567C16.6831 22.6224 16.66 22.6752 16.6195 22.7142C16.5791 22.7531 16.5245 22.7749 16.4677 22.7749H14.1254C14.0685 22.7749 14.014 22.7531 13.9735 22.7142C13.9331 22.6752 13.91 22.6224 13.9092 22.567V0.206124C13.9278 0.0940214 14.0076 0.000904048 14.1254 0.000904048Z" fill="#E9B864"/>
</svg>
