<svg width="20" height="30" viewBox="0 0 20 30" fill="none" xmlns="http://www.w3.org/2000/svg">
<path fill-rule="evenodd" clip-rule="evenodd" d="M15.0038 14.7831C14.976 14.957 14.9081 15.1225 14.8053 15.2672C14.7025 15.4119 14.5675 15.532 14.4103 15.6186C14.0937 15.8179 13.8167 15.9175 13.5364 16.0171C12.9396 16.218 12.3114 16.4189 11.6469 16.6518C10.9462 16.8848 10.318 17.1178 9.75744 17.2866C9.05836 17.5195 8.39391 17.7204 7.76243 17.9534C7.28733 18.1515 6.84107 18.4098 6.43517 18.7215C6.05766 19.0548 5.72821 19.4364 5.45579 19.8559C5.1755 20.3219 4.99908 20.9229 4.99908 21.6235C4.99908 23.0262 5.34862 24.0932 6.04935 24.76C6.74843 25.4622 8.04437 25.7949 9.96519 25.7949C11.9239 25.7949 13.2528 25.4285 13.9552 24.6942C14.6527 23.9598 15.0022 22.9266 15.0022 21.5929L15.0038 14.7831ZM9.96684 0C13.3963 0 15.914 0.634709 17.5215 1.93626C19.1307 3.20568 19.9353 4.83824 19.9353 6.7729V23.2592C19.9353 23.9261 19.7968 24.6604 19.5528 25.4606C19.3055 26.2641 18.8175 26.9968 18.0475 27.662C17.3138 28.3321 16.2998 28.8993 15.0055 29.3332C13.7112 29.767 12.0328 30 9.96849 30C7.90752 30 6.22577 29.767 4.93313 29.3332C3.64049 28.8993 2.62485 28.3321 1.89114 27.662C1.2086 27.0626 0.691545 26.3056 0.387462 25.4606C0.140146 24.662 0 23.9277 0 23.2608V20.6256C0 19.2228 0.384164 17.9213 1.15414 16.7852C1.92412 15.6186 3.00736 14.8184 4.40717 14.3171C5.10625 14.0841 5.91086 13.8511 6.81933 13.5506C7.72945 13.2485 8.56703 12.948 9.4079 12.6829C10.2488 12.4146 10.9825 12.1462 11.6107 11.9116C11.9898 11.7638 12.3748 11.6309 12.7648 11.5131L13.3946 11.2126C13.642 11.0793 13.8843 10.8784 14.13 10.6117C14.374 10.3465 14.5834 10.0461 14.7598 9.71184C14.9462 9.34992 15.0423 8.95021 15.0401 8.54526V7.4767C15.0427 7.08507 14.9583 6.69753 14.7928 6.34065C14.6543 5.93894 14.374 5.57258 13.9898 5.23996C13.6057 4.90573 13.0797 4.63899 12.4515 4.43653C11.8217 4.23889 10.9841 4.13765 10.0377 4.13765C8.07899 4.13765 6.78471 4.50723 6.08563 5.27209C5.49207 5.94055 5.14253 6.7745 5.07328 7.70809C5.07328 7.90895 4.89851 8.04232 4.68746 8.04232L0.422086 8.1098C0.320766 8.11023 0.223372 8.07164 0.151112 8.00242C0.078852 7.9332 0.0375766 7.83896 0.036273 7.74022V6.77611C0.036273 5.83932 0.212692 4.97161 0.596856 4.13765C0.982669 3.30209 1.57788 2.60311 2.38083 2.00054C3.18543 1.40118 4.2357 0.901446 5.49372 0.56722C6.71875 0.165506 8.22244 0 9.97014 0H9.96684Z" fill="#E9B864"/>
</svg>
