<svg width="128" height="128" viewBox="0 0 128 128" fill="none" xmlns="http://www.w3.org/2000/svg">
<path d="M108.59 26.148C106.738 26.148 104.968 26.359 103.285 26.863C101.601 27.367 100.168 28.086 98.906 29.051C97.6603 29.972 96.6267 31.1495 95.875 32.504C95.118 33.852 94.738 35.41 94.738 37.18C94.738 39.367 95.454 41.43 96.844 43.285C98.23 45.18 100.504 46.609 103.578 47.578L109.684 49.473C111.746 50.148 113.18 50.864 113.938 51.664C114.695 52.465 115.074 53.429 115.074 54.609C115.074 56.335 114.316 57.683 112.883 58.609C111.453 59.534 109.391 60 106.738 60C105.051 60 103.41 59.832 101.727 59.496C100.135 59.1684 98.5821 58.6736 97.094 58.02C96.673 57.852 96.293 57.684 96.043 57.602C95.7991 57.5175 95.5431 57.4736 95.285 57.472C94.651 57.472 94.316 57.895 94.316 58.777V60.926C94.3175 61.3327 94.404 61.7347 94.57 62.106C94.738 62.486 95.199 62.906 95.875 63.286C96.969 63.914 98.609 64.465 100.715 64.969C102.82 65.473 105.012 65.727 107.199 65.727C109.349 65.727 111.328 65.43 113.223 64.844C115.031 64.293 116.59 63.535 117.895 62.484C119.199 61.474 120.211 60.211 120.969 58.777C121.683 57.348 122.063 55.707 122.063 53.895C122.063 51.707 121.43 49.727 120.125 48C118.821 46.273 116.634 44.926 113.602 43.957L107.622 42.062C105.392 41.349 103.832 40.546 102.988 39.746C102.148 38.949 101.727 37.938 101.727 36.758C101.727 35.032 102.398 33.808 103.707 33.012C105.012 32.211 106.906 31.832 109.305 31.832C112.293 31.832 114.988 32.379 117.391 33.472C118.105 33.809 118.652 33.98 118.988 33.98C119.621 33.98 119.957 33.517 119.957 32.633V30.653C119.957 30.063 119.832 29.602 119.578 29.262C119.328 28.884 118.906 28.547 118.316 28.211C117.894 27.957 117.305 27.707 116.546 27.453C115.756 27.1971 114.956 26.9716 114.148 26.777C113.262 26.609 112.379 26.441 111.41 26.317C110.475 26.1985 109.533 26.142 108.59 26.148ZM21.768 26.23C19.452 26.23 17.26 26.484 15.198 27.031C13.135 27.536 11.367 28.168 9.89499 28.926C9.30499 29.223 8.92499 29.516 8.71499 29.809C8.50399 30.105 8.42199 30.609 8.42199 31.285V33.348C8.42199 34.23 8.71499 34.652 9.30499 34.652C9.47299 34.652 9.68299 34.609 9.97899 34.527C10.272 34.441 10.775 34.273 11.451 33.98C12.9306 33.3947 14.4501 32.9158 15.998 32.547C17.487 32.1835 19.0142 31.9999 20.547 32C23.789 32 26.06 32.633 27.41 33.938C28.714 35.241 29.39 37.472 29.39 40.672V43.746C27.707 43.367 26.107 43.031 24.547 42.82C22.989 42.61 21.516 42.484 20.086 42.484C15.746 42.484 12.336 43.578 9.76999 45.77C7.19899 47.957 5.93799 50.863 5.93799 54.441C5.93799 57.809 6.98799 60.504 9.05099 62.527C11.117 64.547 13.938 65.559 17.473 65.559C22.443 65.559 26.57 63.621 29.852 59.746C30.2524 60.5915 30.6875 61.4202 31.156 62.23C31.5981 62.9361 32.1057 63.599 32.672 64.21C33.094 64.59 33.516 64.8 33.938 64.8C34.272 64.8 34.652 64.672 35.031 64.422L37.684 62.652C38.23 62.232 38.484 61.809 38.484 61.391C38.478 61.0468 38.3765 60.711 38.191 60.421C37.668 59.4456 37.2178 58.4328 36.844 57.391C36.547 56.466 36.379 55.201 36.379 53.641H36.293V40C36.293 35.367 35.117 31.914 32.801 29.64C30.441 27.367 26.776 26.23 21.768 26.23ZM41.348 27.242C40.672 27.242 40.336 27.621 40.336 28.293C40.336 28.59 40.465 29.137 40.715 29.98L50.609 62.527C50.863 63.327 51.156 63.914 51.496 64.168C51.832 64.465 52.336 64.59 53.094 64.59H56.714C57.473 64.59 58.061 64.465 58.398 64.168C58.738 63.875 58.989 63.328 59.199 62.484L65.684 35.367L72.211 62.527C72.379 63.367 72.671 63.914 73.011 64.211C73.348 64.503 73.894 64.633 74.695 64.633H78.316C79.031 64.633 79.578 64.466 79.914 64.211C80.254 63.958 80.547 63.411 80.801 62.571L90.949 30.02C91.117 29.56 91.199 29.223 91.242 28.969C91.285 28.715 91.328 28.503 91.328 28.293C91.328 27.578 90.949 27.243 90.273 27.243H86.36C85.603 27.243 85.052 27.409 84.716 27.664C84.423 27.914 84.126 28.464 83.876 29.304L76.59 57.517L69.937 29.306C69.771 28.506 69.473 27.916 69.137 27.666C68.801 27.368 68.253 27.243 67.453 27.243H64.086C63.328 27.243 62.738 27.41 62.398 27.665C62.063 27.915 61.81 28.465 61.602 29.305L55.032 57.181L47.957 29.306C47.707 28.506 47.453 27.916 47.117 27.666C46.82 27.368 46.273 27.243 45.473 27.243L41.348 27.242ZM21.64 47.496C22.9639 47.4969 24.2865 47.5804 25.6 47.746C26.9033 47.9115 28.1961 48.1516 29.472 48.465V50.23C29.472 51.665 29.304 52.883 29.05 53.895C28.8 54.905 28.292 55.79 27.62 56.59C26.483 57.852 25.136 58.777 23.62 59.285C22.104 59.789 20.671 60.043 19.284 60.043C17.347 60.043 15.874 59.535 14.862 58.484C13.808 57.474 13.304 56 13.304 54.02C13.304 51.914 13.979 50.316 15.366 49.18C16.757 48.043 18.82 47.496 21.64 47.496ZM118 73.348C113.568 73.411 108.336 74.4 104.379 77.18C103.156 78.063 103.367 79.242 104.715 79.074C109.223 78.527 119.155 77.348 120.925 79.621C122.695 81.851 118.949 91.241 117.262 95.411C116.758 96.671 117.852 97.18 118.988 96.211C126.398 89.98 128.336 76.969 126.82 75.074C126.063 74.149 122.432 73.284 118 73.348ZM1.62999 75.859C0.703988 75.975 0.282988 77.095 1.26199 77.98C17.77 92.882 39.621 101.852 63.875 101.852C81.18 101.852 101.305 96.422 115.156 86.192C117.429 84.503 115.454 81.938 113.136 82.988C97.603 89.558 80.715 92.758 65.348 92.758C42.57 92.758 20.548 86.485 2.69499 76.125C2.30499 75.894 1.93999 75.821 1.63099 75.859H1.62999Z" fill="#E9B864"/>
</svg>
