<svg width="176" height="176" viewBox="0 0 176 176" fill="none" xmlns="http://www.w3.org/2000/svg">
<path d="M104.505 69.5585C93.9799 69.5585 88.7494 75.053 88.7494 82.9648C88.7494 88.0578 91.2959 91.6658 94.6674 93.3171C93.016 94.831 91.641 96.1551 90.4021 97.4614C89.1619 98.7704 88.4056 100.152 88.4056 101.668C88.4056 103.527 89.1619 105.249 91.4334 106.209C89.0257 108.483 87.648 110.133 87.648 113.231C87.648 118.667 92.3959 121.833 104.851 121.833C116.824 121.833 123.772 117.363 123.772 109.449C123.772 100.301 116.755 99.9556 104.851 99.1966L98.1076 98.7841L100.379 95.1376C101.615 95.4814 103.613 95.7564 105.817 95.7564C114.485 95.7564 120.472 91.2849 120.472 83.6454C120.472 80.4801 118.909 78.2788 117.671 76.6948L123.75 76.2135V70.125H110.837C109.256 70.125 107.464 69.5585 104.505 69.5585ZM107.602 108.761C110.907 108.967 113.523 109.105 113.523 111.31C113.523 115.022 108.085 115.301 104.096 115.301C99.2777 115.301 95.7687 114.473 95.7687 111.722C95.7687 110.344 96.6625 109.175 97.559 108.075L107.602 108.761ZM104.922 88.5321C100.379 88.5321 98.5215 86.1905 98.5215 82.8204C98.5215 78.3475 101.342 76.4885 105.127 76.4885C109.049 76.4885 111.389 78.6225 111.389 82.6815C111.389 86.262 108.773 88.5321 104.922 88.5321ZM136.363 64.1919C140.353 64.1919 142.625 61.9204 142.625 57.9961C142.625 54.0774 140.353 51.942 136.363 51.942C132.44 51.942 130.168 54.0774 130.168 57.9961C130.168 61.919 132.44 64.1919 136.363 64.1919ZM141.625 98.2506V70.125H128.242L127.486 75.482L131.153 76.6838C131.843 76.8886 132 77.2654 132 78.0216V98.2506C132 99.2846 131.42 99.4909 130.456 99.6298L126.5 100.111V105.875H147.125V100.111L143.171 99.6298C142.135 99.4909 141.625 99.3548 141.625 98.2506ZM172.45 96.8206C170.797 97.4394 168.831 97.9193 166.902 97.9193C163.188 97.9193 162.25 96.338 162.25 92.2776V75.625H171.875V68.75H162.748C162.196 68.75 162.25 68.7459 162.25 68.2646V59.125H155.66C154.903 66 151.25 69.0195 145.75 69.7098V75.625H151.254C151.805 75.625 151.25 76.1104 151.25 76.5215V94.5491C151.25 102.328 154.624 105.629 162.811 105.629C166.735 105.629 171.208 104.321 174.168 102.878L172.45 96.8206ZM40.8897 53.3583C40.4588 52.9273 39.9472 52.5855 39.3842 52.3523C38.8212 52.1191 38.2177 51.999 37.6083 51.999C36.9989 51.999 36.3954 52.1191 35.8324 52.3523C35.2694 52.5855 34.7578 52.9273 34.3269 53.3583L27.7942 59.8909L36.0814 68.178C37.0586 67.8453 38.1097 67.7938 39.1148 68.0294C40.1199 68.265 41.0386 68.7783 41.7662 69.5107C42.4937 70.2431 43.0008 71.1652 43.2297 72.1719C43.4587 73.1785 43.4001 74.2293 43.0609 75.2043L51.0482 83.1916C52.2287 82.7811 53.5135 82.7836 54.6923 83.1987C55.8711 83.6138 56.8741 84.4168 57.5369 85.4763C58.1997 86.5358 58.4832 87.789 58.3408 89.0306C58.1984 90.2722 57.6386 91.4287 56.7531 92.3106C56.2405 92.8238 55.6318 93.231 54.9617 93.5087C54.2917 93.7865 53.5735 93.9295 52.8481 93.9295C52.1228 93.9295 51.4045 93.7865 50.7345 93.5087C50.0644 93.231 49.4557 92.8238 48.9431 92.3106C47.3206 90.6868 46.7101 88.3039 47.5337 86.3046L39.875 78.8563V98.4596C39.875 98.7195 41.1056 99.066 41.5442 99.5033C43.7002 101.659 43.8047 105.155 41.6474 107.315C41.1396 107.827 40.5354 108.234 39.8697 108.511C39.2039 108.788 38.4898 108.931 37.7685 108.931C37.0472 108.931 36.3331 108.788 35.6673 108.511C35.0016 108.234 34.3974 107.827 33.8896 107.315C31.7336 105.155 31.7597 101.661 33.9171 99.5033C34.4506 98.9711 34.375 98.5683 35.75 98.2988V78.5139C34.375 78.2444 34.4754 77.8443 33.9432 77.3094C33.1686 76.5347 32.6418 75.5471 32.43 74.4722C32.2182 73.3974 32.331 72.2838 32.7539 71.2731L24.5836 63.1015L3.01124 84.6739C2.57994 85.1047 2.23779 85.6164 2.00435 86.1796C1.77091 86.7427 1.65076 87.3464 1.65076 87.956C1.65076 88.5656 1.77091 89.1693 2.00435 89.7325C2.23779 90.2956 2.57994 90.8073 3.01124 91.2381L34.474 122.7C35.3446 123.569 36.5249 124.058 37.7554 124.058C38.986 124.058 40.1662 123.569 41.0369 122.7L72.3525 91.3825C73.2222 90.5116 73.7107 89.3312 73.7107 88.1004C73.7107 86.8696 73.2222 85.6891 72.3525 84.8183L40.8897 53.3583Z" fill="#FDFDFD"/>
</svg>
