<svg width="60" height="60" viewBox="0 0 60 60" fill="none" xmlns="http://www.w3.org/2000/svg">
<path fill-rule="evenodd" clip-rule="evenodd" d="M30.0007 0.543419C13.4346 0.543419 0 14.048 0 30.7084C0 44.0357 8.59581 55.343 20.5164 59.3312C22.0156 59.6106 22.5663 58.6768 22.5663 57.8799C22.5663 57.1609 22.5381 54.7843 22.5254 52.2645C14.1785 54.0888 12.4177 48.7053 12.4177 48.7053C11.0533 45.2183 9.08659 44.2909 9.08659 44.2909C6.3647 42.4192 9.29109 42.4574 9.29109 42.4574C12.3042 42.6701 13.8908 45.5665 13.8908 45.5665C16.5661 50.1779 20.9092 48.8442 22.6206 48.0735C22.8907 46.1237 23.6677 44.7922 24.5259 44.0392C17.8622 43.2771 10.8572 40.6899 10.8572 29.1315C10.8572 25.8382 12.0292 23.1475 13.9486 21.0346C13.6369 20.2745 12.6102 17.2059 14.2391 13.0511C14.2391 13.0511 16.7579 12.2414 22.4894 16.1445C24.8834 15.4759 27.4502 15.1406 29.9993 15.1292C32.5491 15.1413 35.1173 15.4767 37.5148 16.1445C43.2406 12.2421 45.7566 13.0518 45.7566 13.0518C47.3898 17.2066 46.3631 20.2745 46.0514 21.0353C47.975 23.1468 49.1385 25.8382 49.1385 29.1322C49.1385 40.7175 42.1202 43.2685 35.4395 44.0144C36.5156 44.9503 37.4746 46.7867 37.4746 49.6015C37.4746 53.6372 37.4408 56.8851 37.4408 57.8785C37.4408 58.6797 37.9809 59.6212 39.5012 59.3249C51.4155 55.3317 60 44.0286 60 30.7055C60.0014 14.0487 46.5697 0.543419 30.0007 0.543419Z" fill="#FDFDFD"/>
</svg>
