<svg width="128" height="128" viewBox="0 0 128 128" fill="none" xmlns="http://www.w3.org/2000/svg">
<path fill-rule="evenodd" clip-rule="evenodd" d="M64.0001 5.10303C30.6531 5.10303 3.61206 32.138 3.61206 65.491C3.61206 92.173 20.9151 114.808 44.9091 122.794C47.9261 123.354 49.0341 121.484 49.0341 119.889C49.0341 118.449 48.9781 113.692 48.9521 108.646C32.1521 112.299 28.6071 101.521 28.6071 101.521C25.8601 94.541 21.9021 92.685 21.9021 92.685C16.4221 88.937 22.3151 89.015 22.3151 89.015C28.3781 89.44 31.5721 95.238 31.5721 95.238C36.9581 104.468 45.6991 101.8 49.1451 100.258C49.6871 96.355 51.2521 93.69 52.9791 92.182C39.5661 90.657 25.4651 85.478 25.4651 62.339C25.4651 55.746 27.8251 50.359 31.6881 46.129C31.0601 44.609 28.9931 38.467 32.2721 30.149C32.2721 30.149 37.3421 28.526 48.8821 36.339C53.7001 35 58.8671 34.327 64.0001 34.304C69.1301 34.327 74.3001 34.998 79.1271 36.337C90.6531 28.524 95.7171 30.147 95.7171 30.147C99.0041 38.464 96.9371 44.607 96.3101 46.127C100.182 50.357 102.525 55.744 102.525 62.337C102.525 85.531 88.3981 90.637 74.9511 92.133C77.1181 94.007 79.0481 97.683 79.0481 103.316C79.0481 111.396 78.9781 117.899 78.9781 119.888C78.9781 121.495 80.0661 123.378 83.1261 122.785C107.106 114.791 124.389 92.163 124.389 65.491C124.388 32.14 97.3501 5.10303 64.0001 5.10303Z" fill="#E9B864"/>
</svg>
