<svg width="87" height="23" viewBox="0 0 87 23" fill="none" xmlns="http://www.w3.org/2000/svg">
<path d="M12.4378 7.36807C12.2983 6.80719 12.4624 6.24228 11.4571 5.83877C11.8428 6.21 12.2039 6.85158 11.732 7.22684C8.63384 4.57579 5.3387 0.915965 0 0C4.86679 1.61 8.37121 4.55561 11.1657 8.1993C8.57639 6.97667 5.9173 5.63702 2.35953 5.93158C1.99842 5.96386 1.81376 5.97193 1.81376 5.97193C1.81376 5.97193 6.04861 5.78632 11.1657 9.03456C7.98958 9.70842 4.71496 10.2895 3.2541 12.646C5.1089 11.0561 6.79545 9.98684 11.3093 10.1442C9.88131 11.4798 7.62027 11.9842 7.63258 14.7321C7.84596 13.0737 9.58586 11.2781 12.0152 10.9795C12.9508 11.6775 14.0177 12.4644 15.1913 12.9325C13.7345 12.1093 11.096 9.68421 12.4378 7.36807Z" fill="#E9B864"/>
<path d="M17.8873 13.5096C17.9078 12.7429 17.3005 13.0778 17.083 12.642C16.7794 12.0368 17.5385 12.2264 17.7314 12.6259C17.7109 11.6897 16.6111 12.1255 16.2172 11.4396C16.053 11.1531 16.3608 11.1652 16.7096 11.3427C16.4511 11.0926 16.291 11.024 16.1023 10.9876C14.8015 10.7496 13.7633 9.96273 13.3652 8.64325C13.4432 10.5317 13.9767 11.0159 15.696 12.182C14.3172 11.254 12.5035 10.4469 13.0821 7.94922C11.3381 11.3992 16.8491 12.985 15.7904 13.4773C14.6578 14.0099 12.3886 11.714 11.3873 14.3408C9.95108 18.7189 14.1654 21.729 14.8015 22.4675C10.5871 17.7262 11.851 15.055 12.6266 14.6152C13.9725 14.0341 14.6086 15.6885 16.1597 15.3738C16.6481 15.2689 16.8573 15.1236 17.042 14.7524C17.2267 14.3811 17.5672 14.7847 17.239 15.0792C17.7109 14.8452 17.3621 14.3569 17.3374 14.1834C17.3087 13.9897 17.7601 13.675 17.7724 14.3206C17.916 14.1471 17.8832 13.8283 17.4441 13.6508C17.0461 13.2876 17.7683 13.1585 17.8873 13.5096Z" fill="#E9B864"/>
<path fill-rule="evenodd" clip-rule="evenodd" d="M18.8968 9.11126C18.8147 9.1274 18.8516 9.13144 18.7696 9.12741C18.749 9.12741 18.7531 9.43407 18.4249 9.51074C18.5521 9.30091 18.5274 9.1153 18.4987 9.10723C17.6739 8.95793 16.8286 8.05004 15.8478 8.37688C14.7563 8.19127 14.3829 7.74337 14.4855 7.52951C14.6127 7.86846 15.2036 7.98144 15.5113 7.81197C14.309 6.85565 12.9261 6.90004 12.4214 8.60284C12.4501 7.01302 13.6894 6.91214 14.2105 6.5167C13.8043 6.52881 13.357 6.23828 12.7784 6.60144C13.2421 5.98407 14.1654 6.36741 14.5922 6.31898C14.0956 6.26653 12.9138 5.5039 13.0492 5.06811C13.0738 5.47565 13.6648 5.74197 14.0751 5.746C14.0095 5.64916 12.9918 4.49513 13.5991 3.17969C13.1723 4.47092 14.5347 6.2867 16.2541 6.85565C16.529 6.98478 16.6768 7.02916 16.5906 7.22688C16.8819 7.68688 17.8996 8.48179 18.5562 8.52214C18.5931 8.42934 18.8229 8.34056 18.8804 8.4939C19.0035 8.85705 19.143 9.03863 18.8968 9.11126ZM16.3936 7.23091C16.2336 7.14618 16.2048 6.93635 15.9545 6.94039C16.012 7.12197 16.1433 7.23899 16.3936 7.23091Z" fill="#E9B864"/>
<path d="M14.2515 7.6062C14.3253 8.09445 14.8013 8.32445 14.8013 8.32445C14.8013 8.32445 14.4033 8.38497 14.2597 8.65129C14.9532 8.49392 15.581 8.46567 15.54 9.11936C15.5646 9.22024 15.5359 9.64796 16.0119 9.54304C16.5289 9.48252 17.2553 10.112 17.3907 10.3944C17.522 10.6809 17.6123 11.2943 17.8462 11.4073C17.6287 11.1974 17.682 10.8464 17.76 10.5437C17.7764 10.4873 17.8215 10.3823 17.8995 10.2613C18.0472 10.1887 18.1416 10.0878 18.1621 9.91024C17.9118 10.1281 17.7641 10.0515 17.6451 10.0071C17.2306 9.84971 16.6315 9.55111 16.4017 9.18392C16.332 8.78848 16.1555 8.64322 15.8149 8.50603C14.5592 8.31638 14.3499 7.82006 14.2515 7.6062Z" fill="#E9B864"/>
<path fill-rule="evenodd" clip-rule="evenodd" d="M32.7347 19.0574C32.739 19.1847 32.7217 19.3099 32.6829 19.433C32.6397 19.5518 32.5771 19.6622 32.4951 19.7641C32.4131 19.8617 32.3182 19.9402 32.2103 19.9996C32.1023 20.0591 31.9858 20.0888 31.8606 20.0888C31.7311 20.0888 31.5757 20.0633 31.3945 20.0124C31.2089 19.9614 31.006 19.8935 30.7858 19.8086C30.5571 19.711 30.3542 19.6346 30.1772 19.5794C30.0046 19.52 29.8578 19.4945 29.737 19.503C29.56 19.503 29.3917 19.5518 29.2319 19.6495C29.0722 19.7471 28.9384 19.8914 28.8305 20.0824C28.5456 20.1545 28.2715 20.2076 28.0082 20.2416C27.7406 20.2755 27.4816 20.284 27.2313 20.267C26.2644 20.2925 25.4875 20.1142 24.9004 19.7322C24.3134 19.3502 23.8883 18.7284 23.625 17.8668C23.4437 17.523 23.3012 16.9691 23.1976 16.2051C23.094 15.4454 23.0358 14.4968 23.0228 13.3593C23.0314 12.6929 23.0293 12.1114 23.0163 11.6148C23.0077 11.1182 22.9969 10.7044 22.984 10.3733C22.971 10.0465 22.9581 9.80035 22.9451 9.63482C22.9365 9.46928 22.9386 9.38864 22.9516 9.39289C22.9516 9.16369 23.0271 9.01938 23.1782 8.95996C23.1653 8.8496 23.1566 8.74349 23.1523 8.64163C23.148 8.53976 23.1394 8.4188 23.1264 8.27873C23.1394 7.5105 23.2516 6.84201 23.4631 6.27326C23.6746 5.70451 23.9746 5.22914 24.3631 4.84714C24.7472 4.46514 25.2242 4.17228 25.7939 3.96855C26.3594 3.76482 27.0047 3.65022 27.7298 3.62476C28.1528 3.64598 28.5435 3.68842 28.9017 3.75209C29.26 3.81575 29.5945 3.93672 29.9053 4.11498L29.9895 4.14045C30.2657 4.12347 30.5528 4.22534 30.8506 4.44605C31.1441 4.671 31.4743 4.99994 31.8412 5.43287C31.9405 5.65782 32.0333 5.92309 32.1196 6.22869C32.2059 6.53853 32.2966 6.89294 32.3915 7.29191C32.5167 7.39378 32.5793 7.53172 32.5793 7.70574C32.5793 7.76092 32.5642 7.85429 32.534 7.98587C32.5081 8.1132 32.4951 8.21294 32.4951 8.2851C32.4951 8.35301 32.5038 8.41243 32.521 8.46337C32.5383 8.5143 32.5642 8.56735 32.5987 8.62253L32.0678 9.06182L29.1219 8.95996C29.0356 8.8496 28.973 8.73713 28.9341 8.62253C28.8909 8.50793 28.8758 8.38272 28.8888 8.2469L28.9147 8.08137L29.1219 7.85217C28.9535 7.80973 28.7701 7.65056 28.5715 7.37468C28.3773 7.08181 28.1874 6.93538 28.0018 6.93538C27.9672 6.93538 27.9306 6.93963 27.8917 6.94812C27.8529 6.95236 27.8162 6.96297 27.7816 6.97995L27.4514 6.64889C27.2658 6.74651 27.1903 6.93326 27.2248 7.20915C27.009 7.42137 26.8579 7.66117 26.7716 7.92857C26.6853 8.19597 26.6486 8.49095 26.6615 8.81353V9.06182C26.7479 9.12124 26.791 9.19765 26.791 9.29102C26.791 9.33347 26.7694 9.4035 26.7263 9.50112C26.6831 9.59874 26.6615 9.67514 26.6615 9.73031C26.6615 9.79822 26.6961 9.86614 26.7651 9.93405L26.6615 10.055C26.7479 10.1314 26.791 10.1951 26.791 10.246C26.791 10.2885 26.7694 10.3521 26.7263 10.437C26.6831 10.5219 26.6615 10.5898 26.6615 10.6407C26.6615 10.6959 26.6961 10.7575 26.7651 10.8254C26.627 10.923 26.5579 11.0291 26.5579 11.1437C26.5579 11.1819 26.5709 11.2328 26.5968 11.2965C26.6227 11.3559 26.6507 11.4196 26.681 11.4875C26.7112 11.5554 26.7392 11.6212 26.7651 11.6849C26.7953 11.7485 26.8104 11.8037 26.8104 11.8504C26.8104 11.948 26.7608 12.0435 26.6615 12.1369C26.7479 12.1963 26.791 12.26 26.791 12.3279C26.791 12.3831 26.7694 12.451 26.7263 12.5316C26.6831 12.6123 26.6615 12.678 26.6615 12.729C26.6615 12.7799 26.7004 12.8436 26.7781 12.92C26.7565 13.0346 26.7349 13.2765 26.7133 13.6458C26.6961 14.015 26.6788 14.518 26.6615 15.1547V15.5494H26.5385C26.4824 15.5494 26.4371 15.5557 26.4026 15.5685C26.368 15.5855 26.3421 15.5961 26.3249 15.6003C26.6356 16.1563 26.9809 16.5808 27.3608 16.8736C27.7449 17.1622 28.1485 17.3448 28.5715 17.4212L28.8111 17.1983L28.3449 16.88C28.578 16.7569 28.7507 16.5786 28.8629 16.3452C28.9794 16.1075 29.0377 15.8422 29.0377 15.5494C29.0377 15.4942 29.0377 15.4411 29.0377 15.3902C29.0377 15.3265 29.0312 15.2692 29.0183 15.2183H29.0766C29.124 15.2183 29.1931 15.2311 29.2837 15.2565C29.3744 15.282 29.4391 15.2947 29.478 15.2947C29.5643 15.2947 29.6377 15.2353 29.6981 15.1165C29.5729 14.9297 29.3765 14.8618 29.1089 14.9127L28.2284 13.9068L28.4679 13.684L28.2284 13.4675L28.1248 13.5694C28.0471 13.4972 27.991 13.4166 27.9565 13.3274C27.9176 13.2468 27.8982 13.1471 27.8982 13.0282C27.8982 12.9561 27.9047 12.8499 27.9176 12.7099C27.9306 12.5741 27.937 12.468 27.937 12.3916C27.937 12.3236 27.9349 12.26 27.9306 12.2006C27.9219 12.1454 27.9111 12.0902 27.8982 12.035L28.0212 11.9332C27.9392 11.895 27.8982 11.844 27.8982 11.7804C27.8982 11.7464 27.9176 11.6976 27.9565 11.6339C27.9996 11.5703 28.0212 11.5172 28.0212 11.4748L28.5262 11.1628L31.7052 11.2647C31.77 11.184 31.8714 11.1437 32.0095 11.1437C32.1692 11.1437 32.2966 11.1861 32.3915 11.271L32.6635 12.035C32.5987 13.3975 32.5556 14.3907 32.534 15.0146C32.5081 15.6258 32.4973 15.9335 32.5016 15.9377C32.4584 15.9802 32.5361 17.0222 32.7347 19.0637V19.0574ZM32.5016 15.9441C32.5016 15.9399 32.5038 15.9377 32.5081 15.9377C32.5038 15.942 32.5016 15.9441 32.5016 15.9441ZM23.6185 12.4425C23.5019 12.4425 23.4329 12.4828 23.4113 12.5634L23.5149 12.6908H23.6573C23.735 12.6908 23.8019 12.6483 23.858 12.5634C23.8019 12.4828 23.7221 12.4425 23.6185 12.4425ZM23.6573 10.4752H23.6185L23.7415 10.6917L23.858 10.5898C23.7372 10.5134 23.6703 10.4752 23.6573 10.4752ZM23.8969 15.2756H23.7415V15.4475H23.8969V15.2756ZM23.858 16.1096L23.7415 16.2242L23.858 16.3261L23.9616 16.2242L23.858 16.1096ZM24.5702 8.10684H24.4019V8.266H24.5702V8.10684ZM24.7451 6.83352L24.635 6.96085L24.7451 7.06908L24.8487 6.96085L24.7451 6.83352ZM24.7451 13.1237H24.635L24.7451 13.2383V13.1237ZM25.522 14.8809C25.3839 14.796 25.2155 14.7536 25.017 14.7536C24.8228 14.7536 24.7256 14.83 24.7256 14.9828V15.0146C24.7256 15.0358 24.7321 15.0676 24.7451 15.1101C24.8098 15.1907 24.9285 15.2311 25.1012 15.2311C25.2781 15.2311 25.4011 15.2311 25.4702 15.2311C25.5393 15.2311 25.5565 15.2226 25.522 15.2056V14.8809ZM24.8487 7.38741L24.7451 7.60388L25.1918 7.38741H24.8487ZM24.9911 17.8732C24.8659 17.8944 24.7839 17.9326 24.7451 17.9878C24.8314 17.9496 24.9134 17.9114 24.9911 17.8732ZM25.2501 17.8605C25.4875 17.8605 25.617 17.7925 25.6386 17.6567C25.4573 17.6907 25.2414 17.7628 24.9911 17.8732C25.0645 17.8647 25.1508 17.8605 25.2501 17.8605ZM25.3148 12.3597C25.2932 12.347 25.2717 12.3406 25.2501 12.3406C25.2371 12.3406 25.2242 12.3406 25.2112 12.3406C25.1637 12.3406 25.0429 12.4149 24.8487 12.5634H25.1918C25.2738 12.4828 25.3148 12.4213 25.3148 12.3788V12.3597ZM25.2501 9.43745H25.0753V9.59662H25.2501V9.43745ZM25.9688 10.5898H25.9234C25.9062 10.5898 25.8522 10.6238 25.7616 10.6917H25.9688V10.5898ZM25.9234 12.4043H25.7616V12.5698H25.9234V12.4043ZM26.3054 11.9077C26.2536 11.878 26.1975 11.8504 26.1371 11.8249C26.081 11.8037 26.027 11.7825 25.9752 11.7613C25.9407 11.7485 25.9126 11.7337 25.8911 11.7167L26.3054 12.1242L26.409 12.0223C26.3918 11.9756 26.3572 11.9374 26.3054 11.9077ZM25.8911 11.7167L25.8652 11.6912C25.8738 11.6997 25.8824 11.7082 25.8911 11.7167ZM25.9688 15.8868L25.8652 15.9887L25.9688 16.1096L26.1047 15.9887L25.9688 15.8868ZM26.0982 9.14459L25.9688 9.27829C26.0896 9.34195 26.1544 9.37379 26.163 9.37379H26.2018V9.33559C26.2018 9.33134 26.1673 9.26768 26.0982 9.14459ZM26.3054 13.7986H26.2666C26.2407 13.7986 26.1846 13.7582 26.0982 13.6776L25.9688 13.9004C26.0205 13.9344 26.0637 13.9599 26.0982 13.9768C26.1285 13.9981 26.15 14.0087 26.163 14.0087H26.2018C26.2882 13.9026 26.3313 13.8389 26.3313 13.8177L26.3054 13.7986ZM26.2018 18.1979L26.0982 18.2997L26.2018 18.4334L26.3054 18.2997L26.2018 18.1979ZM26.4802 10.0805H26.3054V10.2524H26.4802V10.0805ZM26.5385 7.60388H26.409L26.5385 7.73121V7.60388ZM26.5515 17.7522L26.4155 17.8541C26.5277 17.9432 26.5946 17.9878 26.6162 17.9878H26.6551V17.9496C26.6551 17.9369 26.6205 17.8711 26.5515 17.7522ZM27.05 5.3501H26.8752V5.51563H27.05V5.3501ZM27.1342 19.0637H27.0889L27.1925 19.2993L27.3155 19.1847C27.2119 19.1041 27.1514 19.0637 27.1342 19.0637ZM27.6586 5.94856L27.5356 6.05043L27.6586 6.18412L27.7622 6.05043L27.6586 5.94856ZM27.8982 17.7522H27.7622L28.0018 17.9878L28.1054 17.8541C28.0579 17.7862 27.9888 17.7522 27.8982 17.7522ZM28.1442 6.34966H28.0018V6.48972H28.1442V6.34966ZM28.4874 12.6207H28.319V12.7926H28.4874V12.6207ZM29.096 17.3193L28.8888 17.5294L28.9924 17.6567H29.0571C29.0701 17.6567 29.1284 17.6143 29.2319 17.5294V17.5103C29.2319 17.4636 29.1866 17.3999 29.096 17.3193ZM29.2319 6.72528H29.096L29.3355 6.82715L29.2319 6.72528ZM29.4003 11.4238H29.2319V11.583H29.4003V11.4238ZM29.2514 16.759H29.2319L29.3355 16.9882L29.4391 16.8864C29.3571 16.8015 29.2945 16.759 29.2514 16.759ZM29.847 15.9887C29.7262 15.9887 29.6355 16.029 29.5751 16.1096L29.7823 16.3261L29.8211 16.3452C29.8513 16.3452 29.8816 16.3325 29.9118 16.307C29.942 16.2858 29.9722 16.2582 30.0024 16.2242C30.037 16.1945 30.0629 16.1691 30.0801 16.1478C30.1017 16.1224 30.1168 16.1096 30.1254 16.1096C30.0607 16.029 29.9679 15.9887 29.847 15.9887ZM29.8859 15.0082L30.0218 14.8873C29.9657 14.8109 29.9075 14.7727 29.847 14.7727C29.7564 14.7727 29.7003 14.8109 29.6787 14.8873L30.1254 15.3456L30.229 15.212L29.8859 15.0082ZM30.1254 14.2379L30.0218 14.3397L30.1254 14.448L30.229 14.3397L30.1254 14.2379ZM30.2873 5.45833H30.1254V5.6175H30.2873V5.45833ZM30.2873 17.3639H30.1254V17.5421H30.2873V17.3639ZM30.229 18.7581H30.1254L30.229 18.8664V18.7581ZM30.6693 14.6772L30.5657 14.8873H30.6693V14.6772ZM31.4592 16.2306L31.3556 16.3325L31.4592 16.4343L31.5822 16.3325L31.4592 16.2306ZM31.8024 15.1165H31.7506C31.729 15.1165 31.6729 15.1504 31.5822 15.2183L31.6858 15.352C31.7765 15.2417 31.8218 15.178 31.8218 15.161L31.8024 15.1165Z" fill="#E9B864"/>
<path fill-rule="evenodd" clip-rule="evenodd" d="M43.1652 20.0568C43.0227 20.1841 42.8393 20.2563 42.6148 20.2733C42.563 20.2733 42.494 20.2648 42.4076 20.2478C42.3213 20.2351 42.2285 20.2223 42.1292 20.2096C42.0343 20.1969 41.9436 20.1841 41.8573 20.1714C41.771 20.1629 41.6998 20.1587 41.6436 20.1587C41.4796 20.1587 41.3285 20.1926 41.1904 20.2605L41.0739 20.1714C41.0178 20.2308 40.9379 20.2605 40.8343 20.2605C40.7998 20.2605 40.7545 20.2499 40.6983 20.2287C40.6465 20.2075 40.5926 20.1863 40.5365 20.165C40.4804 20.1396 40.4286 20.1162 40.3811 20.095C40.3293 20.0696 40.2904 20.0526 40.2645 20.0441C39.8977 19.6918 39.7056 18.8854 39.6883 17.6248C39.7056 17.5272 39.7121 17.4062 39.7077 17.2619C39.7034 17.1176 39.7099 16.9563 39.7272 16.778C39.7401 16.5828 39.7466 16.4257 39.7466 16.3069C39.7466 16.1881 39.7401 16.101 39.7272 16.0459C39.7401 15.5578 39.6451 15.1482 39.4423 14.8171C39.2394 14.486 38.9135 14.2441 38.4646 14.0913C38.4171 14.1168 38.3653 14.138 38.3092 14.155C38.2574 14.172 38.1992 14.1805 38.1344 14.1805C38.061 14.1805 37.9661 14.1698 37.8495 14.1486C37.7287 14.1274 37.638 14.1168 37.5776 14.1168C37.474 14.121 37.3877 14.1423 37.3186 14.1805C37.6078 14.2823 37.7567 14.4563 37.7654 14.7025C37.7654 14.7492 37.7567 14.8086 37.7395 14.8808C37.7222 14.9487 37.7028 15.023 37.6812 15.1036C37.6596 15.18 37.6423 15.2585 37.6294 15.3392C37.6164 15.4156 37.61 15.4814 37.61 15.5365C37.61 15.7106 37.6574 15.8485 37.7524 15.9504C37.61 16.048 37.5387 16.1477 37.5387 16.2496C37.5387 16.2878 37.5517 16.3345 37.5776 16.3897C37.5992 16.4448 37.6251 16.5021 37.6553 16.5616C37.6855 16.6252 37.7157 16.6846 37.7459 16.7398C37.7718 16.7992 37.7848 16.8459 37.7848 16.8799C37.7848 16.9902 37.7395 17.0879 37.6488 17.1728C37.679 17.3722 37.7049 17.576 37.7265 17.7839C37.7524 17.9962 37.7675 18.2211 37.7718 18.4588L37.7459 19.8531C37.5862 20.1672 37.3057 20.3157 36.9042 20.2987C36.8352 20.2987 36.7424 20.2903 36.6258 20.2733C36.5136 20.2563 36.3992 20.2372 36.2827 20.216C36.1618 20.199 36.0496 20.182 35.946 20.165C35.8381 20.1481 35.7561 20.1396 35.7 20.1396C35.6568 20.1396 35.605 20.1481 35.5446 20.165C35.4841 20.182 35.4172 20.199 35.3439 20.216C35.2748 20.2372 35.2101 20.2563 35.1496 20.2733C35.0892 20.286 35.0374 20.2881 34.9942 20.2796C34.8777 20.2881 34.7698 20.2669 34.6705 20.216C34.5755 20.165 34.4914 20.095 34.418 20.0059C34.3446 19.9168 34.2885 19.8128 34.2497 19.6939C34.2065 19.5751 34.1806 19.4541 34.172 19.331C34.172 19.1697 34.213 18.9978 34.295 18.8153L34.0554 18.6625L34.3921 10.1695C34.3144 10.1271 34.2756 10.0528 34.2756 9.94667C34.2756 9.73445 34.282 9.63895 34.295 9.66017L34.3468 9.64107C34.364 9.64107 34.4094 9.67715 34.4827 9.74931C34.6338 9.57529 34.7094 9.49464 34.7094 9.50737C34.7094 9.39702 34.6683 9.34184 34.5863 9.34184C34.5475 9.34184 34.4957 9.35882 34.4309 9.39277C34.3705 9.42673 34.3058 9.43734 34.2367 9.42461L34.2043 5.82112C34.3338 5.65559 34.5302 5.52613 34.7935 5.43276C35.0568 5.33938 35.3654 5.29269 35.7194 5.29269C35.8359 5.2842 35.9784 5.28632 36.1467 5.29906C36.3151 5.31179 36.5114 5.33301 36.7359 5.36272C36.956 5.39668 37.1503 5.41578 37.3186 5.42002C37.4869 5.42002 37.6294 5.42427 37.7459 5.43276C37.8236 5.44125 37.9337 5.43912 38.0761 5.42639C38.2143 5.4179 38.374 5.40729 38.5553 5.39456C38.7322 5.36485 38.8941 5.34575 39.0409 5.33726C39.1833 5.32877 39.2977 5.33089 39.384 5.34362C40.1135 5.34362 40.7199 5.42639 41.2034 5.59192C41.6825 5.75745 42.058 6.04395 42.3299 6.45141C42.4594 6.64665 42.5889 6.98833 42.7184 7.47643C42.8522 7.96029 42.9709 8.5821 43.0745 9.34184C43.0875 9.42249 43.0983 9.50525 43.1069 9.59014C43.1112 9.67927 43.1069 9.76628 43.0939 9.85117C43.1155 10.0973 43.0875 10.3838 43.0098 10.7107C42.9364 11.0417 42.8199 11.411 42.6601 11.8184C42.6127 11.9415 42.4681 12.1113 42.2263 12.3278C42.0925 12.4296 41.9997 12.5273 41.9479 12.6206C41.8918 12.7183 41.8638 12.8074 41.8638 12.888C41.8551 13.0026 42.0105 13.2976 42.3299 13.773C42.4853 13.9979 42.6083 14.2059 42.699 14.3969C42.781 14.5837 42.822 14.7619 42.822 14.9317C42.822 15.076 42.7983 15.2055 42.7508 15.3201C42.8155 15.4177 42.8652 15.5259 42.8997 15.6448C42.9342 15.7679 42.9601 15.9016 42.9774 16.0459C42.999 16.2496 42.999 16.5234 42.9774 16.8672C42.9731 17.385 42.9666 17.646 42.958 17.6502C42.958 17.7691 42.9731 17.9049 43.0033 18.0577C43.0378 18.2105 43.081 18.3888 43.1328 18.5925C43.245 19.0042 43.3054 19.3119 43.3141 19.5157C43.3141 19.7067 43.2644 19.887 43.1652 20.0568ZM35.0719 11.6147C34.9856 11.6147 34.9273 11.6529 34.8971 11.7293L35.0201 11.8184H35.059C35.0676 11.8184 35.0849 11.81 35.1108 11.793C35.141 11.776 35.1798 11.7548 35.2273 11.7293C35.1842 11.6529 35.1324 11.6147 35.0719 11.6147ZM35.441 14.8935C35.2985 14.8935 35.1885 14.9317 35.1108 15.0081L35.2273 15.1291H35.5381C35.6331 15.1291 35.7021 15.0888 35.7453 15.0081C35.6805 14.9317 35.5791 14.8935 35.441 14.8935ZM35.2273 15.6257H35.1108L35.2273 15.7403V15.6257ZM35.2791 17.02H35.1108V17.1855H35.2791V17.02ZM35.5899 13.0217C35.4777 13.0217 35.387 13.0642 35.318 13.1491L35.441 13.2573H35.6805C35.7755 13.2573 35.8338 13.2212 35.8554 13.1491C35.7949 13.0642 35.7064 13.0217 35.5899 13.0217ZM35.5705 12.436H35.441L35.6417 12.6397L35.7453 12.5251C35.7237 12.4657 35.6654 12.436 35.5705 12.436ZM35.6417 17.6884H35.5381L35.6417 17.7776V17.6884ZM35.8036 8.88982H35.6417V9.03625H35.8036V8.88982ZM35.8036 16.0904H35.6417V16.2432H35.8036V16.0904ZM35.7453 18.306H35.6417L35.7453 18.4015V18.306ZM36.2697 14.2123C36.2222 14.1911 36.1705 14.1741 36.1143 14.1614C36.0582 14.1486 36.0064 14.1359 35.9589 14.1232C35.9287 14.1189 35.905 14.1125 35.8877 14.1041L36.2827 14.3842L36.3733 14.2951C36.3517 14.2611 36.3172 14.2335 36.2697 14.2123ZM35.8877 14.1041L35.8554 14.0786C35.864 14.0871 35.8748 14.0956 35.8877 14.1041ZM36.1661 12.0094H35.9525L36.1661 12.1049V12.0094ZM36.2179 10.8698C36.1359 10.8698 36.0841 10.9059 36.0625 10.9781L36.1661 11.0799H36.1985C36.2287 11.0799 36.287 11.046 36.3733 10.9781C36.3517 10.9059 36.2999 10.8698 36.2179 10.8698ZM36.1661 13.5565V13.6584L36.2827 13.5565H36.1661ZM36.2762 8.50782V8.60332L36.3733 8.50782H36.2762ZM36.574 9.52011L36.3668 9.73657L36.4704 9.85117H36.5158C36.5373 9.85117 36.5956 9.81297 36.6906 9.73657V9.70474C36.6906 9.69201 36.6517 9.63046 36.574 9.52011ZM36.6906 15.4092L36.3668 15.6129L36.4704 15.7275C36.4704 15.7063 36.5201 15.6617 36.6194 15.5938C36.6668 15.5471 36.6906 15.5068 36.6906 15.4729V15.4092ZM36.8783 10.0613C36.6755 10.0613 36.5395 10.1589 36.4704 10.3541C36.5007 10.3202 36.546 10.299 36.6064 10.2905C36.6712 10.2777 36.7359 10.2671 36.8006 10.2586C36.8654 10.2501 36.928 10.2374 36.9884 10.2204C37.0532 10.2077 37.0942 10.1844 37.1114 10.1504C37.051 10.091 36.9733 10.0613 36.8783 10.0613ZM36.8978 17.1473C36.7381 17.1473 36.669 17.2088 36.6906 17.3319V17.3828C36.7381 17.4423 36.7855 17.472 36.833 17.472C36.8546 17.472 36.8827 17.4614 36.9172 17.4401C36.9517 17.4232 36.9862 17.4019 37.0208 17.3765C37.0553 17.351 37.0898 17.3277 37.1244 17.3064C37.1589 17.281 37.187 17.2661 37.2085 17.2619C37.1438 17.1855 37.0402 17.1473 36.8978 17.1473ZM36.8783 12.3087C36.7747 12.3087 36.7122 12.3469 36.6906 12.4233L36.7812 12.5124L37.0014 12.3087H36.8783ZM36.7812 14.7853C36.7208 14.832 36.6906 14.8787 36.6906 14.9253C36.6906 15.0017 36.7208 15.0633 36.7812 15.11L37.1179 14.7853H36.7812ZM38.0438 12.7098C37.9056 12.8838 37.7416 13.0217 37.5517 13.1236C37.3618 13.2255 37.1438 13.2976 36.8978 13.3401C36.9582 13.3613 37.0229 13.3719 37.092 13.3719C37.1524 13.3719 37.2301 13.357 37.3251 13.3273C37.42 13.3019 37.5193 13.2615 37.6229 13.2064C37.9121 13.0366 38.0912 12.9411 38.1603 12.9199V12.888C38.1603 12.8711 38.1215 12.8116 38.0438 12.7098ZM37.3121 6.63604C37.1783 6.63604 37.0747 6.67424 37.0014 6.75064L37.1114 6.85251C37.0769 6.85675 37.0834 6.861 37.1308 6.86524C37.1826 6.86524 37.269 6.86524 37.3898 6.86524C37.5021 6.86524 37.5798 6.82704 37.6229 6.75064C37.5452 6.67424 37.4416 6.63604 37.3121 6.63604ZM37.3575 9.07445H37.2021V9.23361H37.3575V9.07445ZM37.3057 11.3855C37.2366 11.428 37.2021 11.5001 37.2021 11.602C37.2021 11.6954 37.2366 11.7633 37.3057 11.8057L37.4093 11.7102V11.602C37.4308 11.5086 37.3963 11.4364 37.3057 11.3855ZM37.4093 12.627L37.3057 12.7289L37.4093 12.8307L37.5258 12.7289L37.4093 12.627ZM37.4675 14.8362H37.3057V14.989H37.4675V14.8362ZM40.012 10.7743H39.9797C39.9624 10.7743 39.9041 10.8019 39.8049 10.8571C39.8178 10.6321 39.8243 10.3541 39.8243 10.0231C39.82 9.68776 39.7897 9.32486 39.7336 8.93438C39.7034 8.78158 39.6538 8.64364 39.5847 8.52055C39.5113 8.39322 39.4229 8.28499 39.3193 8.19586C39.2157 8.10248 39.0991 8.03033 38.9696 7.97939C38.8401 7.92846 38.702 7.90724 38.5553 7.91573C38.0761 7.91573 37.733 8.11309 37.5258 8.50782C37.5517 8.63515 37.5733 8.78583 37.5905 8.95985C37.6078 9.13387 37.6229 9.33548 37.6359 9.56467C37.6229 9.91696 37.6208 10.1971 37.6294 10.4051C37.6337 10.613 37.6359 10.7404 37.6359 10.7871C37.7351 11.3176 37.9531 11.5914 38.2898 11.6083C38.3502 11.6083 38.4279 11.5956 38.5229 11.5701C38.6135 11.5447 38.7106 11.515 38.8142 11.481C38.9178 11.4513 39.0171 11.4237 39.1121 11.3983C39.2113 11.3685 39.2869 11.3537 39.3387 11.3537C39.4898 11.3537 39.6149 11.4046 39.7142 11.5065L39.8243 11.3855L39.507 11.1818C39.4898 11.1563 39.4811 11.1393 39.4811 11.1309V11.1118C39.4854 11.0438 39.5631 10.9314 39.7142 10.7743L40.012 11.0799H40.0768C40.1113 11.0799 40.1631 11.046 40.2322 10.9781L40.012 10.7743ZM37.733 11.9076L37.6164 11.9139V11.9776C37.6164 12.1347 37.6726 12.2132 37.7848 12.2132H37.8236C37.9013 12.1156 37.9402 12.0604 37.9402 12.0476C37.9402 11.9543 37.8711 11.9076 37.733 11.9076ZM38.7819 13.5565C38.4797 13.5565 38.2704 13.6202 38.1538 13.7475L38.361 13.9513C38.4344 13.93 38.5229 13.8833 38.6265 13.8112C38.7301 13.7348 38.8509 13.6499 38.9891 13.5565H38.7819ZM39.3387 12.0986L39.0926 12.1113C39.0193 12.1325 38.9135 12.1601 38.7754 12.1941C38.6416 12.228 38.4646 12.2684 38.2445 12.315L38.361 12.4233C38.4085 12.3851 38.4862 12.366 38.5941 12.366C38.6459 12.366 38.7322 12.3745 38.8531 12.3914C38.9696 12.4127 39.0538 12.4233 39.1056 12.4233C39.2783 12.4233 39.4121 12.3532 39.507 12.2132C39.4854 12.1368 39.4293 12.0986 39.3387 12.0986ZM38.4905 13.0345H38.361L38.5747 13.2509L38.6718 13.1363C38.6416 13.0684 38.5812 13.0345 38.4905 13.0345ZM38.6071 7.22813H38.4517V7.37457H38.6071V7.22813ZM39.4164 7.1581H39.2934L39.4164 7.25997V7.1581ZM39.9408 12.4233C39.725 12.4233 39.6149 12.5251 39.6106 12.7289C39.6365 12.7331 39.6559 12.7352 39.6689 12.7352H39.7077C39.7423 12.7352 39.7811 12.7267 39.8243 12.7098C39.8631 12.6885 39.9041 12.6631 39.9473 12.6334C39.9905 12.6079 40.0293 12.5824 40.0638 12.557C40.0984 12.5357 40.1221 12.5209 40.1351 12.5124C40.0746 12.453 40.0099 12.4233 39.9408 12.4233ZM39.9861 13.6011H39.8308V13.7475H39.9861V13.6011ZM39.9861 15.0845C39.8998 15.0845 39.848 15.1227 39.8308 15.1991L39.9214 15.301H39.9602C39.9818 15.301 40.0423 15.267 40.1415 15.1991C40.12 15.1227 40.0682 15.0845 39.9861 15.0845ZM40.2322 14.1614C40.1545 14.085 40.0962 14.0468 40.0574 14.0468L40.012 14.0659L40.2322 14.2823V14.1614ZM40.5948 12.0922C40.4091 12.0922 40.2883 12.1644 40.2322 12.3087C40.2883 12.3808 40.3509 12.4169 40.4199 12.4169C40.4761 12.4169 40.5494 12.3851 40.6401 12.3214C40.735 12.2577 40.8063 12.2195 40.8537 12.2068C40.7976 12.1304 40.7113 12.0922 40.5948 12.0922ZM40.4394 10.4624L40.3487 10.5579L40.4394 10.6661L40.5559 10.5579L40.4394 10.4624ZM40.8408 9.61561C40.8192 9.58165 40.7955 9.54982 40.7696 9.52011C40.7437 9.48615 40.7178 9.46281 40.6919 9.45008C40.666 9.42885 40.6509 9.41824 40.6465 9.41824L40.5494 9.51374C40.5624 9.52647 40.5991 9.56892 40.6595 9.64107C40.7199 9.71323 40.7739 9.74931 40.8214 9.74931L40.8537 9.7302L40.8732 9.70474C40.8732 9.67927 40.8624 9.64956 40.8408 9.61561ZM40.6465 13.13L40.5494 13.2382L40.6465 13.3337L40.7566 13.2382L40.6465 13.13ZM40.8537 14.0722L40.8343 14.0468C40.8084 14.0468 40.7458 14.085 40.6465 14.1614L40.7631 14.2823C40.8365 14.1762 40.8753 14.1147 40.8796 14.0977L40.8537 14.0722ZM40.8537 7.37457H40.7566L40.8537 7.59103V7.37457ZM41.6566 8.34229H41.4818V8.50145H41.6566V8.34229Z" fill="#E9B864"/>
<path fill-rule="evenodd" clip-rule="evenodd" d="M53.8546 19.8916C53.6819 20.1844 53.3236 20.3139 52.7798 20.2799H52.4172C52.2963 20.1526 52.1712 20.0889 52.0417 20.0889C51.9812 20.0889 51.9122 20.0995 51.8345 20.1208C51.7611 20.1462 51.6813 20.1717 51.5949 20.1972C51.5129 20.2269 51.4352 20.2523 51.3618 20.2736C51.2841 20.299 51.2216 20.3118 51.1741 20.3118C50.8762 20.3033 50.6388 20.0104 50.4619 19.4332C50.4101 19.2379 50.3604 19.0448 50.313 18.8538C50.2655 18.6628 50.2072 18.4633 50.1381 18.2553C49.8835 18.1874 49.5964 18.1429 49.277 18.1217C48.9101 18.1344 48.6209 18.1874 48.4094 18.2808C48.2022 18.3699 48.0469 18.51 47.9433 18.701C47.8958 18.8835 47.8483 19.0597 47.8008 19.2294C47.7577 19.395 47.708 19.5647 47.6519 19.7388C47.5354 20.1208 47.203 20.3075 46.6548 20.299C46.5944 20.299 46.5167 20.2969 46.4217 20.2927C46.3225 20.2842 46.2189 20.2778 46.111 20.2736C46.0074 20.2736 45.9059 20.2693 45.8066 20.2608C45.7031 20.2523 45.621 20.2481 45.5606 20.2481C45.5261 20.2481 45.4613 20.2545 45.3664 20.2672C45.2671 20.2757 45.1937 20.2799 45.1462 20.2799C44.8225 20.2884 44.5527 20.0889 44.3369 19.6815C44.3714 19.6136 44.4038 19.5435 44.434 19.4714C44.4686 19.3992 44.4988 19.3016 44.5247 19.1785L45.3664 14.9957C45.3793 14.9023 45.388 14.7877 45.3923 14.6519C45.4009 14.516 45.4052 14.3696 45.4052 14.2126C45.5218 13.7627 45.6426 13.2427 45.7678 12.6527C45.893 12.0628 46.0246 11.3561 46.1627 10.5327L46.8232 6.82732C46.8706 6.55143 46.9116 6.32436 46.9462 6.14609C46.9807 5.96783 47.0217 5.84262 47.0692 5.77046C47.1469 5.61342 47.2613 5.49882 47.4123 5.42667C47.5634 5.35027 47.7404 5.30782 47.9433 5.29934C48.0123 5.30782 48.1008 5.31631 48.2087 5.3248C48.3209 5.33753 48.4332 5.35027 48.5454 5.363C48.6619 5.37573 48.7742 5.38635 48.8821 5.39483C48.9857 5.40757 49.0698 5.41393 49.1346 5.41393C49.3634 5.41393 49.5597 5.37998 49.7238 5.31207C49.6806 5.29934 49.9223 5.29297 50.4489 5.29297C50.7295 5.29297 50.941 5.36937 51.0834 5.52217C51.0964 5.55612 51.1266 5.6304 51.1741 5.745C51.2216 5.85535 51.2906 6.01027 51.3813 6.20976C51.3813 6.26918 51.3877 6.35831 51.4007 6.47715C51.4136 6.596 51.4287 6.72121 51.446 6.85278C51.4633 6.98436 51.4805 7.11381 51.4978 7.24115C51.5151 7.36848 51.528 7.46398 51.5367 7.52764C51.5367 7.61253 51.5302 7.68681 51.5172 7.75047C51.5086 7.81414 51.4978 7.88417 51.4849 7.96057C51.5798 8.06244 51.6597 8.19613 51.7244 8.36167C51.7892 8.5272 51.8366 8.7288 51.8669 8.96649C51.8928 9.15749 51.9187 9.34212 51.9446 9.52038C51.9705 9.70289 52.0028 9.88116 52.0417 10.0552L52.9222 15.1994C53.1424 15.4498 53.2524 15.7321 53.2524 16.0461V16.1162L53.1424 16.218L53.3172 16.409C53.3215 16.6085 53.3517 16.8377 53.4078 17.0966C53.4553 17.3513 53.5244 17.6526 53.615 18.0007C53.6927 18.3657 53.7531 18.6883 53.7963 18.9684C53.8438 19.2443 53.874 19.4756 53.8869 19.6624L53.8546 19.8916ZM46.0851 16.912L45.9815 17.0202C46.0807 17.0924 46.1433 17.1285 46.1692 17.1285H46.1822L46.2016 17.0903C46.2016 17.069 46.1627 17.0096 46.0851 16.912ZM46.4476 11.2712H46.3052V11.4176H46.4476V11.2712ZM46.8232 17.6251H46.7066L46.9138 17.8352L47.0174 17.7142C46.9829 17.6548 46.9181 17.6251 46.8232 17.6251ZM47.3023 15.6896C47.285 15.6641 47.2634 15.6259 47.2375 15.575L47.121 15.6896C47.2246 15.7703 47.2807 15.8106 47.2893 15.8106L47.3282 15.7787V15.7469C47.3282 15.7342 47.3195 15.7151 47.3023 15.6896ZM47.38 14.7219H47.2375V14.862H47.38V14.7219ZM47.4253 13.7542L47.3282 13.8624L47.5483 14.0661L47.639 13.9515L47.4253 13.7542ZM47.6066 16.7656H47.4253V16.912H47.6066V16.7656ZM47.6972 9.51402H47.5483V9.66682H47.6972V9.51402ZM47.8526 13.0347L47.7361 13.0156C47.6454 13.0156 47.5828 13.056 47.5483 13.1366C47.6476 13.213 47.7037 13.2512 47.7166 13.2512L47.7555 13.2321C47.8332 13.1557 47.872 13.1069 47.872 13.0857L47.8526 13.0347ZM48.0598 14.862H47.9497C47.7814 14.8407 47.6497 14.9108 47.5548 15.0721C47.5764 15.1485 47.6303 15.1866 47.7166 15.1866H47.9692C48.0296 15.1442 48.0598 15.0721 48.0598 14.9702V14.862ZM48.0598 7.94147C48.0253 7.86507 47.9627 7.82687 47.872 7.82687L47.762 7.84597V7.8778C47.7404 8.00089 47.8159 8.06244 47.9886 8.06244L48.0598 8.04334V7.94147ZM47.9692 8.84553C47.8656 8.84553 47.7965 8.88161 47.762 8.95376L47.8526 9.06836H47.9886C48.0706 9.06836 48.1332 9.03016 48.1763 8.95376C48.1332 8.88161 48.0641 8.84553 47.9692 8.84553ZM48.0404 16.912H47.762L48.0598 17.2176L48.2799 17.0139C48.2238 16.946 48.144 16.912 48.0404 16.912ZM47.9692 10.278C47.8915 10.2992 47.8526 10.3544 47.8526 10.4435C47.8526 10.5199 47.8915 10.5666 47.9692 10.5836L48.0598 10.4945V10.4563C48.0598 10.4393 48.0296 10.3799 47.9692 10.278ZM48.1763 17.9307H48.0598C47.9562 17.9307 47.8871 17.9667 47.8526 18.0389C47.9476 18.1153 48.0058 18.1535 48.0274 18.1535L48.0598 18.1344C48.1375 18.0368 48.1763 17.9858 48.1763 17.9816V17.9307ZM50.0475 15.0402C50.0302 15.0105 50.0151 14.9957 50.0022 14.9957L49.8144 12.4299L50.0281 12.2135L49.8015 12.2389C49.7238 12.0267 49.6677 11.8102 49.6331 11.5895C49.5943 11.3688 49.5921 11.1396 49.6267 10.9019C49.5144 10.7322 49.3763 10.6579 49.2123 10.6791L49.0957 10.6982C48.8454 10.8934 48.7418 11.1311 48.785 11.4113C48.5864 11.6023 48.4893 12.014 48.4936 12.6464C48.5065 13.2236 48.3317 13.5589 47.9692 13.6523L47.9433 13.6841C47.9433 13.7223 47.9627 13.7563 48.0015 13.786C48.0404 13.8115 48.0857 13.8306 48.1375 13.8433C48.1893 13.8603 48.2368 13.8751 48.2799 13.8879C48.3274 13.9091 48.3576 13.9282 48.3706 13.9452C48.3361 14.0003 48.3058 14.0619 48.2799 14.1298C48.2584 14.1977 48.2497 14.272 48.254 14.3526C48.254 14.4078 48.2605 14.4736 48.2735 14.55C48.2821 14.6221 48.295 14.6985 48.3123 14.7792C48.3296 14.8641 48.3447 14.9426 48.3576 15.0148C48.3663 15.0912 48.3706 15.1569 48.3706 15.2121C48.3706 15.331 48.3361 15.4286 48.267 15.505C48.1979 15.5814 48.0986 15.6429 47.9692 15.6896L48.0598 15.7787C48.185 15.6557 48.4137 15.5877 48.7461 15.575H49.5231C49.5835 15.5962 49.618 15.6641 49.6267 15.7787V15.6896C49.6396 15.6769 49.6655 15.6493 49.7043 15.6068C49.7432 15.5644 49.8101 15.5071 49.9051 15.4349C50.0173 15.3246 50.0734 15.2227 50.0734 15.1294C50.0734 15.1039 50.0648 15.0742 50.0475 15.0402ZM48.7137 9.67318C48.6878 9.67318 48.6576 9.69441 48.6231 9.73685C48.6188 9.74534 48.6145 9.75383 48.6101 9.76231C48.6274 9.75807 48.6447 9.75383 48.6619 9.74958C48.7224 9.73261 48.7634 9.70714 48.785 9.67318H48.7137ZM48.6101 9.76231C48.5627 9.77505 48.5173 9.78778 48.4742 9.80052C48.4051 9.81325 48.3425 9.83447 48.2864 9.86418C48.2346 9.88965 48.1979 9.92997 48.1763 9.98514C48.2238 10.0446 48.2756 10.0743 48.3317 10.0743C48.3663 10.0743 48.4008 10.0552 48.4353 10.017C48.4699 9.97453 48.5022 9.92785 48.5324 9.87692C48.5583 9.83447 48.5842 9.79627 48.6101 9.76231ZM48.6943 8.3362C48.513 8.3362 48.3749 8.3744 48.2799 8.4508L48.4871 8.65453C48.5217 8.59086 48.6814 8.55903 48.9662 8.55903C49.1087 8.55903 49.1907 8.489 49.2123 8.34893C49.2382 8.34044 49.0655 8.3362 48.6943 8.3362ZM48.3706 17.3195L48.2799 17.5296L48.3706 17.4213V17.3195ZM48.5583 7.23478C48.4763 7.23478 48.4137 7.26661 48.3706 7.33028L48.4871 7.43214L48.6943 7.23478H48.5583ZM49.4389 17.033C49.3223 17.0393 49.1605 16.9566 48.9598 16.7783C48.7699 16.5873 48.6123 16.4918 48.4871 16.4918C48.4094 16.5342 48.3706 16.5894 48.3706 16.6573C48.3706 16.7252 48.4094 16.7783 48.4871 16.8165C48.5346 16.7698 48.6037 16.7465 48.6943 16.7465C48.8022 16.7465 48.9231 16.8207 49.0569 16.9693C49.1864 17.1221 49.2835 17.1985 49.3482 17.1985C49.3871 17.1985 49.4454 17.1369 49.5231 17.0139L49.4389 17.033ZM48.785 6.40076H48.5778L48.785 6.51535V6.40076ZM49.0116 8.95376C48.9555 8.95376 48.9166 8.99196 48.895 9.06836L49.0957 9.27209H49.1346C49.1648 9.27209 49.2209 9.23389 49.3029 9.15749C49.1648 9.02167 49.0677 8.95376 49.0116 8.95376ZM49.2123 7.42578L49.0957 7.52128C49.1864 7.59767 49.2447 7.64224 49.2835 7.64224H49.3029L49.3223 7.59768C49.3223 7.5807 49.2857 7.5234 49.2123 7.42578ZM49.0957 9.98514L49.3029 10.278L49.4195 10.1634L49.0957 9.98514ZM49.2058 16.1098V16.2117L49.3029 16.1098H49.2058ZM49.8015 9.27845L49.7691 9.25299C49.7561 9.25299 49.7065 9.29119 49.6202 9.36759L49.7108 9.45672C49.7885 9.38881 49.8274 9.33575 49.8274 9.29755L49.8015 9.27845ZM50.9475 16.7083C50.8568 16.5597 50.6993 16.4854 50.4748 16.4854C50.3755 16.4854 50.2806 16.4939 50.1899 16.5109C50.095 16.5279 50.0065 16.564 49.9245 16.6191L50.0151 16.7083C50.0626 16.6828 50.1058 16.6616 50.1446 16.6446C50.1835 16.6276 50.2309 16.6191 50.2871 16.6191C50.3259 16.6191 50.3777 16.6297 50.4424 16.651C50.5029 16.6722 50.5655 16.6934 50.6302 16.7146C50.6906 16.7401 50.7511 16.7634 50.8115 16.7847C50.8676 16.8016 50.9129 16.8144 50.9475 16.8229V16.7083ZM50.1317 10.9974H50.0151L50.1317 11.0866V10.9974ZM50.0151 17.8415V17.9307L50.1317 17.8415H50.0151ZM50.3065 12.8437C50.1856 12.8437 50.1252 12.901 50.1252 13.0156V13.0475H50.2547C50.3367 13.0475 50.3971 13.0093 50.436 12.9329C50.4101 12.8692 50.3648 12.8437 50.3065 12.8437ZM50.5331 13.4422L50.5137 13.474C50.4835 13.474 50.4273 13.4316 50.3453 13.3467L50.2223 13.4422C50.2612 13.5228 50.3367 13.5632 50.4489 13.5632H50.5331V13.4422ZM50.5331 9.67318H50.4878C50.4705 9.67318 50.423 9.71138 50.3453 9.78778L50.436 9.87692C50.505 9.79203 50.5396 9.73897 50.5396 9.71775L50.5331 9.67318ZM50.8827 15.8424C50.736 15.7872 50.5849 15.7321 50.4295 15.6769C50.4511 15.7405 50.4878 15.7936 50.5396 15.836C50.5914 15.8827 50.6518 15.9209 50.7209 15.9506C50.7899 15.9804 50.8655 16.0079 50.9475 16.0334C51.0252 16.0546 51.0985 16.0801 51.1676 16.1098C51.1244 15.9867 51.0295 15.8976 50.8827 15.8424ZM50.5849 11.3603H50.4424V11.5131H50.5849V11.3603ZM51.2259 15.1485C51.1654 15.1272 51.1029 15.1039 51.0381 15.0784C50.9734 15.053 50.9108 15.0296 50.8503 15.0084C50.7942 14.9872 50.7489 14.9766 50.7144 14.9766C50.6583 14.9766 50.6065 14.9872 50.559 15.0084C50.5158 15.0296 50.477 15.053 50.4424 15.0784C50.4856 15.0869 50.5353 15.0996 50.5914 15.1166C50.6518 15.1378 50.7122 15.1612 50.7727 15.1866C50.8374 15.2079 50.8978 15.2291 50.9539 15.2503C51.0144 15.2715 51.064 15.2821 51.1029 15.2821C51.1892 15.2821 51.2798 15.2524 51.3748 15.193C51.3316 15.1845 51.282 15.1697 51.2259 15.1485ZM50.6496 14.0598L50.5331 14.1489L50.6496 14.2762L50.7403 14.1489L50.6496 14.0598ZM51.5302 17.5168C51.4439 17.5168 51.3942 17.5529 51.3813 17.6251L51.582 17.8415C51.6597 17.7481 51.6985 17.6908 51.6985 17.6696C51.6985 17.5678 51.6424 17.5168 51.5302 17.5168ZM52.0093 14.0598L51.8928 14.1553L52.0093 14.2762L52.0999 14.1553L52.0093 14.0598Z" fill="#E9B864"/>
<path fill-rule="evenodd" clip-rule="evenodd" d="M63.7739 14.8046C63.7393 15.28 63.7005 15.7278 63.6573 16.148C63.6098 16.5682 63.5386 16.9714 63.4437 17.3576C63.2624 17.8882 63.0681 18.3423 62.8609 18.7201C62.6538 19.0936 62.4207 19.3801 62.1617 19.5796C62.0149 19.7069 61.8833 19.8045 61.7667 19.8724C61.6502 19.9404 61.5531 19.9807 61.4754 19.9934C61.3286 20.0359 61.1387 20.0847 60.9056 20.1398C60.6725 20.195 60.4071 20.2587 60.1092 20.3308C60.1049 20.3181 59.8848 20.2926 59.4488 20.2544C59.0129 20.2162 58.3741 20.1674 57.5324 20.108C57.2604 19.9467 57.0252 19.8109 56.8266 19.7005C56.6281 19.5902 56.4792 19.4989 56.3799 19.4268C56.1684 19.2697 55.9936 19.1106 55.8554 18.9493C55.7216 18.7838 55.618 18.6097 55.5447 18.4272C55.5144 18.2999 55.4713 18.1344 55.4152 17.9306C55.3677 17.7481 55.3202 17.5699 55.2727 17.3958C55.2253 17.2218 55.1864 17.0563 55.1562 16.8992C55.0828 14.985 55.031 13.5568 55.0008 12.6145C54.9663 11.668 54.9361 11.2033 54.9102 11.2202C54.9102 11.0292 55.0094 10.9104 55.208 10.8637C55.2943 10.8001 55.3375 10.7279 55.3375 10.6473C55.3375 10.5709 55.2404 10.5411 55.0461 10.5581C55.0332 10.0743 55.0396 9.65619 55.0655 9.3039C55.0914 8.95162 55.1324 8.65239 55.1886 8.40621C55.3569 7.59129 55.672 6.96736 56.1338 6.53443C56.19 6.49199 56.2741 6.43045 56.3864 6.3498C56.4986 6.26916 56.6453 6.17154 56.8266 6.05694C56.9302 5.99327 57.036 5.92537 57.1439 5.85321C57.2518 5.77681 57.3597 5.70466 57.4676 5.63674C57.5798 5.56883 57.6921 5.51366 57.8043 5.47122C57.9165 5.42453 58.0331 5.40118 58.1539 5.40118C58.2834 5.40118 58.4215 5.43302 58.5683 5.49668C58.8143 5.3651 59.0971 5.29932 59.4165 5.29932C59.5114 5.29932 59.6323 5.3078 59.779 5.32478C59.9215 5.34176 60.0941 5.37147 60.297 5.41391C60.4956 5.42665 60.6682 5.4415 60.815 5.45848C60.9574 5.47546 61.0804 5.48819 61.184 5.49668V5.56671C61.184 5.55398 61.2035 5.56247 61.2423 5.59218C61.2811 5.62189 61.3394 5.68131 61.4171 5.77044C61.5941 5.77469 61.7581 5.82774 61.9092 5.92961C62.0603 6.03147 62.1984 6.19276 62.3236 6.41347C62.5048 6.6554 62.6559 6.8464 62.7768 6.98646C62.8976 7.12653 62.9926 7.2199 63.0617 7.26659C63.2775 7.9457 63.4437 8.53354 63.5602 9.03014C63.6767 9.52249 63.7307 9.93632 63.7221 10.2716C63.7307 10.4838 63.7134 10.6876 63.6703 10.8828C63.6314 11.0781 63.5839 11.2648 63.5278 11.4431C63.4156 11.4431 63.2818 11.4473 63.1264 11.4558C62.971 11.4685 62.7833 11.4876 62.5631 11.5131C62.3559 11.5386 62.1725 11.5598 62.0128 11.5768C61.8574 11.5938 61.7193 11.5959 61.5984 11.5831C61.2617 11.5959 60.9768 11.5471 60.7438 11.4367C60.515 11.3264 60.3596 11.1651 60.2776 10.9528C60.351 10.8382 60.3877 10.7152 60.3877 10.5836C60.3877 10.5454 60.3833 10.4923 60.3747 10.4244C60.3618 10.3565 60.3488 10.2844 60.3359 10.208C60.3229 10.1358 60.31 10.0636 60.297 9.99149C60.2841 9.91934 60.2776 9.86204 60.2776 9.8196C60.2776 9.76017 60.2862 9.70075 60.3035 9.64133C60.3164 9.57767 60.3445 9.51825 60.3877 9.46307C60.3833 9.43336 60.3704 9.38879 60.3488 9.32937C60.3272 9.26995 60.3035 9.21053 60.2776 9.1511C60.256 9.08744 60.2344 9.02589 60.2128 8.96647C60.1913 8.90705 60.1805 8.85612 60.1805 8.81368C60.1805 8.7203 60.2128 8.64178 60.2776 8.57811C60.1999 8.56538 60.1071 8.53779 59.9992 8.49535C59.8913 8.44866 59.7618 8.3956 59.6107 8.33618C59.4726 8.25554 59.3496 8.18975 59.2416 8.13882C59.1294 8.09213 59.0366 8.06242 58.9632 8.04968C58.7474 8.35104 58.5899 8.62268 58.4906 8.86461C58.3913 9.11078 58.3374 9.33573 58.3287 9.53946C58.3287 9.6668 58.3395 9.77503 58.3611 9.86416C58.2834 9.99998 58.2446 10.1485 58.2446 10.3098C58.2446 10.365 58.2489 10.4372 58.2575 10.5263C58.2705 10.6154 58.2856 10.7067 58.3028 10.8001C58.3201 10.8934 58.3331 10.9847 58.3417 11.0738C58.3546 11.1629 58.3611 11.2351 58.3611 11.2903C58.3611 11.4813 58.3223 11.6298 58.2446 11.7359C58.3223 11.7784 58.3611 11.823 58.3611 11.8696C58.3611 11.9036 58.3417 11.9482 58.3028 12.0033C58.264 12.0585 58.2489 12.1094 58.2575 12.1561C58.2489 12.2707 58.2489 12.4087 58.2575 12.57C58.2705 12.727 58.2834 12.9244 58.2964 13.1621C58.3179 13.3913 58.3309 13.5907 58.3352 13.7605C58.3395 13.9303 58.3417 14.081 58.3417 14.2125L58.3611 15.2376C58.3654 15.3691 58.3568 15.5559 58.3352 15.7978C58.3093 16.044 58.2791 16.3432 58.2446 16.6955C58.3741 16.7931 58.5187 16.9205 58.6784 17.0775C58.8381 17.2388 59.0323 17.4128 59.2611 17.5996C59.3345 17.4468 59.5308 17.3152 59.8503 17.2048C60.1826 17.0987 60.3488 16.9735 60.3488 16.8292C60.3488 16.7189 60.2927 16.5788 60.1805 16.409C60.2927 16.2223 60.3488 15.9761 60.3488 15.6705C60.3488 15.6196 60.3445 15.5517 60.3359 15.4668C60.3315 15.3776 60.3229 15.2843 60.31 15.1866C60.3013 15.0848 60.2927 14.9914 60.2841 14.9065C60.2797 14.8174 60.2776 14.7452 60.2776 14.69C60.2776 14.2741 60.4006 13.9558 60.6466 13.735L63.3077 13.7223C63.5796 13.9388 63.7221 14.2847 63.735 14.7601L63.7739 14.8046ZM55.4281 15.7214H55.208L55.4281 15.8424V15.7214ZM56.6453 10.6536C56.5979 10.59 56.5525 10.5581 56.5094 10.5581C56.4274 10.5581 56.3324 10.6239 56.2245 10.7555H56.6453V10.6536ZM56.4899 8.90917H56.3346V9.06197H56.4899V8.90917ZM56.6777 11.494H56.5353V11.6468H56.6777V11.494ZM56.6777 17.5677H56.5353V17.7078H56.6777V17.5677ZM56.7943 7.91599H56.6453V8.07515H56.7943V7.91599ZM56.7943 12.3153H56.6453V12.449H56.7943V12.3153ZM57.1309 16.4218L57.0403 16.6318H57.2281L57.2475 16.5937C57.2475 16.5597 57.2086 16.5024 57.1309 16.4218ZM57.5 6.92916H57.3511V7.06923H57.5V6.92916ZM57.3511 7.97965V8.08152L57.4417 7.97965H57.3511ZM57.5 13.3976H57.3511V13.5632H57.5V13.3976ZM57.5 14.881H57.3511V15.0466H57.5V14.881ZM57.8496 8.97284H57.5388L57.759 9.17657C57.8324 9.0832 57.869 9.0259 57.869 9.00467L57.8496 8.97284ZM58.0568 11.1693H57.9467L58.0568 11.2648V11.1693ZM58.3611 7.87779H58.2446C58.1323 7.85232 58.0698 7.88415 58.0568 7.97328C58.1345 8.04544 58.1863 8.08152 58.2122 8.08152L58.2446 8.07515C58.3223 7.99875 58.3611 7.94357 58.3611 7.90962V7.87779ZM58.1539 17.8288H58.0568L58.1539 17.9179V17.8288ZM58.8143 18.8602H58.6719V19.013H58.8143V18.8602ZM58.9179 17.3831H58.7625V17.5232H58.9179V17.3831ZM59.6819 18.5227C59.6431 18.4506 59.5719 18.4145 59.4683 18.4145H59.3711L59.3647 18.4654C59.3647 18.5673 59.4445 18.6182 59.6042 18.6182H59.6819V18.5227ZM59.779 6.19064L60.1805 6.58537L60.2776 6.49623L59.779 6.19064ZM60.7567 17.5104C60.5582 17.5104 60.4654 17.5147 60.4783 17.5232C60.5128 17.5359 60.5625 17.5699 60.6272 17.625C60.6876 17.6802 60.7524 17.7078 60.8215 17.7078C60.8905 17.7078 60.9423 17.676 60.9768 17.6123C60.9509 17.5444 60.8776 17.5104 60.7567 17.5104ZM61.2358 7.76955C61.1581 7.76955 61.1107 7.80563 61.0934 7.87779L61.184 7.97328H61.2294C61.2337 7.97328 61.2509 7.9648 61.2811 7.94782C61.3114 7.93084 61.3524 7.9075 61.4042 7.87779C61.361 7.80563 61.3049 7.76955 61.2358 7.76955ZM61.5855 7.87779L61.8898 8.17702L61.9804 8.07515L61.5855 7.87779ZM61.7926 14.932H61.7408C61.7365 14.932 61.6847 14.9659 61.5855 15.0338L61.689 15.1357C61.7581 15.0466 61.7926 14.9893 61.7926 14.9638V14.932ZM61.8898 8.96647L61.7926 9.05561L61.8898 9.1702L61.9804 9.05561L61.8898 8.96647ZM61.8898 16.8101L61.7991 16.8292L61.9804 17.0202L62.1099 16.9183C62.0667 16.8462 61.9934 16.8101 61.8898 16.8101ZM62.1099 17.8288H61.9804L62.1099 17.9179V17.8288ZM62.2523 15.2758H62.1099V15.4286H62.2523V15.2758ZM62.5631 8.43168H62.4077V8.57175H62.5631V8.43168ZM62.6602 16.3836H62.5113V16.53H62.6602V16.3836Z" fill="#E9B864"/>
<path fill-rule="evenodd" clip-rule="evenodd" d="M73.4985 15.6258C73.4985 15.6725 73.5179 15.7467 73.5568 15.8486C73.5956 15.9505 73.615 16.0269 73.615 16.0778C73.615 16.0948 73.6129 16.1181 73.6086 16.1478C73.6043 16.1733 73.6107 16.203 73.628 16.237C73.5115 16.9246 73.3582 17.5124 73.1683 18.0005C72.9784 18.4886 72.7647 18.8812 72.5273 19.1783C72.1777 19.5858 71.7633 19.8765 71.2842 20.0506C70.8051 20.2246 70.218 20.2989 69.5231 20.2734C68.9145 20.2989 68.3793 20.2458 67.9174 20.1142C67.4556 19.9826 67.0606 19.8171 66.7326 19.6176C66.5297 19.4563 66.3333 19.259 66.1434 19.0255C65.9535 18.7878 65.7894 18.5247 65.6513 18.2361C65.5002 17.9432 65.3815 17.6546 65.2952 17.3702C65.2046 17.0858 65.1377 16.8227 65.0945 16.5808C65.0341 15.2098 64.9995 14.1848 64.9909 13.5057C64.9866 12.8308 64.9628 12.4722 64.9197 12.4297C64.9413 12.4382 64.9628 12.1602 64.9844 11.5957C65.0017 11.0312 65.0535 10.1505 65.1398 8.95359C65.1657 8.55462 65.2326 8.21507 65.3405 7.93494C65.4528 7.65056 65.6189 7.39802 65.8391 7.17731C65.9383 6.83776 66.1002 6.5449 66.3247 6.29872C66.5491 6.05255 66.8685 5.84882 67.2829 5.68753C67.9001 5.4074 68.6124 5.26733 69.4195 5.26733C70.1533 5.26733 70.8008 5.37557 71.3619 5.59203C71.923 5.80425 72.3978 6.14592 72.7863 6.61705C72.7734 6.65101 72.7626 6.67647 72.7539 6.69345C72.7496 6.71043 72.7475 6.73589 72.7475 6.76985C72.7475 6.80805 72.7669 6.85686 72.8057 6.91628C72.8489 6.97146 72.8964 7.03088 72.9482 7.09455C73 7.15397 73.0496 7.21127 73.0971 7.26644C73.1446 7.32162 73.1769 7.36831 73.1942 7.40651C73.2417 7.56355 73.287 7.7503 73.3302 7.96677C73.3733 8.18748 73.4122 8.43577 73.4467 8.71166C73.5028 9.37803 73.5546 10.0168 73.6021 10.628C73.6453 11.2392 73.6776 11.8334 73.6992 12.4107L73.6798 15.422C73.5589 15.4857 73.4985 15.5536 73.4985 15.6258ZM65.6772 15.4857H65.5348V15.6258H65.6772V15.4857ZM65.9621 14.8491C65.9276 14.8321 65.8844 14.8236 65.8326 14.8236C65.7247 14.8236 65.6556 14.8618 65.6254 14.9382L65.7419 15.0401H65.8261C65.9427 15.0401 66.0074 15.0061 66.0204 14.9382C66.0117 14.8957 65.9923 14.866 65.9621 14.8491ZM65.8779 13.0346L65.8326 13.0537L65.9297 13.2447L66.0204 13.1555C65.9383 13.0749 65.8909 13.0346 65.8779 13.0346ZM66.616 11.0864C66.5988 11.0609 66.5772 11.0249 66.5513 10.9782C66.4693 10.9951 66.4283 11.0461 66.4283 11.131C66.4283 11.1904 66.4693 11.2413 66.5513 11.2838L66.6419 11.1692V11.1501C66.6419 11.1373 66.6333 11.1161 66.616 11.0864ZM66.6031 14.0914H66.4477V14.2315H66.6031V14.0914ZM66.8426 9.80671C66.821 9.78549 66.8038 9.77488 66.7908 9.77488L66.739 9.79398L66.8491 9.99135L66.9527 9.88948C66.8966 9.85552 66.8599 9.82793 66.8426 9.80671ZM66.8491 15.543H66.739L66.8491 15.6321V15.543ZM67.2441 10.1887C67.1275 10.2057 66.9959 10.2906 66.8491 10.4434V10.4943C66.862 10.4646 66.8923 10.4391 66.9397 10.4179C66.9829 10.4009 67.0282 10.3839 67.0757 10.367C67.1189 10.3542 67.1577 10.3373 67.1923 10.316C67.2268 10.2991 67.2441 10.2694 67.2441 10.2269V10.1887ZM67.4383 17.1219C67.3865 17.0498 67.2915 17.0137 67.1534 17.0137C67.0196 17.0137 66.9527 17.0731 66.9527 17.192C66.9527 17.2811 67.0002 17.3257 67.0951 17.3257H67.3476C67.4253 17.2323 67.4642 17.175 67.4642 17.1538L67.4383 17.1219ZM67.2376 14.7408H67.2052C67.0973 14.7408 67.0433 14.7939 67.0433 14.9V14.9446H67.1469C67.2074 14.8554 67.2376 14.7981 67.2376 14.7727V14.7408ZM67.7491 7.11365C67.6843 7.03725 67.6002 6.99905 67.4966 6.99905C67.4016 6.99905 67.3153 7.03725 67.2376 7.11365C67.2851 7.19429 67.352 7.23461 67.4383 7.23461C67.6584 7.23461 67.762 7.224 67.7491 7.20278V7.11365ZM67.8009 14.7918H67.6455V14.9446H67.8009V14.7918ZM67.7491 13.1619V13.2574L67.8397 13.1619H67.7491ZM67.8397 8.71166V8.81353L67.9563 8.71166H67.8397ZM68.1505 16.1287C68.116 16.1415 68.0512 16.1096 67.9563 16.0332L67.8397 16.237C67.9304 16.3006 67.9865 16.3325 68.0081 16.3325H68.0469C68.1246 16.2476 68.1634 16.1882 68.1634 16.1542L68.1505 16.1287ZM67.9822 17.7586H67.8397V17.9114H67.9822V17.7586ZM70.7209 12.1687C70.6864 12.1687 70.6389 12.1815 70.5785 12.2069C70.518 12.2281 70.4684 12.2388 70.4296 12.2388C70.3173 12.2388 70.2612 12.1708 70.2612 12.035C70.2612 12.0308 70.2698 12.0138 70.2871 11.9841C70.3044 11.9586 70.3281 11.9183 70.3583 11.8631C70.3281 11.8164 70.3044 11.7676 70.2871 11.7167C70.2698 11.6658 70.2655 11.6127 70.2742 11.5575C70.2742 11.4981 70.2828 11.4281 70.3001 11.3474C70.3173 11.2625 70.3367 11.1777 70.3583 11.0928C70.3842 11.0079 70.4101 10.9294 70.436 10.8572C70.4576 10.7808 70.4684 10.7235 70.4684 10.6853L70.572 10.7872L70.6691 10.6853L70.572 10.5898L70.4684 10.6853C70.3303 10.5622 70.2591 10.4052 70.2547 10.2142C70.2591 10.176 70.2677 10.1187 70.2806 10.0423C70.2893 9.96588 70.3022 9.88948 70.3195 9.81308C70.3368 9.73244 70.3497 9.65816 70.3583 9.59025C70.3713 9.5181 70.3799 9.4608 70.3842 9.41835C70.3799 9.28253 70.3432 9.14883 70.2742 9.01726C70.2051 8.88568 70.1166 8.76896 70.0087 8.6671C69.9008 8.56523 69.7821 8.48034 69.6526 8.41243C69.5231 8.34452 69.3915 8.31056 69.2577 8.31056C68.9555 8.31905 68.7289 8.51005 68.5778 8.88356C68.5174 8.9642 68.4419 9.27192 68.3512 9.80671V9.82581C68.3512 9.87674 68.3663 9.9489 68.3965 10.0423C68.4267 10.1357 68.4419 10.2057 68.4419 10.2524C68.4419 10.3712 68.3814 10.454 68.2606 10.5007C68.3814 10.6025 68.4419 10.7341 68.4419 10.8954C68.4419 10.9591 68.4311 11.0524 68.4095 11.1755C68.3836 11.3029 68.3706 11.4026 68.3706 11.4748C68.3706 11.5851 68.3944 11.6849 68.4419 11.774C68.3728 11.8122 68.3383 11.8568 68.3383 11.9077C68.3383 11.9416 68.3598 11.982 68.403 12.0287C68.4462 12.0753 68.4677 12.1157 68.4677 12.1496C68.4677 12.2048 68.4289 12.2494 68.3512 12.2833C68.4332 12.4191 68.4634 12.6123 68.4419 12.8627C68.4289 13.1471 68.4289 13.3465 68.4419 13.4611C68.3728 13.5248 68.3383 13.6012 68.3383 13.6903C68.3383 13.754 68.3555 13.8389 68.3901 13.945C68.4246 14.0511 68.4419 14.1275 68.4419 14.1742C68.4419 14.2973 68.3814 14.3928 68.2606 14.4607C68.1699 14.3843 68.1009 14.327 68.0534 14.2888C68.0016 14.2464 67.9627 14.2251 67.9368 14.2251C67.9023 14.2251 67.8721 14.2315 67.8462 14.2442V14.3461C67.9498 14.4182 68.0534 14.4798 68.157 14.5307C68.2174 14.5307 68.2519 14.5074 68.2606 14.4607L68.4419 14.6517V14.7663C68.4419 14.8469 68.4116 14.9085 68.3512 14.9509C68.4116 15.0231 68.4419 15.1525 68.4419 15.3393V15.734C68.3728 15.8274 68.3383 15.9123 68.3383 15.9887C68.3383 16.0311 68.3555 16.0863 68.3901 16.1542C68.4246 16.2221 68.4613 16.29 68.5001 16.3579C68.539 16.4301 68.5757 16.5001 68.6102 16.568C68.6447 16.6359 68.662 16.6975 68.662 16.7527L68.6685 16.8354C68.7893 17.0731 68.9361 17.2493 69.1087 17.3639C69.2857 17.4785 69.5058 17.5358 69.7691 17.5358C69.7994 17.5358 69.8296 17.5358 69.8598 17.5358C69.8943 17.5358 69.9245 17.5336 69.9504 17.5294C69.9245 17.4785 69.9029 17.4296 69.8857 17.383C69.8684 17.3363 69.8598 17.2917 69.8598 17.2493C69.8684 17.1983 69.8965 17.1325 69.944 17.0519C69.9914 16.9755 70.0454 16.8885 70.1058 16.7909C70.1706 16.6975 70.2288 16.5956 70.2806 16.4853C70.3324 16.3792 70.3648 16.2688 70.3778 16.1542C70.3475 15.6831 70.3324 15.3117 70.3324 15.0401C70.3281 14.7684 70.3044 14.5753 70.2612 14.4607C70.3389 14.4055 70.3778 14.344 70.3778 14.2761C70.3778 14.2209 70.3626 14.1572 70.3324 14.0851C70.2979 14.0087 70.2806 13.9535 70.2806 13.9195C70.2806 13.8474 70.3065 13.7964 70.3583 13.7667L70.2612 13.6585V13.5885C70.2612 13.4696 70.2936 13.3975 70.3583 13.372L70.2612 13.2574C70.2483 13.2235 70.2418 13.1895 70.2418 13.1555C70.2418 13.1173 70.2418 13.0707 70.2418 13.0155C70.2504 12.7566 70.2957 12.5677 70.3778 12.4488C70.4598 12.33 70.5806 12.2685 70.7403 12.2642C70.7533 12.2642 70.7705 12.2642 70.7921 12.2642C70.8137 12.2642 70.8418 12.2706 70.8763 12.2833C70.8116 12.2069 70.7598 12.1687 70.7209 12.1687ZM68.1052 11.9332H67.9498V12.0796H68.1052V11.9332ZM68.2541 8.4188L68.1505 8.50793C68.198 8.54188 68.2304 8.56947 68.2476 8.5907C68.2649 8.61192 68.28 8.62253 68.2929 8.62253L68.3447 8.60343V8.58433C68.3447 8.55037 68.3145 8.4952 68.2541 8.4188ZM68.662 17.8159C68.6275 17.8371 68.5541 17.8032 68.4419 17.714L68.662 17.9114V17.8159ZM68.8109 7.55931H68.6555V7.7121H68.8109V7.55931ZM69.3094 18.4462H69.1541V18.6117H69.3094V18.4462ZM69.4001 6.47699H69.2447V6.62342H69.4001V6.47699ZM69.5555 7.43197C69.4605 7.48715 69.3569 7.5487 69.2447 7.61661C69.2663 7.67178 69.3073 7.69937 69.3677 7.69937C69.3548 7.69937 69.4497 7.63358 69.6526 7.50201C69.6353 7.45532 69.603 7.43197 69.5555 7.43197ZM69.6073 17.9942C69.5037 17.9942 69.4238 18.0302 69.3677 18.1024L69.4648 18.2042H69.6914C69.7821 18.2042 69.8382 18.1703 69.8598 18.1024C69.8037 18.0302 69.7195 17.9942 69.6073 17.9942ZM70.067 18.9873H69.8598L70.067 19.1019V18.9873ZM70.3583 8.40606L70.2612 8.3042L70.3583 8.50156V8.40606ZM70.5137 17.7395H70.3583V17.8923H70.5137V17.7395ZM70.572 17.1092L70.4684 17.3129L71.0576 17.1092H70.572ZM71.0576 7.69937C71.0533 7.63146 71.0187 7.59751 70.954 7.59751C70.8979 7.59751 70.8375 7.63146 70.7727 7.69937C70.708 7.76304 70.6734 7.79487 70.6691 7.79487H71.0576V7.69937ZM71.0576 9.78125C71.0101 9.79823 70.9605 9.78125 70.9087 9.73031C70.8569 9.67938 70.8072 9.62845 70.7598 9.57752L70.6691 9.67302C70.8202 9.82157 70.9259 9.89585 70.9864 9.89585C70.9993 9.89585 71.0144 9.89585 71.0317 9.89585C71.0446 9.89585 71.0533 9.88948 71.0576 9.87675V9.78125ZM70.9151 13.0919H70.7598V13.2319H70.9151V13.0919ZM71.4202 15.6703H71.2777V15.8104H71.4202V15.6703ZM71.3684 17.9878L71.2777 18.096L71.3684 18.1979L71.4655 18.096L71.3684 17.9878ZM71.6791 8.69893C71.6489 8.62677 71.5928 8.5907 71.5108 8.5907C71.4331 8.5907 71.3856 8.62677 71.3684 8.69893C71.3856 8.72864 71.4094 8.7541 71.4396 8.77532C71.4655 8.7923 71.4957 8.80079 71.5302 8.80079H71.6791V8.69893ZM71.5755 9.48838L71.459 9.58388L71.5755 9.67938L71.6791 9.58388L71.5755 9.48838ZM71.5755 15.1419H71.459L71.5755 15.2374V15.1419ZM71.7309 16.4725H71.5755V16.6253H71.7309V16.4725ZM71.7698 8.01134L71.6727 8.10047C71.7245 8.13442 71.759 8.16201 71.7763 8.18323C71.7935 8.20445 71.8086 8.21506 71.8216 8.21506L71.8604 8.19597L71.8799 8.16413C71.8799 8.13442 71.8432 8.08349 71.7698 8.01134ZM71.9122 10.437H71.7698V10.5771H71.9122V10.437ZM72.2748 12.7608H72.1647L72.2748 12.8499V12.7608ZM72.6309 9.34832H72.4755V9.49475H72.6309V9.34832ZM72.7475 11.9714C72.7302 11.9459 72.7086 11.9056 72.6827 11.8504L72.5662 11.9714C72.6136 12.0011 72.6482 12.0244 72.6698 12.0414C72.6913 12.0584 72.7086 12.0669 72.7216 12.0669H72.7733V12.0223C72.7733 12.018 72.7647 12.0011 72.7475 11.9714ZM72.8769 13.6458H72.5662C72.6093 13.7391 72.7302 13.7858 72.9287 13.7858C72.9633 13.7858 72.9935 13.7816 73.0194 13.7731C73.0496 13.7689 73.0712 13.7625 73.0841 13.754C73.041 13.6818 72.9719 13.6458 72.8769 13.6458ZM73.0194 15.1801H72.8769V15.3265H73.0194V15.1801Z" fill="#E9B864"/>
<path fill-rule="evenodd" clip-rule="evenodd" d="M86.6941 6.15876C86.6811 6.31156 86.666 6.51741 86.6487 6.77632C86.6315 7.03523 86.6056 7.3387 86.571 7.68674C86.5279 8.02205 86.4955 8.31703 86.4739 8.5717C86.448 8.82212 86.4416 9.03434 86.4545 9.20836C86.4631 9.42058 86.4739 9.61794 86.4869 9.80045C86.5041 9.98296 86.53 10.1633 86.5646 10.3416C86.4394 10.3968 86.3768 10.4689 86.3768 10.5581C86.3768 10.626 86.3962 10.6854 86.4351 10.7363C86.4782 10.7873 86.5689 10.8361 86.707 10.8828L86.6617 18.65C86.6358 18.6967 86.6185 18.7455 86.6099 18.7964C86.5969 18.8431 86.584 18.8962 86.571 18.9556C86.5581 19.0108 86.5581 19.102 86.571 19.2294C86.584 19.3058 86.5905 19.3673 86.5905 19.414C86.5905 19.4607 86.5948 19.4989 86.6034 19.5286C86.6034 19.9064 86.4308 20.1334 86.0855 20.2098C86.0509 20.2226 85.956 20.2353 85.8006 20.248C85.6452 20.2565 85.4337 20.2565 85.1661 20.248C85.0064 20.248 84.8812 20.2586 84.7905 20.2799C84.7431 20.2544 84.6632 20.2332 84.551 20.2162C84.4431 20.1992 84.3028 20.1907 84.1301 20.1907C83.9229 20.1907 83.7589 20.0825 83.6381 19.866C83.6726 19.6963 83.7028 19.5137 83.7287 19.3185C83.7546 19.1233 83.7675 18.928 83.7675 18.7328C83.7589 18.6182 83.7503 18.4654 83.7416 18.2744C83.7287 18.0834 83.705 17.869 83.6704 17.6314C83.6575 17.3894 83.6467 17.1751 83.6381 16.9883C83.6251 16.8058 83.623 16.6509 83.6316 16.5236C83.6186 16.3113 83.6229 16.1119 83.6445 15.9251C83.6704 15.7384 83.7071 15.5516 83.7546 15.3648H83.8064C83.8193 15.3648 83.8345 15.3733 83.8517 15.3903C83.869 15.4073 83.9014 15.4328 83.9488 15.4667L84.169 15.2502C84.1474 15.0338 83.9683 14.9319 83.6316 14.9447L84.046 14.5372H83.9942C83.787 14.5584 83.6726 14.4183 83.651 14.117C83.6294 13.8284 83.5086 13.6926 83.2884 13.7095H83.2237C83.1719 13.752 83.1093 13.8178 83.0359 13.9069C82.9625 13.996 82.887 14.0894 82.8093 14.187C82.7359 14.2846 82.6604 14.378 82.5827 14.4672C82.5093 14.5563 82.4446 14.62 82.3885 14.6582C82.423 14.6879 82.4532 14.7112 82.4791 14.7282C82.5093 14.7452 82.5309 14.7537 82.5439 14.7537H82.6021L82.6992 14.6582C82.6733 14.7558 82.6496 14.8513 82.628 14.9447C82.6064 15.038 82.5784 15.1335 82.5439 15.2312C82.5093 15.3585 82.4726 15.4646 82.4338 15.5495C82.3949 15.6344 82.341 15.7086 82.2719 15.7723C82.3065 15.8572 82.3302 15.9506 82.3431 16.0524C82.3431 16.1161 82.3345 16.1989 82.3172 16.3007C82.2957 16.4026 82.2741 16.5066 82.2525 16.6127C82.2309 16.7146 82.2115 16.8143 82.1942 16.9119C82.177 17.0053 82.1683 17.0817 82.1683 17.1411C82.1683 17.1921 82.1748 17.26 82.1877 17.3449C82.1964 17.4297 82.2007 17.4977 82.2007 17.5486C82.1878 17.8966 82.0734 18.1937 81.8575 18.4399C81.8834 18.4845 81.8964 18.5354 81.9029 18.5927C81.9072 18.6521 81.9137 18.72 81.9223 18.7964C81.9137 18.9705 81.8878 19.1402 81.8446 19.3058C81.8014 19.4671 81.7237 19.6262 81.6115 19.7833C81.3914 20.1271 81.1043 20.299 80.7504 20.299C80.6943 20.299 80.6425 20.282 80.595 20.248C80.5475 20.2141 80.5 20.1759 80.4526 20.1334C80.4051 20.091 80.3598 20.0507 80.3166 20.0125C80.2734 19.9827 80.2346 19.9679 80.2001 19.9679C80.1871 19.9679 80.172 19.9679 80.1547 19.9679C80.1375 19.9721 80.1288 19.9806 80.1288 19.9934C80.0252 19.6071 79.9303 19.2251 79.844 18.8474C79.7576 18.4654 79.6842 18.0749 79.6238 17.6759C79.5418 17.2048 79.4727 16.7825 79.4166 16.409C79.3605 16.0312 79.3087 15.6832 79.2612 15.3648H79.2936C79.285 15.3648 79.3778 15.2969 79.572 15.1611C79.4727 15.0975 79.3994 15.0465 79.3519 15.0083C79.3044 14.9659 79.285 14.9447 79.2936 14.9447H79.2612L79.1382 15.0784C79.1425 14.7728 79.0735 14.4884 78.931 14.2252C78.7929 13.9663 78.5922 13.735 78.3289 13.5313C78.3505 13.5143 78.1778 13.5058 77.8109 13.5058C77.5951 13.5058 77.4872 13.5907 77.4872 13.7605C77.4872 13.7562 77.5045 13.7732 77.539 13.8114C77.5735 13.8538 77.6253 13.926 77.6944 14.0279H78.2123C78.1735 14.2231 78.1433 14.3929 78.1217 14.5372C78.1001 14.6815 78.0958 14.7876 78.1088 14.8555H78.057C78.0311 14.8555 77.9793 14.8216 77.9016 14.7537C77.7634 14.9447 77.6944 15.0295 77.6944 15.0083V15.0656L77.9016 15.2502L77.9793 15.1802L77.9987 17.4213C78.0375 17.4934 78.0656 17.5804 78.0829 17.6823C78.1001 17.7842 78.1088 17.9009 78.1088 18.0325V18.338H78.057C78.0915 18.338 78.0052 18.4017 77.798 18.529C78.0224 18.6054 78.1347 18.7858 78.1347 19.0702C78.1303 19.0829 78.126 19.1233 78.1217 19.1912C78.1131 19.2591 78.1023 19.3546 78.0893 19.4777C78.0807 19.6347 78.0872 19.7663 78.1088 19.8724L77.798 20.1907C77.6771 20.1695 77.5541 20.1589 77.4289 20.1589C77.3512 20.1589 77.2498 20.1674 77.1246 20.1844C77.0038 20.2013 76.8764 20.2162 76.7426 20.2289C76.6045 20.2417 76.475 20.2544 76.3541 20.2671C76.229 20.2756 76.1254 20.2777 76.0434 20.2735C75.7369 20.2777 75.506 20.2353 75.3506 20.1462C75.1909 20.0528 75.1132 19.917 75.1175 19.7387C75.1175 19.6708 75.1304 19.588 75.1563 19.4904C75.1822 19.3928 75.1952 19.3164 75.1952 19.2612C75.1952 19.1466 75.1607 19.0447 75.0916 18.9556C75.1607 18.9301 75.1952 18.8898 75.1952 18.8346C75.1952 18.8007 75.1758 18.754 75.1369 18.6946C75.0981 18.6309 75.0614 18.5821 75.0269 18.5481L75.1952 15.3648L75.2535 15.1993C75.2535 14.325 75.2448 13.6077 75.2276 13.0474C75.2103 12.4872 75.1952 12.0733 75.1822 11.8059C75.1909 11.6192 75.2038 11.4579 75.2211 11.3221C75.234 11.1905 75.2772 11.0886 75.3506 11.0165L75.0916 5.92956C75.165 5.7131 75.2945 5.55181 75.4801 5.4457C75.67 5.33535 75.8923 5.28441 76.147 5.2929C76.2203 5.2929 76.298 5.2929 76.38 5.2929C76.4707 5.2929 76.5808 5.29927 76.7038 5.312H77.28C77.3577 5.31625 77.4548 5.32261 77.5714 5.3311C77.6879 5.33959 77.8304 5.35657 77.9987 5.38203C78.3008 5.42448 78.5555 5.43509 78.7627 5.41387C78.8879 5.51573 78.9958 5.65155 79.0864 5.82133C79.1727 5.99111 79.2418 6.20545 79.2936 6.46435C79.3454 6.66809 79.3907 6.87182 79.4296 7.07555C79.4684 7.28352 79.5159 7.48301 79.572 7.67401H79.5267C79.544 7.67401 79.4555 7.60185 79.2612 7.45754L79.1641 7.57214C79.367 7.6825 79.5289 7.83742 79.6497 8.0369C79.7706 8.23639 79.8375 8.48469 79.8504 8.78179C79.885 9.15106 79.9281 9.45665 79.9799 9.69858C80.0317 9.94051 80.1051 10.1209 80.2001 10.2397C80.1871 10.2313 80.1806 10.3947 80.1806 10.73C80.1806 10.8913 80.2562 10.9952 80.4072 11.0419H80.459C80.4331 11.0589 80.39 11.0674 80.3295 11.0674C80.1957 11.0674 80.118 11.0292 80.0965 10.9528C80.0231 10.974 79.9864 11.0207 79.9864 11.0929C79.9864 11.182 80.0231 11.2372 80.0965 11.2584C80.1267 11.3348 80.1742 11.3942 80.2389 11.4367C80.3036 11.4791 80.377 11.5152 80.459 11.5449C80.718 11.6001 80.8713 11.6404 80.9187 11.6659L81.2489 11.3666L81.0417 11.1756C81.0461 11.1162 81.0763 11.0632 81.1324 11.0165C81.1885 10.974 81.2533 10.9337 81.3266 10.8955C81.4 10.8573 81.4691 10.8191 81.5338 10.7809C81.5986 10.7385 81.6417 10.6896 81.6633 10.6345C81.5122 10.5199 81.4367 10.3989 81.4367 10.2716C81.4367 10.2291 81.4496 10.1718 81.4755 10.0997C81.5058 10.0318 81.5381 9.95537 81.5727 9.87048C81.6029 9.78984 81.6331 9.71131 81.6633 9.63492C81.6892 9.55427 81.7022 9.48849 81.7022 9.43755C81.7022 9.39511 81.7 9.35479 81.6957 9.31659C81.687 9.27839 81.6763 9.24231 81.6633 9.20836H81.7669C81.8489 9.22533 81.9396 9.20623 82.0388 9.15106C82.1338 9.09588 82.1813 9.02797 82.1813 8.94732C82.1813 8.9261 82.1424 8.87729 82.0647 8.80089H81.8575C81.9568 8.54623 81.9957 8.37433 81.9741 8.2852C81.987 8.29793 82.0108 8.3043 82.0453 8.3043C82.1057 8.3043 82.2223 8.23002 82.3949 8.08147C82.2525 7.89047 82.1813 7.65915 82.1813 7.38751C82.1813 7.13709 82.2439 6.83786 82.369 6.48982C82.4165 6.34976 82.4705 6.20545 82.5309 6.05689C82.587 5.91258 82.6431 5.76615 82.6992 5.6176C82.9496 5.41387 83.3186 5.312 83.8064 5.312C83.828 5.312 83.8949 5.31412 84.0071 5.31837C84.1236 5.32261 84.292 5.3311 84.5121 5.34384C84.6503 5.35657 84.7776 5.35657 84.8941 5.34384C85.0107 5.33535 85.1078 5.32474 85.1855 5.312C85.3495 5.34596 85.5114 5.37355 85.6711 5.39477C85.8308 5.41599 85.9927 5.43933 86.1567 5.4648C86.502 5.58789 86.679 5.81496 86.6876 6.14602L86.6941 6.15876ZM75.752 10.488H75.6096V10.6408H75.752V10.488ZM75.8232 12.1752H75.6096L75.8232 12.2898V12.1752ZM76.011 9.72405L75.9204 9.62855L76.011 9.82591V9.72405ZM76.0628 13.9769H75.9204V14.1234H76.0628V13.9769ZM76.5419 8.38707L76.4254 8.5908C76.6541 8.71813 76.7577 8.78179 76.7361 8.78179C76.7923 8.78179 76.8289 8.75421 76.8462 8.69903L76.5419 8.38707ZM76.5419 15.2502L76.5225 15.2948C76.5225 15.3542 76.5721 15.384 76.6714 15.384C76.775 15.384 76.8354 15.3394 76.8527 15.2502H76.5419ZM76.762 9.41845H76.7232C76.7059 9.41845 76.6455 9.44816 76.5419 9.50758L76.6455 9.62855C76.7232 9.52244 76.762 9.4609 76.762 9.44392V9.41845ZM77.5778 10.4626C77.4052 10.488 77.2325 10.5178 77.0599 10.5517C76.9908 10.5517 76.9325 10.5432 76.8851 10.5262C76.8376 10.5093 76.7966 10.488 76.762 10.4626L76.6455 10.5517C76.7016 10.6875 76.8225 10.7554 77.0081 10.7554H77.3642C77.3685 10.7469 77.3858 10.7342 77.416 10.7172C77.4419 10.696 77.4699 10.6706 77.5001 10.6408C77.526 10.6154 77.5498 10.5899 77.5714 10.5644C77.593 10.5347 77.6037 10.5093 77.6037 10.488L77.5778 10.4626ZM76.7879 16.5554H76.6455V16.7082H76.7879V16.5554ZM76.8462 7.77587L76.7556 7.89047C76.803 7.92443 76.8354 7.95202 76.8527 7.97324C76.87 7.99021 76.8851 7.9987 76.898 7.9987L76.9563 7.9796V7.9605C76.9563 7.92655 76.9196 7.865 76.8462 7.77587ZM76.9563 13.7223L76.8462 13.9387L76.9563 13.8369V13.7223ZM77.9339 11.7677C77.7786 11.7677 77.6275 11.876 77.4807 12.0924C77.5325 12.0797 77.5735 12.0733 77.6037 12.0733C77.6469 12.0733 77.675 12.0797 77.6879 12.0924H77.9793C78.0829 12.0924 78.1584 12.0606 78.2059 11.9969C78.1454 11.8441 78.0548 11.7677 77.9339 11.7677ZM77.3577 11.9969C77.3318 11.9842 77.3102 11.9778 77.293 11.9778H77.2865C77.239 11.9778 77.1289 12.0457 76.9563 12.1816C76.9865 12.1943 77.0167 12.2049 77.0469 12.2134C77.1246 12.2134 77.2217 12.19 77.3383 12.1434C77.3901 12.1221 77.4376 12.1052 77.4807 12.0924L77.3577 11.9969ZM77.3901 12.589C77.2304 12.589 77.1203 12.659 77.0599 12.7991C77.1462 12.9646 77.2865 13.0389 77.4807 13.0219L77.5778 13.0028C77.6512 12.9095 77.6879 12.8585 77.6879 12.85C77.6879 12.676 77.5886 12.589 77.3901 12.589ZM77.2153 16.1416H77.0599V16.2944H77.2153V16.1416ZM77.2153 16.9629H77.0599V17.1157H77.2153V16.9629ZM77.4225 15.1611C77.3448 15.1611 77.293 15.193 77.2671 15.2566L77.3577 15.3648H77.4095C77.444 15.3648 77.5001 15.3288 77.5778 15.2566C77.5476 15.193 77.4958 15.1611 77.4225 15.1611ZM77.3577 8.80726L77.4807 8.90913L77.5778 8.80726H77.3577ZM77.6879 9.31022L77.4807 9.51395L77.5714 9.63492H77.6037C77.6253 9.63492 77.6879 9.5946 77.7915 9.51395L77.798 9.48848C77.798 9.46302 77.7613 9.4036 77.6879 9.31022ZM79.0411 11.4685C79.0066 11.4727 78.9699 11.4791 78.931 11.4876C78.8879 11.4918 78.849 11.494 78.8145 11.494C78.6505 11.494 78.4605 11.4409 78.2447 11.3348C78.0332 11.2075 77.8929 11.1523 77.8239 11.1693H77.7915C77.8519 11.2542 77.9901 11.339 78.2059 11.4239C78.4001 11.5343 78.508 11.6531 78.5296 11.7805H78.7238C78.8188 11.7805 78.9051 11.7635 78.9828 11.7295C79.0562 11.6956 79.108 11.6446 79.1382 11.5767L79.0411 11.4685ZM77.9857 13.1174L77.7915 13.3212L77.8951 13.4167L78.1023 13.2129L77.9857 13.1174ZM78.3159 7.46391C78.1347 7.46391 78.0246 7.43208 77.9857 7.36841L77.8951 7.46391C77.9124 7.53606 77.9706 7.57214 78.0699 7.57214H78.3159V7.46391ZM77.9857 7.9796L77.8951 8.08783L77.9857 8.18333L78.0958 8.08783L77.9857 7.9796ZM77.9857 8.50803H77.8951L77.9857 8.60353V8.50803ZM78.6267 9.68585C78.5922 9.68585 78.4498 9.73466 78.1994 9.83228L78.5231 10.1315L78.562 10.157C78.5792 10.157 78.6354 10.1188 78.7303 10.0424C78.7433 9.99569 78.7497 9.95749 78.7497 9.92778C78.7497 9.89383 78.7497 9.86199 78.7497 9.83228C78.7497 9.73466 78.7087 9.68585 78.6267 9.68585ZM78.7303 12.589C78.5792 12.6654 78.5037 12.7503 78.5037 12.8437C78.5037 13.0219 78.6418 13.1111 78.9181 13.1111C78.9742 13.1111 79.0195 13.1005 79.054 13.0792C79.0886 13.058 79.1145 13.0347 79.1317 13.0092L78.7303 12.589ZM79.0411 10.9592C79.0411 10.8828 78.9958 10.8446 78.9051 10.8446C78.7843 10.8446 78.7238 10.9061 78.7238 11.0292L78.7303 11.0483H79.0411V10.9592ZM78.9181 9.42482V9.51395L79.0411 9.42482H78.9181ZM78.9893 10.1315H78.9181L79.0476 10.348L79.1382 10.2461L78.9893 10.1315ZM80.3036 11.9969C80.1871 11.7805 80.0533 11.6722 79.9022 11.6722C79.7684 11.6722 79.6152 11.7401 79.4425 11.876C79.3691 11.9269 79.3001 11.9778 79.2353 12.0288C79.1749 12.0797 79.1102 12.1306 79.0411 12.1816L79.1317 12.2898H79.2289C79.3454 12.2898 79.4231 12.2537 79.4619 12.1816C79.4922 12.1816 79.5332 12.1709 79.585 12.1497C79.6368 12.1285 79.6907 12.1052 79.7468 12.0797C79.7986 12.05 79.8526 12.0245 79.9087 12.0033C79.9648 11.9863 80.0101 11.9778 80.0447 11.9778C80.1267 11.9778 80.213 12.0139 80.3036 12.0861V11.9969ZM79.3195 13.4167C79.1943 13.4167 79.1317 13.474 79.1317 13.5886V13.6268C79.231 13.7032 79.2871 13.7414 79.3001 13.7414L79.3389 13.7223C79.4209 13.6544 79.4619 13.6055 79.4619 13.5758C79.4619 13.4697 79.4145 13.4167 79.3195 13.4167ZM79.5396 10.5517C79.4058 10.5517 79.3389 10.6069 79.3389 10.7172V10.7554C79.4512 10.8318 79.5094 10.87 79.5137 10.87L79.5591 10.8509C79.6281 10.783 79.6627 10.7321 79.6627 10.6981C79.6627 10.6005 79.6217 10.5517 79.5396 10.5517ZM79.5137 11.1056H79.3389V11.2648H79.5137V11.1056ZM79.8569 12.901C79.6842 12.901 79.5116 12.9753 79.3389 13.1238L79.5591 13.3275C79.5936 13.3403 79.6173 13.3466 79.6303 13.3466H79.6627C79.7015 13.3466 79.7468 13.336 79.7986 13.3148C79.8504 13.2978 79.9022 13.2745 79.954 13.2448C80.0058 13.2193 80.0533 13.1938 80.0965 13.1684C80.1353 13.1472 80.1655 13.1323 80.1871 13.1238C80.118 12.9753 80.008 12.901 79.8569 12.901ZM79.6627 10.0487L79.4619 10.2525L79.5591 10.3543H79.5914C79.6044 10.3543 79.6217 10.3437 79.6432 10.3225C79.6691 10.3013 79.7101 10.2779 79.7663 10.2525L79.7857 10.2143C79.7857 10.1973 79.7447 10.1421 79.6627 10.0487ZM79.4619 14.2316C79.5396 14.4099 79.6281 14.5372 79.7274 14.6136C79.8267 14.6942 79.9454 14.7367 80.0835 14.7409C80.2087 14.7409 80.3123 14.6815 80.3943 14.5627L79.4619 14.2316ZM79.6627 15.4731L79.5591 15.5813L79.6627 15.6768L79.7663 15.5813L79.6627 15.4731ZM79.8763 14.9638C79.8159 14.8958 79.7792 14.8619 79.7663 14.8619L79.6627 15.0784C79.6799 15.1378 79.7447 15.1675 79.8569 15.1675H79.9734V15.142C79.9734 15.0911 79.9411 15.0317 79.8763 14.9638ZM81.0288 15.7787C81.0245 15.7829 81.0223 15.785 81.0223 15.785C81.0223 15.785 81.0245 15.7872 81.0288 15.7914V15.7787ZM80.6856 15.3712C80.5691 15.2694 80.4418 15.2014 80.3036 15.1675L80.6986 15.4731L80.6015 15.5813C80.7698 15.7256 80.8777 15.7978 80.9252 15.7978C80.9641 15.7978 80.9964 15.7914 81.0223 15.7787C80.9144 15.6089 80.8022 15.4731 80.6856 15.3712ZM80.6986 12.0924L80.4914 12.2962L80.6015 12.3853H80.6986C80.7936 12.4065 80.8626 12.3768 80.9058 12.2962L80.6986 12.0924ZM81.4496 14.6454C81.4237 14.6454 81.3957 14.6454 81.3655 14.6454C81.2576 14.6454 81.1302 14.6709 80.9835 14.7218C80.7763 14.8067 80.649 14.8534 80.6015 14.8619L80.6986 14.951H80.8734C81.1842 14.9765 81.4043 14.881 81.5338 14.6645C81.5079 14.6518 81.4799 14.6454 81.4496 14.6454ZM80.7569 16.3517H80.6015V16.4981H80.7569V16.3517ZM80.9835 12.5954C80.923 12.5954 80.8281 12.6675 80.6986 12.8118C80.7374 12.884 80.7979 12.9201 80.8799 12.9201H81.0288C81.1022 12.8267 81.1389 12.7736 81.1389 12.7609C81.1389 12.6506 81.0871 12.5954 80.9835 12.5954ZM81.3979 13.3275C81.3806 13.3063 81.3439 13.2957 81.2878 13.2957C81.2532 13.2957 81.2079 13.3106 81.1518 13.3403C81.0957 13.3657 81.0374 13.3955 80.977 13.4294C80.9123 13.4591 80.854 13.4846 80.8022 13.5058C80.7504 13.5313 80.7159 13.544 80.6986 13.544L80.9058 13.7286C80.9231 13.6947 80.9576 13.6628 81.0094 13.6331C81.0569 13.6077 81.1087 13.5822 81.1648 13.5567C81.2252 13.5355 81.2813 13.5143 81.3331 13.4931C81.3849 13.4719 81.4216 13.4485 81.4432 13.423C81.4259 13.3721 81.4108 13.3403 81.3979 13.3275ZM81.2878 16.5045C81.2403 16.5045 81.1777 16.5384 81.1 16.6063C81.0223 16.67 80.9576 16.704 80.9058 16.7082L81.0288 16.8037C81.0547 16.8164 81.072 16.8228 81.0806 16.8228H81.1C81.1561 16.8228 81.2705 16.7485 81.4432 16.6C81.3871 16.5363 81.3353 16.5045 81.2878 16.5045ZM81.3266 11.9842C81.223 11.9842 81.154 12.0224 81.1194 12.0988C81.1324 12.0988 81.1712 12.1327 81.236 12.2007C81.2964 12.2686 81.3547 12.3025 81.4108 12.3025H81.4432C81.5036 12.2134 81.5338 12.1561 81.5338 12.1306C81.5338 12.033 81.4648 11.9842 81.3266 11.9842ZM81.7216 15.263H81.4432C81.3655 15.3054 81.3266 15.3627 81.3266 15.4349C81.3266 15.5367 81.4022 15.5877 81.5532 15.5877C81.7216 15.5877 81.8575 15.5176 81.9611 15.3776C81.918 15.3012 81.8381 15.263 81.7216 15.263ZM81.5014 17.2175C81.4065 17.2175 81.3482 17.2557 81.3266 17.3321L81.4432 17.434C81.5468 17.4128 81.6266 17.3831 81.6827 17.3449C81.7432 17.3109 81.7669 17.2685 81.754 17.2175H81.5014ZM82.1618 11.2711C82.1144 11.407 82.0216 11.4749 81.8834 11.4749C81.6072 11.4749 81.4583 11.5428 81.4367 11.6786L81.6439 11.8823H81.6957C81.7734 11.8951 81.836 11.8844 81.8834 11.8505C81.9309 11.8165 81.9784 11.7656 82.0259 11.6977C82.1597 11.494 82.2374 11.39 82.259 11.3857L82.1618 11.2711ZM82.5827 10.0296C82.5007 10.0296 82.3604 10.0296 82.1618 10.0296C81.9244 10.0296 81.7496 10.0657 81.6374 10.1379L81.9547 10.3543C81.9935 10.2907 82.1316 10.2504 82.369 10.2334C82.5546 10.2122 82.6561 10.1506 82.6733 10.0487C82.7036 10.036 82.6733 10.0296 82.5827 10.0296ZM82.7705 13.2575C82.7014 13.2575 82.6108 13.2681 82.4985 13.2893C82.382 13.3148 82.3 13.3275 82.2525 13.3275C82.123 13.3275 82.0237 13.2893 81.9547 13.2129L82.1618 13.6331L81.754 13.8369C81.9547 13.8878 82.1101 13.926 82.2331 13.9387C82.3496 13.9515 82.4316 13.9621 82.4791 13.9706C82.7985 13.9536 83.0014 13.8411 83.0877 13.6331C83.0359 13.3785 82.9259 13.2575 82.7705 13.2575ZM82.0453 16.5936L81.9547 16.7082L82.0453 16.7973L82.1618 16.7082L82.0453 16.5936ZM82.0453 12.8055L82.1554 12.9201C82.2029 12.8691 82.2525 12.7991 82.3043 12.71C82.3518 12.6166 82.4036 12.5084 82.4597 12.3853C82.2309 12.4489 82.0928 12.589 82.0453 12.8055ZM82.3626 15.0784L82.0453 14.951L82.3626 15.1675V15.0784ZM82.3108 9.36752H82.1554V9.52032H82.3108V9.36752ZM82.4338 10.6472C82.3129 10.6472 82.2525 10.7045 82.2525 10.8191C82.2525 10.8743 82.2892 10.9231 82.3626 10.9655H82.6021C82.6841 10.9655 82.7467 10.9273 82.7899 10.8509C82.6172 10.7151 82.4985 10.6472 82.4338 10.6472ZM82.5827 9.10012C82.4791 9.10012 82.4057 9.14044 82.3626 9.22109L82.6733 9.42482C82.751 9.33144 82.7899 9.28051 82.7899 9.27202C82.7899 9.15742 82.7208 9.10012 82.5827 9.10012ZM82.7057 11.7677C82.6237 11.7083 82.5611 11.6786 82.518 11.6786C82.4575 11.6786 82.4057 11.7147 82.3626 11.7868L82.5827 12.0033H82.6539C82.7661 12.0033 82.8417 11.963 82.8805 11.8823C82.846 11.8696 82.7877 11.8314 82.7057 11.7677ZM83.7416 12.4808C83.7287 12.4808 83.7071 12.4808 83.6769 12.4808C83.6294 12.4808 83.5496 12.4914 83.4373 12.5126C83.3294 12.5338 83.2517 12.5444 83.2043 12.5444C83.1223 12.5444 83.0446 12.5254 82.9712 12.4872C82.8978 12.449 82.8374 12.3853 82.7899 12.2962L82.7575 12.3917C82.7575 12.4468 82.7834 12.4956 82.8352 12.5381C82.887 12.5805 82.9431 12.6251 83.0035 12.6718C83.0683 12.7142 83.1266 12.7567 83.1784 12.7991C83.2345 12.8373 83.2733 12.8776 83.2949 12.9201C83.3294 12.9328 83.3532 12.9392 83.3661 12.9392C83.3877 12.9392 83.405 12.9392 83.4179 12.9392C83.4525 12.9392 83.4848 12.918 83.515 12.8755C83.5496 12.8373 83.5819 12.7927 83.6122 12.7418C83.6424 12.6909 83.6747 12.6421 83.7093 12.5954C83.7438 12.5487 83.7827 12.5169 83.8258 12.4999C83.7913 12.4871 83.7632 12.4808 83.7416 12.4808ZM83.1719 10.8509C83.0467 10.8509 82.9841 10.9125 82.9841 11.0356L82.9971 11.0547C83.0834 11.1353 83.1352 11.1756 83.1525 11.1756H83.2043C83.2647 11.0738 83.2949 11.0165 83.2949 11.0037C83.2949 10.9019 83.2539 10.8509 83.1719 10.8509ZM83.2043 12.0033L83.0877 12.0924L83.2043 12.1879L83.2949 12.0924L83.2043 12.0033ZM83.2949 7.47664C83.3294 7.5106 83.3575 7.53606 83.3791 7.55304C83.4007 7.57426 83.4287 7.58487 83.4632 7.58487C83.4891 7.58487 83.5215 7.5679 83.5604 7.53394C83.5992 7.49999 83.6359 7.46603 83.6704 7.43208C83.705 7.39388 83.7352 7.3578 83.7611 7.32384C83.7783 7.30262 83.7934 7.28777 83.8064 7.27928L83.2949 7.47664ZM83.8064 7.27928L83.8258 7.27291C83.8215 7.27291 83.815 7.27503 83.8064 7.27928ZM83.515 9.73678L83.3985 9.83865L83.515 9.92778L83.6057 9.83865L83.515 9.73678ZM83.91 10.8191C83.8668 10.7894 83.8258 10.7554 83.787 10.7172C83.7438 10.6833 83.7028 10.6493 83.664 10.6154C83.6208 10.5814 83.5884 10.5623 83.5668 10.5581C83.5194 10.5623 83.4654 10.5941 83.405 10.6536C83.4438 10.6536 83.487 10.6706 83.5345 10.7045C83.5776 10.7385 83.6208 10.7745 83.664 10.8127C83.7114 10.8509 83.7546 10.887 83.7934 10.921C83.8323 10.9549 83.8603 10.9698 83.8776 10.9655C83.9208 10.9698 83.9704 10.9337 84.0265 10.8573C83.992 10.8658 83.9532 10.8531 83.91 10.8191ZM83.9035 11.2775C83.8474 11.2775 83.7503 11.3454 83.6122 11.4812C83.6467 11.5534 83.7114 11.5895 83.8064 11.5895H83.9294C84.0071 11.4961 84.046 11.4388 84.046 11.4176C84.046 11.3242 83.9985 11.2775 83.9035 11.2775ZM83.8776 13.1174C83.7481 13.1174 83.6596 13.1514 83.6122 13.2193L83.7352 13.3339H83.9488C84.0395 13.3339 84.1064 13.2957 84.1496 13.2193C84.0891 13.1514 83.9985 13.1174 83.8776 13.1174ZM84.2855 11.8123C84.2639 11.8123 84.2294 11.8271 84.1819 11.8569C84.1344 11.8908 84.0826 11.9269 84.0265 11.9651C83.9791 11.999 83.9273 12.0309 83.8711 12.0606C83.815 12.0945 83.7697 12.1073 83.7352 12.0988L83.8258 12.1879C83.8474 12.1709 83.8884 12.154 83.9488 12.137C84.0136 12.1243 84.0783 12.1094 84.1431 12.0924C84.2078 12.0754 84.2704 12.0521 84.3308 12.0224C84.3869 11.9927 84.4258 11.946 84.4474 11.8823C84.3999 11.8356 84.3459 11.8123 84.2855 11.8123ZM83.9294 8.3998C83.8604 8.44224 83.8258 8.49105 83.8258 8.54623C83.8258 8.61838 83.8604 8.67568 83.9294 8.71813L84.0265 8.60353L84.046 8.58443C84.046 8.54623 84.0071 8.48469 83.9294 8.3998ZM84.538 16.7719C84.4862 16.7549 84.4301 16.7315 84.3697 16.7018C84.3136 16.6764 84.2596 16.653 84.2078 16.6318C84.156 16.6106 84.1085 16.6 84.0654 16.6C83.9834 16.6 83.9035 16.6382 83.8258 16.7146C83.9467 16.7613 84.0567 16.7973 84.156 16.8228C84.2596 16.8525 84.3503 16.8674 84.428 16.8674C84.5229 16.8674 84.6028 16.8461 84.6675 16.8037C84.633 16.8037 84.5898 16.7931 84.538 16.7719ZM84.0265 15.785L83.9294 15.8869L84.0265 16.0015L84.1496 15.8869L84.0265 15.785ZM84.5704 9.83865L84.3567 10.0551L84.4474 10.1442C84.5337 10.123 84.5747 10.0678 84.5704 9.97871V9.83865ZM84.4992 17.4913H84.3567V17.6314H84.4992V17.4913ZM84.4474 7.48301C84.551 7.46179 84.6891 7.39388 84.8618 7.27928C84.7668 7.3005 84.6287 7.36841 84.4474 7.48301ZM84.5704 13.6395V13.735L84.6675 13.6395H84.5704ZM84.6675 14.5563L84.5704 14.6773L84.6675 14.7728L84.7646 14.6773L84.6675 14.5563ZM84.8164 13.996H84.6675V14.1425H84.8164V13.996ZM85.179 9.73678C85.0452 9.59672 84.9481 9.52669 84.8877 9.52669C84.8315 9.52669 84.7927 9.56701 84.7711 9.64765C84.9394 9.79196 85.0517 9.86412 85.1078 9.86412C85.1423 9.86412 85.1661 9.85562 85.179 9.83865V9.73678ZM84.9394 12.9073C84.8488 12.9073 84.7927 12.9434 84.7711 13.0156L84.8682 13.1302H84.9071C84.9416 13.1302 84.9999 13.092 85.0819 13.0156C85.0474 12.9434 84.9999 12.9073 84.9394 12.9073ZM84.9718 11.061C84.9028 11.112 84.8682 11.1714 84.8682 11.2393C84.8682 11.3412 84.9222 11.39 85.0301 11.3857C85.0474 11.3857 85.0625 11.3772 85.0754 11.3603C85.097 11.339 85.1315 11.3115 85.179 11.2775L84.9718 11.061ZM85.3927 15.785L85.2891 15.8869L85.3927 16.0015L85.5092 15.8869L85.3927 15.785ZM85.5545 10.1952H85.3927V10.3607H85.5545V10.1952ZM85.5545 14.9065H85.3927V15.0784H85.5545V14.9065ZM86.0855 7.17105C86.0466 7.1668 85.9409 7.23259 85.7682 7.36841C85.7941 7.36417 85.82 7.36204 85.8459 7.36204C86.1178 7.36204 86.284 7.33233 86.3444 7.27291C86.2711 7.19651 86.1847 7.16256 86.0855 7.17105ZM85.7682 7.36841C85.6387 7.38963 85.5524 7.46179 85.5092 7.58487C85.6085 7.49999 85.6948 7.42783 85.7682 7.36841ZM86.3768 14.1043H86.2344V14.2443H86.3768V14.1043Z" fill="#E9B864"/>
</svg>
