<svg width="27" height="32" viewBox="0 0 27 32" fill="none" xmlns="http://www.w3.org/2000/svg">
<path d="M17.6078 10.8384C17.4215 10.0894 17.6407 9.33513 16.2983 8.79634C16.8133 9.29203 17.2955 10.1487 16.6654 10.6498C12.5285 7.10991 8.12861 2.22306 1 1C7.49848 3.14978 12.1778 7.08297 15.9092 11.9483C12.4518 10.3157 8.90119 8.52694 4.15061 8.92026C3.66843 8.96336 3.42186 8.97414 3.42186 8.97414C3.42186 8.97414 9.07653 8.72629 15.9092 13.0636C11.6682 13.9634 7.29575 14.7392 5.34511 17.8858C7.82176 15.7629 10.0738 14.3351 16.101 14.5453C14.1942 16.3287 11.1751 17.0022 11.1915 20.6713C11.4765 18.4569 13.7997 16.0593 17.0435 15.6606C18.2928 16.5927 19.7174 17.6433 21.2845 18.2683C19.3393 17.1692 15.8161 13.931 17.6078 10.8384Z" fill="#E9B864" stroke="#E9B864" stroke-width="0.5" stroke-linejoin="round"/>
<path d="M24.8845 19.0388C24.9119 18.0151 24.1009 18.4623 23.8105 17.8804C23.4051 17.0722 24.4187 17.3255 24.6763 17.8589C24.6489 16.6089 23.1804 17.1908 22.6544 16.2748C22.4352 15.8923 22.8462 15.9084 23.3119 16.1455C22.9667 15.8115 22.753 15.7199 22.501 15.6714C20.764 15.3535 19.3778 14.3028 18.8463 12.541C18.9504 15.0625 19.6627 15.7091 21.9585 17.2662C20.1175 16.027 17.6956 14.9494 18.4682 11.6143C16.1395 16.2209 23.4982 18.3384 22.0846 18.9957C20.5723 19.7069 17.5422 16.6412 16.2052 20.1487C14.2875 25.9946 19.9147 30.014 20.764 31C15.1368 24.6692 16.8244 21.1024 17.86 20.5151C19.6572 19.7393 20.5065 21.9483 22.5777 21.5281C23.2297 21.388 23.5092 21.194 23.7557 20.6983C24.0023 20.2026 24.4571 20.7414 24.0188 21.1347C24.6489 20.8222 24.1831 20.1703 24.1503 19.9386C24.1119 19.68 24.7146 19.2597 24.7311 20.1218C24.9228 19.8901 24.879 19.4645 24.2927 19.2274C23.7612 18.7425 24.7256 18.5701 24.8845 19.0388Z" fill="#E9B864"/>
<path d="M21.9585 17.2662C19.6627 15.7091 18.9504 15.0625 18.8463 12.541C19.3778 14.3028 20.764 15.3535 22.501 15.6714C22.753 15.7199 22.9667 15.8115 23.3119 16.1455C22.8462 15.9084 22.4352 15.8923 22.6544 16.2748C23.1804 17.1908 24.6489 16.6089 24.6763 17.8589C24.4187 17.3255 23.4051 17.0722 23.8105 17.8804C24.1009 18.4623 24.9119 18.0151 24.8845 19.0388C24.7256 18.5701 23.7612 18.7425 24.2927 19.2274C24.879 19.4645 24.9228 19.8901 24.7311 20.1218C24.7146 19.2597 24.1119 19.68 24.1503 19.9386C24.1831 20.1703 24.6489 20.8222 24.0188 21.1347C24.4571 20.7414 24.0023 20.2026 23.7557 20.6983C23.5092 21.194 23.2297 21.388 22.5777 21.5281C20.5065 21.9483 19.6572 19.7393 17.86 20.5151C16.8244 21.1024 15.1368 24.6692 20.764 31C19.9147 30.014 14.2875 25.9946 16.2052 20.1487C17.5422 16.6412 20.5723 19.7069 22.0846 18.9957C23.4982 18.3384 16.1395 16.2209 18.4682 11.6143C17.6956 14.9494 20.1175 16.027 21.9585 17.2662ZM21.9585 17.2662C21.9951 17.2878 22.0298 17.3093 22.0626 17.3309" stroke="#E9B864" stroke-width="0.5" stroke-linejoin="round"/>
<path d="M21.9585 17.2661C21.995 17.2877 22.0297 17.3092 22.0626 17.3308" stroke="#E9B864" stroke-width="0.5" stroke-linejoin="round"/>
<path fill-rule="evenodd" clip-rule="evenodd" d="M26.2323 13.1661C26.1227 13.1877 26.172 13.193 26.0625 13.1877C26.0351 13.1877 26.0405 13.5971 25.6022 13.6995C25.7721 13.4193 25.7392 13.1715 25.7008 13.1607C24.5995 12.9614 23.4707 11.7491 22.1612 12.1855C20.7037 11.9377 20.2051 11.3396 20.342 11.054C20.5119 11.5066 21.3009 11.6575 21.7119 11.4312C20.1064 10.1543 18.2599 10.2135 17.5859 12.4872C17.6243 10.3644 19.279 10.2297 19.9749 9.70167C19.4325 9.71783 18.8352 9.3299 18.0626 9.81481C18.6818 8.99046 19.9147 9.50231 20.4845 9.43766C19.8215 9.36762 18.2435 8.3493 18.4243 7.7674C18.4572 8.31158 19.2462 8.66719 19.7941 8.67257C19.7064 8.54326 18.3476 7.00231 19.1585 5.24585C18.5887 6.96999 20.4078 9.39456 22.7036 10.1543C23.0707 10.3267 23.268 10.3859 23.1529 10.6499C23.542 11.2642 24.9008 12.3256 25.7775 12.3795C25.8268 12.2555 26.1337 12.137 26.2104 12.3418C26.3748 12.8267 26.5611 13.0691 26.2323 13.1661ZM22.8899 10.6553C22.6762 10.5422 22.6379 10.262 22.3036 10.2674C22.3803 10.5099 22.5557 10.6661 22.8899 10.6553Z" fill="#E9B864"/>
<path d="M26.1666 12.9614C26.1666 12.9668 26.1775 12.9506 26.2104 12.9236C26.2214 12.9129 26.2268 12.9021 26.2323 12.9021M26.2323 13.1661C26.1227 13.1877 26.172 13.193 26.0625 13.1877C26.0351 13.1877 26.0405 13.5971 25.6022 13.6995C25.7721 13.4193 25.7392 13.1715 25.7008 13.1607C24.5995 12.9614 23.4707 11.7491 22.1612 12.1855C20.7037 11.9377 20.2051 11.3396 20.342 11.054C20.5119 11.5066 21.3009 11.6575 21.7119 11.4312C20.1064 10.1543 18.2599 10.2135 17.5859 12.4872C17.6243 10.3644 19.279 10.2297 19.9749 9.70167C19.4325 9.71783 18.8352 9.3299 18.0626 9.81481C18.6818 8.99046 19.9147 9.50231 20.4845 9.43766C19.8215 9.36762 18.2435 8.3493 18.4243 7.7674C18.4572 8.31158 19.2462 8.66719 19.7941 8.67257C19.7064 8.54326 18.3476 7.00231 19.1585 5.24585C18.5887 6.96999 20.4078 9.39456 22.7036 10.1543C23.0707 10.3267 23.268 10.3859 23.1529 10.6499C23.542 11.2642 24.9008 12.3256 25.7775 12.3795C25.8268 12.2555 26.1337 12.137 26.2104 12.3418C26.3748 12.8267 26.5611 13.0691 26.2323 13.1661ZM22.8899 10.6553C22.6762 10.5422 22.6379 10.262 22.3036 10.2674C22.3803 10.5099 22.5557 10.6661 22.8899 10.6553Z" stroke="#E9B864" stroke-width="0.5" stroke-linejoin="round"/>
<path d="M20.0295 11.1562C20.1282 11.8082 20.7638 12.1153 20.7638 12.1153C20.7638 12.1153 20.2323 12.1961 20.0405 12.5517C20.9665 12.3416 21.8048 12.3039 21.75 13.1767C21.7829 13.3114 21.7446 13.8825 22.3802 13.7425C23.0706 13.6616 24.0404 14.5022 24.2212 14.8793C24.3966 15.2619 24.5171 16.0808 24.8294 16.2317C24.539 15.9515 24.6103 15.4828 24.7144 15.0787C24.7363 15.0032 24.7966 14.8631 24.9007 14.7015C25.0979 14.6045 25.2239 14.4698 25.2513 14.2328C24.9171 14.5237 24.7198 14.4213 24.5609 14.3621C24.0075 14.1519 23.2076 13.7532 22.9007 13.2629C22.8076 12.7349 22.5719 12.5409 22.1172 12.3578C20.4405 12.1045 20.161 11.4418 20.0295 11.1562Z" fill="#E9B864" stroke="#E9B864" stroke-width="0.5" stroke-linejoin="round"/>
</svg>
