<svg width="48" height="56" viewBox="0 0 48 56" fill="none" xmlns="http://www.w3.org/2000/svg">
<path d="M24.2746 17.2559C24.9702 18.0082 25.706 18.6848 26.3324 19.4783C28.3409 22.0226 24.6022 19.9747 22.7172 19.0602C20.8323 18.1457 18.311 17.2781 16.1314 16.5093C13.9525 15.7396 10.6864 15.7117 8.38817 15.1157C7.93545 15.0556 5.59858 15.0523 6.02825 15.6647C6.45793 16.2772 8.10007 15.8285 8.71742 15.9388C11.014 16.0952 14.0167 17.274 16.119 18.0033C18.2221 18.7317 20.9813 19.8117 22.7864 20.8019C24.5923 21.7913 29.1426 23.6442 25.5093 23.8409C25.1768 23.8952 24.71 24.064 24.3569 24.1702C18.3497 25.5415 11.4873 26.9219 7.56504 32.3192C9.51998 31.6779 10.8806 29.6786 12.9911 28.8554C15.1025 28.0331 17.4945 26.8807 19.8297 26.7219C20.2322 26.6494 20.6676 26.6577 21.0644 26.7219C21.9427 26.7696 22.5501 26.3103 23.5338 26.3103C24.1692 26.3103 28.9516 26.1984 27.2379 27.2157C26.0271 27.9352 24.4985 29.2341 23.3058 29.8687C22.1131 30.5033 20.8306 32.469 19.9877 33.1357C19.1449 33.8016 17.8385 38.0004 19.0131 36.7707C20.1869 35.5401 19.5144 34.2255 21.5517 32.7241C23.5889 31.2227 27.5605 27.48 30.3658 29.0266C30.779 29.2546 31.0992 29.6209 31.4358 29.9321C32.6911 30.8474 34.544 32.4681 35.9845 32.9563C37.425 33.4444 34.7308 31.1404 33.5143 30.0761C32.2977 29.0118 31.4391 27.2437 30.5115 25.5884C29.5838 23.9323 30.3641 21.1756 30.695 19.396C30.7741 18.9713 30.7946 18.5284 30.7773 18.079C30.7197 16.5751 27.8083 13.946 28.8636 16.124C29.9196 18.3012 29.4768 18.7959 27.3202 17.2559C26.0863 16.3743 25.2327 14.942 24.0277 14.0456C22.5016 13.0809 21.2109 11.6767 19.7474 10.5885C19.3432 10.288 19.0255 9.86661 18.6773 9.51842C15.4803 6.78645 11.2955 3.7137 7.3181 2.43949C6.94687 2.32014 6.58634 2.18268 6.24803 2.02793C4.04862 1.29452 3.29628 0.517481 0.872979 0.0771056C-1.55114 -0.362446 1.67059 1.19986 3.31027 1.67316C4.94913 2.14728 6.71886 3.27579 8.28692 4.02237C9.85499 4.76895 11.3243 5.89747 12.7442 6.89099C14.1641 7.88451 15.6976 8.79489 16.9693 9.99172C18.2411 11.1886 19.5161 12.3055 20.7146 13.5723C21.9139 14.8383 23.2111 15.9092 24.2746 17.2559Z" fill="#E9B864"/>
<path d="M34.8107 14.5395C35.0231 15.305 34.3119 14.7897 33.9876 14.6218C31.7001 13.1459 33.9711 15.7454 35.2223 16.0211C34.6625 16.7175 33.3916 15.9224 32.6706 16.2681C32.1042 16.6451 36.1565 16.7002 34.5638 17.4205C33.4402 17.9283 32.5586 18.4247 31.6762 19.3894C30.7938 20.3533 30.7815 22.3996 31.8474 20.4661C32.0845 20.0364 32.422 19.6026 32.8352 19.3137C34.6782 18.8667 35.7137 17.9111 37.6299 19.54C39.547 21.1682 35.9499 19.4347 36.457 20.6307C36.3689 20.7928 36.0306 20.7698 36.1277 21.0422C36.2018 22.3955 36.5516 22.1987 38.1674 22.542C39.7824 22.8861 37.9188 24.8221 40.1059 24.8015C42.2921 24.7809 43.9145 27.2108 44.5236 28.6974C44.3343 27.9557 44.9583 27.4503 45.0998 26.8042C45.1229 26.3259 44.6874 26.2411 44.359 26.0633C41.5488 25.8576 41.6163 22.0539 38.9264 22.2769C38.9346 21.6291 38.0999 21.9337 37.6917 21.8654C37.7435 21.4151 37.178 21.4349 36.8685 21.4538C36.9434 21.0562 36.3458 21.1608 36.5393 20.713C39.5355 21.5485 42.293 21.7501 45.0998 23.2647C45.453 23.4071 45.9477 23.4219 46.2522 23.5939C46.7107 23.6804 46.3979 24.3488 46.5815 24.664C48.1627 24.5932 48.4837 21.7057 47.0959 21.9683C45.7081 22.2308 44.7549 21.5575 43.5359 20.713C43.0897 20.4035 42.6288 20.001 42.3012 19.5606C40.9052 17.683 39.0811 17.1143 37.2801 15.6919C36.6883 15.2252 36.1187 14.6136 35.6338 14.0456C34.2485 12.9492 34.6485 10.8889 33.4114 9.84766C32.8368 11.6232 34.3843 13.0011 34.8107 14.5395Z" fill="#E9B864"/>
<path d="M31.7651 25.5695C31.8548 25.921 32.0532 26.3515 32.1767 26.7219C32.5537 27.8528 33.6888 29.0554 34.5432 29.8703C35.3984 30.6852 36.5006 32.008 37.4241 32.5044C38.3477 33.0007 40.5331 34.6667 39.2745 35.3837C38.016 36.1006 36.3771 34.8165 35.0576 34.6239C34.6312 34.5614 34.2765 34.4214 33.9052 34.2947C31.933 33.8214 30.4119 34.0658 29.0282 35.6734C27.6445 37.2818 27.9384 39.3026 27.6429 41.1201C27.3482 42.9384 27.391 44.8875 28.117 46.7503C28.843 48.6139 29.2628 49.7564 30.4234 51.4405C31.5832 53.1254 31.8005 53.7741 33.5554 55.3874C35.3103 57.0007 34.2929 55.0771 33.0755 53.6448C31.8589 52.2126 31.3897 50.6281 30.6884 48.953C29.988 47.2771 29.3327 45.2135 29.2957 43.3491C29.2537 42.9993 29.2389 42.6272 29.2957 42.279C29.3739 40.8427 30.4176 38.3338 31.9297 37.9988C32.2878 37.9197 32.6516 37.9494 32.9998 37.9988C36.3508 38.8384 40.6631 42.7194 43.2889 38.1634C44.6405 39.5331 43.4733 37.2752 43.7828 36.5171C44.019 36.3953 44.294 36.4126 44.5236 36.2702C44.3195 35.5409 43.149 35.1944 44.359 34.8709C44.7014 34.7416 45.2258 34.3622 44.7706 33.9654C42.8148 34.214 42.5275 30.6836 44.2767 32.813C44.6084 31.794 43.6281 31.0367 42.3028 30.9182C40.9784 30.7997 40.5265 29.6596 41.1414 29.1024C41.7563 28.5443 38.951 28.4274 38.2868 28.0199C37.6217 27.6125 36.4644 27.0824 35.5721 26.372C34.6798 25.6625 34.8617 24.7472 34.0081 23.6557C33.1545 22.5634 33.3982 25.0114 33.7406 25.7341C34.083 26.4568 35.1358 28.5945 34.3785 27.9771C33.6221 27.359 32.985 26.4222 32.6689 25.4065C32.352 24.3916 32.5989 22.6622 32.4236 21.5361C31.3173 22.3091 31.5461 24.2763 31.7651 25.5695Z" fill="#E9B864"/>
</svg>
