<?xml version="1.0" encoding="UTF-8"?>
<!DOCTYPE svg PUBLIC "-//W3C//DTD SVG 1.1//EN" "http://www.w3.org/Graphics/SVG/1.1/DTD/svg11.dtd">
<svg xmlns="http://www.w3.org/2000/svg" version="1.1" width="500px" height="500px" style="shape-rendering:geometricPrecision; text-rendering:geometricPrecision; image-rendering:optimizeQuality; fill-rule:evenodd; clip-rule:evenodd" xmlns:xlink="http://www.w3.org/1999/xlink">
<g><path style="opacity:0.741" fill="#a7aeb0" d="M 261.5,153.5 C 260.833,153.5 260.5,153.833 260.5,154.5C 229.995,154.831 199.662,154.498 169.5,153.5C 200.006,152.826 230.673,152.826 261.5,153.5 Z"/></g>
<g><path style="opacity:0.075" fill="#434854" d="M 260.5,154.5 C 260.5,153.833 260.833,153.5 261.5,153.5C 263.527,153.338 265.527,153.505 267.5,154C 268.056,154.383 268.389,154.883 268.5,155.5C 265.873,154.908 263.206,154.575 260.5,154.5 Z"/></g>
<g><path style="opacity:0.196" fill="#696d78" d="M 269.5,155.5 C 271.953,154.355 274.287,154.688 276.5,156.5C 274.05,156.702 271.717,156.369 269.5,155.5 Z"/></g>
<g><path style="opacity:1" fill="#fafbf8" d="M 169.5,153.5 C 199.662,154.498 229.995,154.831 260.5,154.5C 263.206,154.575 265.873,154.908 268.5,155.5C 268.833,155.5 269.167,155.5 269.5,155.5C 271.717,156.369 274.05,156.702 276.5,156.5C 277.469,157.309 278.302,158.309 279,159.5C 280.011,158.663 281.178,158.33 282.5,158.5C 283.492,158.328 284.158,158.662 284.5,159.5C 286.426,161.293 288.759,162.293 291.5,162.5C 292.492,162.328 293.158,162.662 293.5,163.5C 295.629,165.95 298.296,167.617 301.5,168.5C 302.539,170.531 304.205,171.864 306.5,172.5C 307.167,172.5 307.5,172.833 307.5,173.5C 308.5,174.833 309.5,176.167 310.5,177.5C 311.373,179.886 312.873,181.886 315,183.5C 315.333,183.167 315.667,182.833 316,182.5C 317.379,184.715 319.213,186.381 321.5,187.5C 323.062,191.392 325.395,194.725 328.5,197.5C 329.38,200.262 330.546,202.929 332,205.5C 331.372,210.59 333.206,214.257 337.5,216.5C 338.404,217.209 338.737,218.209 338.5,219.5C 338.41,222.152 339.076,224.485 340.5,226.5C 340.942,230.154 341.276,233.821 341.5,237.5C 341.5,242.833 341.5,248.167 341.5,253.5C 338.102,253.18 334.768,253.513 331.5,254.5C 325.337,293.484 303.337,317.984 265.5,328C 252.195,329.443 238.862,329.777 225.5,329C 224.756,327.961 223.756,327.461 222.5,327.5C 221.199,325.328 220.199,322.995 219.5,320.5C 217.784,320.371 216.117,320.038 214.5,319.5C 214.114,314.626 211.447,311.96 206.5,311.5C 204.167,307.167 200.833,303.833 196.5,301.5C 189.89,293.221 182.556,285.555 174.5,278.5C 172.083,275.332 169.916,271.999 168,268.5C 167.833,230.331 167.333,192.331 166.5,154.5C 167.105,152.519 168.105,152.185 169.5,153.5 Z M 250.5,198.5 C 255.893,199.182 261.227,200.182 266.5,201.5C 267.514,202.674 268.847,203.34 270.5,203.5C 271.659,205.25 273.326,206.25 275.5,206.5C 278.167,209.833 281.167,212.833 284.5,215.5C 285.124,217.754 286.457,219.421 288.5,220.5C 289.326,223.485 290.659,226.151 292.5,228.5C 294.771,239.41 295.104,250.41 293.5,261.5C 292.069,262.78 291.402,264.447 291.5,266.5C 289.917,268.663 288.584,270.996 287.5,273.5C 286.11,274.899 285.11,276.566 284.5,278.5C 283.167,279.167 282.167,280.167 281.5,281.5C 279.5,282.833 277.833,284.5 276.5,286.5C 274.147,287.34 272.147,288.674 270.5,290.5C 268.847,290.66 267.514,291.326 266.5,292.5C 264.447,292.402 262.78,293.069 261.5,294.5C 261.167,294.5 260.833,294.5 260.5,294.5C 245.245,296.503 229.911,297.003 214.5,296C 213.186,295.015 212.186,293.848 211.5,292.5C 211.023,261.437 211.523,230.437 213,199.5C 225.42,198.511 237.92,198.178 250.5,198.5 Z"/></g>
<g><path style="opacity:0.906" fill="#8a9197" d="M 276.5,156.5 C 278.786,156.595 280.786,157.262 282.5,158.5C 281.178,158.33 280.011,158.663 279,159.5C 278.302,158.309 277.469,157.309 276.5,156.5 Z"/></g>
<g><path style="opacity:0.035" fill="#535d5f" d="M 284.5,159.5 C 287.241,159.707 289.574,160.707 291.5,162.5C 288.759,162.293 286.426,161.293 284.5,159.5 Z"/></g>
<g><path style="opacity:0.208" fill="#64696d" d="M 293.5,163.5 C 296.704,164.383 299.371,166.05 301.5,168.5C 298.296,167.617 295.629,165.95 293.5,163.5 Z"/></g>
<g><path style="opacity:0.016" fill="#585c61" d="M 301.5,168.5 C 303.754,169.124 305.421,170.457 306.5,172.5C 304.205,171.864 302.539,170.531 301.5,168.5 Z"/></g>
<g><path style="opacity:0.055" fill="#4e5359" d="M 307.5,173.5 C 309.749,174.08 311.415,175.413 312.5,177.5C 311.833,177.5 311.167,177.5 310.5,177.5C 309.5,176.167 308.5,174.833 307.5,173.5 Z"/></g>
<g><path style="opacity:0.927" fill="#b7bbc1" d="M 310.5,177.5 C 311.167,177.5 311.833,177.5 312.5,177.5C 316.234,180.231 319.234,183.564 321.5,187.5C 319.213,186.381 317.379,184.715 316,182.5C 315.667,182.833 315.333,183.167 315,183.5C 312.873,181.886 311.373,179.886 310.5,177.5 Z"/></g>
<g><path style="opacity:0.987" fill="#c6ced2" d="M 266.5,201.5 C 261.227,200.182 255.893,199.182 250.5,198.5C 237.344,197.504 224.01,197.171 210.5,197.5C 210.5,193.833 210.5,190.167 210.5,186.5C 220.506,186.334 230.506,186.5 240.5,187C 248.288,190.394 255.955,194.061 263.5,198C 265.063,198.759 266.063,199.926 266.5,201.5 Z"/></g>
<g><path style="opacity:0.188" fill="#474b52" d="M 321.5,187.5 C 324.605,190.275 326.938,193.608 328.5,197.5C 325.395,194.725 323.062,191.392 321.5,187.5 Z"/></g>
<g><path style="opacity:0.2" fill="#4c4e52" d="M 270.5,203.5 C 272.674,203.75 274.341,204.75 275.5,206.5C 273.326,206.25 271.659,205.25 270.5,203.5 Z"/></g>
<g><path style="opacity:0.169" fill="#63646d" d="M 275.5,206.5 C 279.5,208.5 282.5,211.5 284.5,215.5C 281.167,212.833 278.167,209.833 275.5,206.5 Z"/></g>
<g><path style="opacity:1" fill="#a2a6ac" d="M 328.5,197.5 C 332.818,203.138 335.818,209.471 337.5,216.5C 333.206,214.257 331.372,210.59 332,205.5C 330.546,202.929 329.38,200.262 328.5,197.5 Z"/></g>
<g><path style="opacity:0.024" fill="#636367" d="M 284.5,215.5 C 286.531,216.539 287.864,218.205 288.5,220.5C 286.457,219.421 285.124,217.754 284.5,215.5 Z"/></g>
<g><path style="opacity:0.071" fill="#474557" d="M 288.5,220.5 C 290.873,222.579 292.206,225.246 292.5,228.5C 290.659,226.151 289.326,223.485 288.5,220.5 Z"/></g>
<g><path style="opacity:0.153" fill="#484854" d="M 338.5,219.5 C 339.924,221.515 340.59,223.848 340.5,226.5C 339.076,224.485 338.41,222.152 338.5,219.5 Z"/></g>
<g><path style="opacity:0.176" fill="#373b4b" d="M 340.5,226.5 C 342.082,229.876 342.749,233.542 342.5,237.5C 342.167,237.5 341.833,237.5 341.5,237.5C 341.276,233.821 340.942,230.154 340.5,226.5 Z"/></g>
<g><path style="opacity:0.102" fill="#282e34" d="M 210.5,197.5 C 224.01,197.171 237.344,197.504 250.5,198.5C 237.92,198.178 225.42,198.511 213,199.5C 211.523,230.437 211.023,261.437 211.5,292.5C 211.737,293.791 211.404,294.791 210.5,295.5C 210.5,262.833 210.5,230.167 210.5,197.5 Z"/></g>
<g><path style="opacity:0.184" fill="#636870" d="M 292.5,228.5 C 295.535,233.645 296.868,239.312 296.5,245.5C 296.414,250.212 295.914,254.879 295,259.5C 294.722,260.416 294.222,261.082 293.5,261.5C 295.104,250.41 294.771,239.41 292.5,228.5 Z"/></g>
<g><path style="opacity:0.059" fill="#464e57" d="M 293.5,261.5 C 293.598,263.553 292.931,265.22 291.5,266.5C 291.402,264.447 292.069,262.78 293.5,261.5 Z"/></g>
<g><path style="opacity:0.188" fill="#555e65" d="M 342.5,256.5 C 342.203,265.352 340.203,273.685 336.5,281.5C 338.686,273.094 340.686,264.76 342.5,256.5 Z"/></g>
<g><path style="opacity:0.071" fill="#424d5b" d="M 291.5,266.5 C 291.445,269.614 290.112,271.948 287.5,273.5C 288.584,270.996 289.917,268.663 291.5,266.5 Z"/></g>
<g><path style="opacity:0.176" fill="#5a6169" d="M 166.5,154.5 C 167.333,192.331 167.833,230.331 168,268.5C 169.916,271.999 172.083,275.332 174.5,278.5C 174.5,278.833 174.5,279.167 174.5,279.5C 171.5,277.332 169,274.666 167,271.5C 166.5,232.501 166.333,193.501 166.5,154.5 Z"/></g>
<g><path style="opacity:0.141" fill="#35454a" d="M 287.5,273.5 C 287.727,275.933 286.727,277.599 284.5,278.5C 285.11,276.566 286.11,274.899 287.5,273.5 Z"/></g>
<g><path style="opacity:0.361" fill="#677377" d="M 284.5,278.5 C 284.5,280.5 283.5,281.5 281.5,281.5C 282.167,280.167 283.167,279.167 284.5,278.5 Z"/></g>
<g><path style="opacity:0.255" fill="#59646c" d="M 281.5,281.5 C 280.833,284.167 279.167,285.833 276.5,286.5C 277.833,284.5 279.5,282.833 281.5,281.5 Z"/></g>
<g><path style="opacity:0.065" fill="#52545d" d="M 174.5,278.5 C 182.556,285.555 189.89,293.221 196.5,301.5C 188.833,294.5 181.5,287.167 174.5,279.5C 174.5,279.167 174.5,278.833 174.5,278.5 Z"/></g>
<g><path style="opacity:0.2" fill="#535764" d="M 276.5,286.5 C 275.198,288.822 273.198,290.155 270.5,290.5C 272.147,288.674 274.147,287.34 276.5,286.5 Z"/></g>
<g><path style="opacity:0.114" fill="#4e5b5e" d="M 266.5,292.5 C 265.22,293.931 263.553,294.598 261.5,294.5C 262.78,293.069 264.447,292.402 266.5,292.5 Z"/></g>
<g><path style="opacity:0.078" fill="#4c5759" d="M 211.5,292.5 C 212.186,293.848 213.186,295.015 214.5,296C 229.911,297.003 245.245,296.503 260.5,294.5C 258.189,296.068 255.522,296.902 252.5,297C 245.5,297.167 238.5,297.333 231.5,297.5C 224.133,297.497 217.133,296.83 210.5,295.5C 211.404,294.791 211.737,293.791 211.5,292.5 Z"/></g>
<g><path style="opacity:0.463" fill="#616775" d="M 170.5,297.5 C 172.5,298.833 174.167,300.5 175.5,302.5C 172.833,301.833 171.167,300.167 170.5,297.5 Z"/></g>
<g><path style="opacity:0.051" fill="#4b5056" d="M 331.5,292.5 C 330.002,297.322 327.336,301.322 323.5,304.5C 325.782,300.223 328.449,296.223 331.5,292.5 Z"/></g>
<g><path style="opacity:0.999" fill="#f8fafa" d="M 167.5,295.5 C 169.027,295.427 170.027,296.094 170.5,297.5C 171.167,300.167 172.833,301.833 175.5,302.5C 175.369,303.239 175.536,303.906 176,304.5C 182.09,311.096 188.59,317.096 195.5,322.5C 196.413,324.086 196.413,325.586 195.5,327C 196.308,327.308 196.975,327.808 197.5,328.5C 191.528,329.33 185.528,329.83 179.5,330C 176.665,334.001 173.332,337.501 169.5,340.5C 168.686,338.369 168.186,336.036 168,333.5C 167.5,320.838 167.333,308.171 167.5,295.5 Z"/></g>
<g><path style="opacity:0.463" fill="#626368" d="M 196.5,301.5 C 200.833,303.833 204.167,307.167 206.5,311.5C 202.833,308.5 199.5,305.167 196.5,301.5 Z"/></g>
<g><path style="opacity:0.196" fill="#676c73" d="M 175.5,302.5 C 182.5,308.833 189.167,315.5 195.5,322.5C 188.59,317.096 182.09,311.096 176,304.5C 175.536,303.906 175.369,303.239 175.5,302.5 Z"/></g>
<g><path style="opacity:0.024" fill="#474b4d" d="M 323.5,304.5 C 323.573,306.027 322.906,307.027 321.5,307.5C 321.427,305.973 322.094,304.973 323.5,304.5 Z"/></g>
<g><path style="opacity:0.898" fill="#81848a" d="M 319.5,310.5 C 316.105,314.898 312.105,318.564 307.5,321.5C 310.163,317.895 312.829,314.228 315.5,310.5C 317.023,310.793 318.357,310.793 319.5,310.5 Z"/></g>
<g><path style="opacity:0.933" fill="#b2b6ba" d="M 206.5,311.5 C 211.447,311.96 214.114,314.626 214.5,319.5C 211.5,317.167 208.833,314.5 206.5,311.5 Z"/></g>
<g><path style="opacity:0.989" fill="#c4cbd0" d="M 341.5,237.5 C 341.833,237.5 342.167,237.5 342.5,237.5C 343.833,243.833 343.833,250.167 342.5,256.5C 340.686,264.76 338.686,273.094 336.5,281.5C 335.624,285.582 333.957,289.249 331.5,292.5C 328.449,296.223 325.782,300.223 323.5,304.5C 322.094,304.973 321.427,305.973 321.5,307.5C 321.068,308.71 320.401,309.71 319.5,310.5C 318.357,310.793 317.023,310.793 315.5,310.5C 312.829,314.228 310.163,317.895 307.5,321.5C 303.608,323.062 300.275,325.395 297.5,328.5C 293.182,329.992 289.182,331.992 285.5,334.5C 284.791,335.404 283.791,335.737 282.5,335.5C 278.195,336.235 274.195,337.568 270.5,339.5C 269.833,339.833 269.167,340.167 268.5,340.5C 257.686,340.234 246.686,340.234 235.5,340.5C 230.833,336.5 226.5,332.167 222.5,327.5C 223.756,327.461 224.756,327.961 225.5,329C 238.862,329.777 252.195,329.443 265.5,328C 303.337,317.984 325.337,293.484 331.5,254.5C 334.768,253.513 338.102,253.18 341.5,253.5C 341.5,248.167 341.5,242.833 341.5,237.5 Z"/></g>
<g><path style="opacity:0.859" fill="#adadb4" d="M 214.5,319.5 C 216.117,320.038 217.784,320.371 219.5,320.5C 220.199,322.995 221.199,325.328 222.5,327.5C 219.5,325.167 216.833,322.5 214.5,319.5 Z"/></g>
<g><path style="opacity:0.071" fill="#48545a" d="M 307.5,321.5 C 304.725,324.605 301.392,326.938 297.5,328.5C 300.275,325.395 303.608,323.062 307.5,321.5 Z"/></g>
<g><path style="opacity:0.02" fill="#474a51" d="M 297.5,328.5 C 294.086,331.54 290.086,333.54 285.5,334.5C 289.182,331.992 293.182,329.992 297.5,328.5 Z"/></g>
<g><path style="opacity:0.985" fill="#c6ced4" d="M 195.5,322.5 C 200.472,327.807 205.472,333.14 210.5,338.5C 197.208,340.482 183.541,341.149 169.5,340.5C 173.332,337.501 176.665,334.001 179.5,330C 185.528,329.83 191.528,329.33 197.5,328.5C 196.975,327.808 196.308,327.308 195.5,327C 196.413,325.586 196.413,324.086 195.5,322.5 Z"/></g>
<g><path style="opacity:0.024" fill="#494f5d" d="M 282.5,335.5 C 278.915,337.806 274.915,339.139 270.5,339.5C 274.195,337.568 278.195,336.235 282.5,335.5 Z"/></g>
<g><path style="opacity:0.333" fill="#515b63" d="M 167.5,295.5 C 167.333,308.171 167.5,320.838 168,333.5C 168.186,336.036 168.686,338.369 169.5,340.5C 183.541,341.149 197.208,340.482 210.5,338.5C 212.466,339.255 212.8,340.421 211.5,342C 196.821,342.661 182.154,342.495 167.5,341.5C 166.207,326.027 166.207,310.693 167.5,295.5 Z"/></g>
<g><path style="opacity:0.204" fill="#6f737a" d="M 268.5,340.5 C 261.702,341.376 254.869,342.042 248,342.5C 243.589,342.514 239.422,341.847 235.5,340.5C 246.686,340.234 257.686,340.234 268.5,340.5 Z"/></g>
</svg>
