<svg width="35" height="35" viewBox="0 0 35 35" fill="none" xmlns="http://www.w3.org/2000/svg">
<g clip-path="url(#clip0_14_111)">
<path opacity="0.741" fill-rule="evenodd" clip-rule="evenodd" d="M18.4841 0.244013C18.3532 0.244013 18.2878 0.305285 18.2878 0.428013C12.2999 0.488917 6.34573 0.427645 0.42514 0.244013C6.41326 0.119997 12.433 0.119997 18.4841 0.244013Z" fill="#A7AEB0"/>
<path opacity="0.075" fill-rule="evenodd" clip-rule="evenodd" d="M18.2878 0.428013C18.2878 0.305285 18.3532 0.244013 18.4841 0.244013C18.882 0.214205 19.2746 0.244933 19.6619 0.336013C19.771 0.406485 19.8364 0.498485 19.8582 0.612013C19.3425 0.503085 18.819 0.441813 18.2878 0.428013Z" fill="#434854"/>
<path opacity="0.196" fill-rule="evenodd" clip-rule="evenodd" d="M20.0545 0.611992C20.536 0.401312 20.9941 0.462584 21.4285 0.795992C20.9476 0.83316 20.4897 0.771888 20.0545 0.611992Z" fill="#696D78"/>
<path fill-rule="evenodd" clip-rule="evenodd" d="M0.425214 0.244011C6.34581 0.427643 12.3 0.488915 18.2879 0.428011C18.8191 0.441811 19.3426 0.503083 19.8582 0.612011C19.9236 0.612011 19.9892 0.612011 20.0545 0.612011C20.4897 0.771907 20.9477 0.833179 21.4286 0.796011C21.6188 0.944867 21.7823 1.12887 21.9193 1.34801C22.1178 1.194 22.3468 1.13273 22.6063 1.16401C22.8011 1.13236 22.9318 1.19382 22.9989 1.34801C23.377 1.67792 23.8349 1.86192 24.373 1.90001C24.5677 1.86836 24.6984 1.92982 24.7656 2.08401C25.1835 2.53481 25.707 2.84154 26.3359 3.00401C26.5399 3.37771 26.8669 3.62299 27.3174 3.74001C27.4483 3.74001 27.5137 3.80128 27.5137 3.92401C27.71 4.16928 27.9063 4.41474 28.1025 4.66001C28.2739 5.09903 28.5683 5.46703 28.9859 5.76401C29.0512 5.70274 29.1168 5.64128 29.1822 5.58001C29.4528 5.98757 29.8128 6.29411 30.2618 6.50001C30.5684 7.21614 31.0263 7.82941 31.6358 8.34001C31.8086 8.84822 32.0374 9.33895 32.3228 9.81201C32.1996 10.7486 32.5596 11.4233 33.4025 11.836C33.5799 11.9665 33.6453 12.1505 33.5988 12.388C33.5811 12.876 33.7118 13.3052 33.9913 13.676C34.0781 14.3483 34.1437 15.0231 34.1876 15.7C34.1876 16.6813 34.1876 17.6627 34.1876 18.644C33.5206 18.5851 32.8662 18.6464 32.2247 18.828C31.0149 26.0011 26.6965 30.5091 19.2694 32.352C16.6577 32.6175 14.0405 32.679 11.4176 32.536C11.2716 32.3448 11.0753 32.2528 10.8288 32.26C10.5734 31.8604 10.3771 31.4311 10.2399 30.972C9.90303 30.9483 9.57581 30.887 9.25841 30.788C9.18264 29.8912 8.65912 29.4007 7.68806 29.316C7.23011 28.5187 6.57567 27.9053 5.72513 27.476C4.42763 25.9527 2.98802 24.5421 1.40668 23.244C0.932239 22.6611 0.506872 22.0478 0.130774 21.404C0.097993 14.3809 -0.000153586 7.38891 -0.163666 0.428011C-0.0449084 0.0635068 0.151385 0.00205081 0.425214 0.244011ZM16.325 8.52401C17.3836 8.6495 18.4306 8.8335 19.4656 9.07601C19.6647 9.29203 19.9263 9.41457 20.2508 9.44401C20.4783 9.76601 20.8055 9.95001 21.2323 9.99601C21.7558 10.6093 22.3447 11.1613 22.9989 11.652C23.1214 12.0667 23.3831 12.3735 23.7841 12.572C23.9462 13.1212 24.2079 13.6118 24.5693 14.044C25.0151 16.0514 25.0804 18.0754 24.7656 20.116C24.4847 20.3515 24.3537 20.6583 24.373 21.036C24.0622 21.434 23.8006 21.8633 23.5878 22.324C23.315 22.5814 23.1187 22.8882 22.9989 23.244C22.7373 23.3667 22.541 23.5507 22.41 23.796C22.0175 24.0413 21.6902 24.348 21.4286 24.716C20.9667 24.8706 20.5741 25.116 20.2508 25.452C19.9263 25.4814 19.6647 25.604 19.4656 25.82C19.0627 25.802 18.7354 25.9247 18.4842 26.188C18.4188 26.188 18.3533 26.188 18.2879 26.188C15.2934 26.5566 12.2835 26.6486 9.25841 26.464C9.00048 26.2828 8.80418 26.068 8.66953 25.82C8.57589 20.1044 8.67404 14.4004 8.96397 8.70801C11.4019 8.52603 13.8556 8.46476 16.325 8.52401Z" fill="#FAFBF8"/>
<path opacity="0.906" fill-rule="evenodd" clip-rule="evenodd" d="M21.4286 0.79599C21.8773 0.81347 22.2699 0.936198 22.6063 1.16399C22.3468 1.13271 22.1177 1.19398 21.9193 1.34799C21.7823 1.12885 21.6188 0.944846 21.4286 0.79599Z" fill="#8A9197"/>
<path opacity="0.035" fill-rule="evenodd" clip-rule="evenodd" d="M22.9988 1.34799C23.5369 1.38608 23.9948 1.57008 24.3729 1.89999C23.8349 1.8619 23.3769 1.6779 22.9988 1.34799Z" fill="#535D5F"/>
<path opacity="0.208" fill-rule="evenodd" clip-rule="evenodd" d="M24.7655 2.08398C25.3944 2.24646 25.9179 2.55318 26.3358 3.00398C25.7069 2.84151 25.1834 2.53478 24.7655 2.08398Z" fill="#64696D"/>
<path opacity="0.016" fill-rule="evenodd" clip-rule="evenodd" d="M26.3359 3.004C26.7784 3.11881 27.1056 3.36409 27.3174 3.74C26.8669 3.62297 26.5399 3.3777 26.3359 3.004Z" fill="#585C61"/>
<path opacity="0.055" fill-rule="evenodd" clip-rule="evenodd" d="M27.5136 3.92401C27.9551 4.03073 28.2821 4.276 28.4951 4.66001C28.3642 4.66001 28.2334 4.66001 28.1025 4.66001C27.9062 4.41474 27.7099 4.16928 27.5136 3.92401Z" fill="#4E5359"/>
<path opacity="0.927" fill-rule="evenodd" clip-rule="evenodd" d="M28.1026 4.66C28.2335 4.66 28.3642 4.66 28.4952 4.66C29.2281 5.16251 29.817 5.77578 30.2618 6.5C29.8129 6.29411 29.4529 5.98756 29.1822 5.58C29.1168 5.64128 29.0513 5.70273 28.9859 5.764C28.5684 5.46703 28.2739 5.09903 28.1026 4.66Z" fill="#B7BBC1"/>
<path opacity="0.987" fill-rule="evenodd" clip-rule="evenodd" d="M19.4657 9.07598C18.4306 8.83347 17.3836 8.64947 16.325 8.52398C13.7425 8.34072 11.1252 8.27945 8.47324 8.33998C8.47324 7.66526 8.47324 6.99071 8.47324 6.31598C10.4373 6.28544 12.4003 6.31598 14.362 6.40798C15.8908 7.03248 17.3957 7.70721 18.8768 8.43198C19.1836 8.57164 19.3799 8.78637 19.4657 9.07598Z" fill="#C6CED2"/>
<path opacity="0.188" fill-rule="evenodd" clip-rule="evenodd" d="M30.2618 6.5C30.8713 7.0106 31.3292 7.62387 31.6358 8.34C31.0263 7.8294 30.5684 7.21613 30.2618 6.5Z" fill="#474B52"/>
<path opacity="0.2" fill-rule="evenodd" clip-rule="evenodd" d="M20.2508 9.444C20.6776 9.49 21.0048 9.674 21.2323 9.996C20.8055 9.95 20.4783 9.766 20.2508 9.444Z" fill="#4C4E52"/>
<path opacity="0.169" fill-rule="evenodd" clip-rule="evenodd" d="M21.2322 9.996C22.0174 10.364 22.6063 10.916 22.9988 11.652C22.3446 11.1613 21.7557 10.6093 21.2322 9.996Z" fill="#63646D"/>
<path fill-rule="evenodd" clip-rule="evenodd" d="M31.6357 8.34C32.4833 9.37739 33.0722 10.5427 33.4024 11.836C32.5595 11.4233 32.1995 10.7486 32.3228 9.812C32.0374 9.33893 31.8085 8.8482 31.6357 8.34Z" fill="#A2A6AC"/>
<path opacity="0.024" fill-rule="evenodd" clip-rule="evenodd" d="M22.9988 11.652C23.3975 11.8432 23.6592 12.1497 23.784 12.572C23.383 12.3735 23.1213 12.0667 22.9988 11.652Z" fill="#636367"/>
<path opacity="0.071" fill-rule="evenodd" clip-rule="evenodd" d="M23.784 12.572C24.2498 12.9545 24.5115 13.4453 24.5692 14.044C24.2078 13.6118 23.9461 13.1212 23.784 12.572Z" fill="#474557"/>
<path opacity="0.153" fill-rule="evenodd" clip-rule="evenodd" d="M33.5987 12.388C33.8783 12.7588 34.009 13.188 33.9913 13.676C33.7118 13.3052 33.5811 12.876 33.5987 12.388Z" fill="#484854"/>
<path opacity="0.176" fill-rule="evenodd" clip-rule="evenodd" d="M33.9913 13.676C34.3018 14.2972 34.4328 14.9717 34.3839 15.7C34.3185 15.7 34.253 15.7 34.1876 15.7C34.1436 15.0231 34.0781 14.3483 33.9913 13.676Z" fill="#373B4B"/>
<path opacity="0.102" fill-rule="evenodd" clip-rule="evenodd" d="M8.47324 8.34C11.1252 8.27947 13.7425 8.34074 16.325 8.524C13.8556 8.46476 11.4019 8.52603 8.96397 8.708C8.67404 14.4004 8.5759 20.1044 8.66953 25.82C8.71605 26.0575 8.65069 26.2415 8.47324 26.372C8.47324 20.3613 8.47324 14.3507 8.47324 8.34Z" fill="#282E34"/>
<path opacity="0.184" fill-rule="evenodd" clip-rule="evenodd" d="M24.5693 14.044C25.165 14.9907 25.4267 16.0334 25.3544 17.172C25.3376 18.039 25.2394 18.8977 25.06 19.748C25.0054 19.9166 24.9073 20.0391 24.7656 20.116C25.0804 18.0754 25.0151 16.0514 24.5693 14.044Z" fill="#636870"/>
<path opacity="0.059" fill-rule="evenodd" clip-rule="evenodd" d="M24.7655 20.116C24.7848 20.4937 24.6538 20.8005 24.3729 21.036C24.3537 20.6582 24.4846 20.3515 24.7655 20.116Z" fill="#464E57"/>
<path opacity="0.188" fill-rule="evenodd" clip-rule="evenodd" d="M34.3839 19.196C34.3256 20.8248 33.933 22.358 33.2061 23.796C33.6352 22.2493 34.0278 20.7158 34.3839 19.196Z" fill="#555E65"/>
<path opacity="0.071" fill-rule="evenodd" clip-rule="evenodd" d="M24.3729 21.036C24.3621 21.609 24.1005 22.0384 23.5878 22.324C23.8006 21.8633 24.0622 21.434 24.3729 21.036Z" fill="#424D5B"/>
<path opacity="0.176" fill-rule="evenodd" clip-rule="evenodd" d="M-0.163638 0.428009C-0.000125751 7.38891 0.0980208 14.3809 0.130802 21.404C0.506899 22.0478 0.932266 22.6611 1.40671 23.244C1.40671 23.3053 1.40671 23.3667 1.40671 23.428C0.817828 23.0291 0.327095 22.5386 -0.0654914 21.956C-0.163638 14.7802 -0.196419 7.60419 -0.163638 0.428009Z" fill="#5A6169"/>
<path opacity="0.141" fill-rule="evenodd" clip-rule="evenodd" d="M23.5877 22.324C23.6323 22.7717 23.436 23.0782 22.9988 23.244C23.1186 22.8881 23.3149 22.5814 23.5877 22.324Z" fill="#35454A"/>
<path opacity="0.361" fill-rule="evenodd" clip-rule="evenodd" d="M22.9989 23.244C22.9989 23.612 22.8026 23.796 22.41 23.796C22.541 23.5507 22.7373 23.3667 22.9989 23.244Z" fill="#677377"/>
<path opacity="0.255" fill-rule="evenodd" clip-rule="evenodd" d="M22.41 23.796C22.2791 24.2867 21.9521 24.5933 21.4286 24.716C21.6902 24.348 22.0174 24.0413 22.41 23.796Z" fill="#59646C"/>
<path opacity="0.065" fill-rule="evenodd" clip-rule="evenodd" d="M1.40665 23.244C2.98798 24.5421 4.4276 25.9527 5.7251 27.476C4.22012 26.188 2.7807 24.8387 1.40665 23.428C1.40665 23.3667 1.40665 23.3053 1.40665 23.244Z" fill="#52545D"/>
<path opacity="0.2" fill-rule="evenodd" clip-rule="evenodd" d="M21.4286 24.716C21.173 25.1433 20.7804 25.3885 20.2508 25.452C20.5741 25.116 20.9667 24.8706 21.4286 24.716Z" fill="#535764"/>
<path opacity="0.114" fill-rule="evenodd" clip-rule="evenodd" d="M19.4657 25.82C19.2144 26.0833 18.8872 26.206 18.4842 26.188C18.7354 25.9247 19.0627 25.802 19.4657 25.82Z" fill="#4E5B5E"/>
<path opacity="0.078" fill-rule="evenodd" clip-rule="evenodd" d="M8.66953 25.82C8.80419 26.068 9.00048 26.2828 9.25841 26.464C12.2835 26.6486 15.2934 26.5566 18.2879 26.188C17.8343 26.4765 17.3107 26.63 16.7175 26.648C15.3435 26.6787 13.9694 26.7093 12.5954 26.74C11.1493 26.7395 9.77525 26.6167 8.47324 26.372C8.65069 26.2416 8.71605 26.0576 8.66953 25.82Z" fill="#4C5759"/>
<path opacity="0.463" fill-rule="evenodd" clip-rule="evenodd" d="M0.62149 26.74C1.01408 26.9853 1.3413 27.292 1.60296 27.66C1.07944 27.5373 0.752418 27.2307 0.62149 26.74Z" fill="#616775"/>
<path opacity="0.051" fill-rule="evenodd" clip-rule="evenodd" d="M32.2247 25.82C31.9307 26.7073 31.4073 27.4433 30.6544 28.028C31.1023 27.241 31.6258 26.505 32.2247 25.82Z" fill="#4B5056"/>
<path opacity="0.999" fill-rule="evenodd" clip-rule="evenodd" d="M0.0326817 26.372C0.332421 26.3586 0.528714 26.4813 0.621561 26.74C0.752489 27.2307 1.07951 27.5373 1.60303 27.66C1.57731 27.796 1.61009 27.9187 1.70117 28.028C2.8966 29.2417 4.1725 30.3457 5.52889 31.34C5.70811 31.6318 5.70811 31.9078 5.52889 32.168C5.68749 32.2247 5.81842 32.3167 5.92148 32.444C4.74921 32.5967 3.57145 32.6887 2.3882 32.72C1.83171 33.4562 1.17746 34.1002 0.425268 34.652C0.265485 34.2599 0.167339 33.8306 0.130828 33.364C0.0326817 31.0342 -9.92846e-05 28.7035 0.0326817 26.372Z" fill="#F8FAFA"/>
<path opacity="0.463" fill-rule="evenodd" clip-rule="evenodd" d="M5.72507 27.476C6.57561 27.9053 7.23005 28.5187 7.688 29.316C6.96819 28.764 6.31395 28.1507 5.72507 27.476Z" fill="#626368"/>
<path opacity="0.196" fill-rule="evenodd" clip-rule="evenodd" d="M1.60296 27.66C2.97701 28.8253 4.2857 30.052 5.52883 31.34C4.17244 30.3457 2.89653 29.2417 1.70111 28.028C1.61003 27.9187 1.57725 27.796 1.60296 27.66Z" fill="#676C73"/>
<path opacity="0.024" fill-rule="evenodd" clip-rule="evenodd" d="M30.6543 28.028C30.6687 28.309 30.5377 28.493 30.2617 28.58C30.2474 28.299 30.3783 28.115 30.6543 28.028Z" fill="#474B4D"/>
<path opacity="0.898" fill-rule="evenodd" clip-rule="evenodd" d="M29.8692 29.132C29.2027 29.9412 28.4176 30.6158 27.5136 31.156C28.0364 30.4927 28.5597 29.8179 29.084 29.132C29.3829 29.1859 29.6448 29.1859 29.8692 29.132Z" fill="#81848A"/>
<path opacity="0.933" fill-rule="evenodd" clip-rule="evenodd" d="M7.68808 29.316C8.65914 29.4006 9.18266 29.8912 9.25842 30.788C8.66955 30.3587 8.14603 29.868 7.68808 29.316Z" fill="#B2B6BA"/>
<path opacity="0.989" fill-rule="evenodd" clip-rule="evenodd" d="M34.1876 15.7C34.2529 15.7 34.3185 15.7 34.3839 15.7C34.6455 16.8653 34.6455 18.0307 34.3839 19.196C34.0278 20.7159 33.6352 22.2493 33.2061 23.796C33.0341 24.5471 32.7069 25.2218 32.2246 25.82C31.6257 26.505 31.1022 27.241 30.6543 28.028C30.3783 28.115 30.2474 28.299 30.2617 28.58C30.1769 28.8027 30.046 28.9867 29.8691 29.132C29.6447 29.1859 29.3829 29.1859 29.0839 29.132C28.5596 29.818 28.0363 30.4927 27.5136 31.156C26.7496 31.4434 26.0954 31.8727 25.5507 32.444C24.7031 32.7185 23.9179 33.0865 23.1951 33.548C23.056 33.7143 22.8597 33.7756 22.6063 33.732C21.7612 33.8673 20.976 34.1125 20.2507 34.468C20.1198 34.5293 19.9891 34.5907 19.8582 34.652C17.7354 34.6031 15.5762 34.6031 13.3805 34.652C12.4644 33.916 11.6138 33.1187 10.8287 32.26C11.0752 32.2528 11.2715 32.3448 11.4176 32.536C14.0404 32.679 16.6576 32.6175 19.2693 32.352C26.6964 30.5091 31.0149 26.0011 32.2246 18.828C32.8661 18.6464 33.5206 18.5851 34.1876 18.644C34.1876 17.6627 34.1876 16.6813 34.1876 15.7Z" fill="#C4CBD0"/>
<path opacity="0.859" fill-rule="evenodd" clip-rule="evenodd" d="M9.25836 30.788C9.57577 30.887 9.90299 30.9483 10.2398 30.972C10.377 31.4311 10.5733 31.8603 10.8287 32.26C10.2398 31.8307 9.71631 31.34 9.25836 30.788Z" fill="#ADADB4"/>
<path opacity="0.071" fill-rule="evenodd" clip-rule="evenodd" d="M27.5136 31.156C26.9689 31.7273 26.3146 32.1566 25.5507 32.444C26.0954 31.8727 26.7496 31.4434 27.5136 31.156Z" fill="#48545A"/>
<path opacity="0.02" fill-rule="evenodd" clip-rule="evenodd" d="M25.5507 32.444C24.8806 33.0034 24.0954 33.3714 23.1952 33.548C23.9179 33.0865 24.7031 32.7185 25.5507 32.444Z" fill="#474A51"/>
<path opacity="0.985" fill-rule="evenodd" clip-rule="evenodd" d="M5.52876 31.34C6.50473 32.3165 7.4862 33.2978 8.47316 34.284C5.86403 34.6487 3.18129 34.7714 0.42514 34.652C1.17734 34.1002 1.83158 33.4562 2.38807 32.72C3.57133 32.6887 4.74908 32.5967 5.92135 32.444C5.81829 32.3167 5.68737 32.2247 5.52876 32.168C5.70798 31.9078 5.70798 31.6318 5.52876 31.34Z" fill="#C6CED4"/>
<path opacity="0.024" fill-rule="evenodd" clip-rule="evenodd" d="M22.6063 33.732C21.9026 34.1563 21.1175 34.4016 20.2508 34.468C20.9761 34.1125 21.7613 33.8672 22.6063 33.732Z" fill="#494F5D"/>
<path opacity="0.333" fill-rule="evenodd" clip-rule="evenodd" d="M0.0326405 26.372C-0.000140503 28.7035 0.0326404 31.0342 0.130787 33.364C0.167298 33.8306 0.265444 34.2599 0.425227 34.652C3.18138 34.7714 5.86412 34.6487 8.47325 34.284C8.85916 34.4229 8.92472 34.6375 8.66954 34.928C5.78815 35.0496 2.90912 35.0191 0.0326405 34.836C-0.221167 31.989 -0.221167 29.1675 0.0326405 26.372Z" fill="#515B63"/>
<path opacity="0.204" fill-rule="evenodd" clip-rule="evenodd" d="M19.8581 34.652C18.5237 34.8132 17.1825 34.9357 15.8341 35.02C14.9683 35.0226 14.1503 34.8999 13.3805 34.652C15.5762 34.6031 17.7354 34.6031 19.8581 34.652Z" fill="#6F737A"/>
</g>
<defs>
<clipPath id="clip0_14_111">
<rect width="34.8372" height="35" fill="white"/>
</clipPath>
</defs>
</svg>
