<svg width="56" height="54" viewBox="0 0 56 54" fill="none" xmlns="http://www.w3.org/2000/svg">
<path fill-rule="evenodd" clip-rule="evenodd" d="M31.9259 0H0L2.91356 15.5564C3.60962 19.2728 3.95765 21.131 4.91146 22.5227C5.75243 23.7497 6.91886 24.718 8.27973 25.3187C9.82319 26 11.7137 26 15.4948 26H24.1326C24.9728 22.6022 29.7032 20 35.4128 20C41.1224 20 45.8527 22.6022 46.6929 26H54.0741C55.1377 26 56 25.1377 56 24.0741C56 10.7783 45.2217 0 31.9259 0Z" fill="#D9D9D9"/>
<path fill-rule="evenodd" clip-rule="evenodd" d="M24.0947 28H15.4948C11.7137 28 9.82319 28 8.27973 28.6813C6.91886 29.282 5.75243 30.2503 4.91146 31.4773C3.95765 32.869 3.60962 34.7272 2.91356 38.4436L0 54H31.9259C45.2217 54 56 43.2217 56 29.9259C56 28.8623 55.1377 28 54.0741 28H46.7308C46.0065 31.479 41.2154 34.1667 35.4128 34.1667C29.6102 34.1667 24.819 31.479 24.0947 28Z" fill="#D9D9D9"/>
<rect x="27" y="23.5" width="17" height="7" rx="3" fill="#D9D9D9"/>
</svg>
