<svg width="57" height="54" viewBox="0 0 57 54" fill="none" xmlns="http://www.w3.org/2000/svg">
<path fill-rule="evenodd" clip-rule="evenodd" d="M33.7778 0H0L2.78889 13.7452L2.78889 13.7452C3.53022 17.3989 3.90088 19.2258 4.85847 20.5919C5.70292 21.7966 6.86324 22.7451 8.21182 23.3332C9.74108 24 11.6051 24 15.3333 24H24.8027C25.8401 22.2066 27.7792 21 30 21H40C42.2208 21 44.1599 22.2066 45.1973 24H54.2222C55.2041 24 56 23.2041 56 22.2222C56 9.94923 46.0508 0 33.7778 0Z" fill="#D9D9D9"/>
<path fill-rule="evenodd" clip-rule="evenodd" d="M24.524 29.4559H15.3457C11.6206 29.4559 9.75801 29.4559 8.22958 30.1219C6.8817 30.7092 5.72175 31.6566 4.8771 32.8601C3.91931 34.2247 3.54737 36.0498 2.80348 39.6998L0 53.4559H34.0264C46.2994 53.4559 56.2486 43.5067 56.2486 31.2337C56.2486 30.2519 55.4527 29.4559 54.4709 29.4559H45.476C44.5375 31.5451 42.4387 33 40 33H30C27.5613 33 25.4625 31.5451 24.524 29.4559Z" fill="#D9D9D9"/>
<rect x="27" y="23.5" width="15.75" height="7" rx="3.5" fill="#D9D9D9"/>
</svg>
