<svg width="69" height="68" viewBox="0 0 69 68" fill="none" xmlns="http://www.w3.org/2000/svg">
<path fill-rule="evenodd" clip-rule="evenodd" d="M38.4444 0H0L4.08904 22.4897C4.76878 26.2283 5.10864 28.0975 6.06102 29.4982C6.90067 30.7331 8.06921 31.7083 9.43439 32.3135C10.9828 33 12.8827 33 16.6826 33H30.1317C31.0328 29.6077 36.4508 27 43 27C49.5492 27 54.9672 29.6077 55.8684 33H66.5556C66.9685 33 67.175 33 67.3473 32.9696C68.1753 32.8236 68.8236 32.1753 68.9696 31.3473C69 31.175 69 30.9685 69 30.5556C69 25.3937 69 22.8128 68.6202 20.6588C66.7952 10.3085 58.6915 2.20484 48.3412 0.379806C46.1872 0 43.6063 0 38.4444 0Z" fill="#D9D9D9"/>
<path fill-rule="evenodd" clip-rule="evenodd" d="M30.1317 35H16.6826C12.8827 35 10.9828 35 9.43439 35.6865C8.06921 36.2917 6.90067 37.2669 6.06102 38.5018C5.10864 39.9025 4.76878 41.7717 4.08904 45.5103L0 68H38.4444C43.6063 68 46.1872 68 48.3412 67.6202C58.6915 65.7952 66.7952 57.6915 68.6202 47.3412C69 45.1872 69 42.6063 69 37.4444C69 37.0315 69 36.825 68.9696 36.6527C68.8236 35.8247 68.1753 35.1764 67.3473 35.0304C67.175 35 66.9685 35 66.5556 35H55.8684C54.9672 38.3923 49.5492 41 43 41C36.4508 41 31.0328 38.3923 30.1317 35Z" fill="#D9D9D9"/>
<rect x="33" y="30" width="20" height="8" rx="3" fill="#D9D9D9"/>
</svg>
