<svg width="128" height="128" viewBox="0 0 128 128" fill="none" xmlns="http://www.w3.org/2000/svg">
<path d="M47.6171 98.12C28.4251 103.482 59.2941 114.559 83.7321 104.089C79.7291 102.533 76.8581 100.738 76.8581 100.738C65.9611 102.798 60.9061 102.96 51.0141 101.83C42.8501 100.895 47.6171 98.12 47.6171 98.12ZM80.8061 87.66C66.3621 90.439 58.0191 90.35 47.4521 89.26C39.2811 88.415 44.6301 84.455 44.6301 84.455C23.4931 91.471 56.3971 99.432 85.9391 90.791C82.7991 89.685 80.8061 87.66 80.8061 87.66ZM92.1251 27.085C92.1261 27.085 49.3941 37.754 69.8021 61.272C75.8261 68.207 68.2221 74.442 68.2221 74.442C68.2221 74.442 83.5111 66.551 76.4911 56.665C69.9321 47.45 64.9041 42.872 92.1251 27.085ZM102.123 108.229C102.123 108.229 105.652 111.139 98.2351 113.388C84.1331 117.66 39.5291 118.948 27.1401 113.559C22.6901 111.621 31.0391 108.934 33.6661 108.367C36.4051 107.774 37.9691 107.882 37.9691 107.882C33.0171 104.395 5.95611 114.732 24.2271 117.697C74.0481 125.773 115.044 114.06 102.123 108.229ZM85.0001 77.896C87.3951 76.262 90.7031 74.843 90.7031 74.843C90.7031 74.843 81.2791 76.528 71.8901 77.317C60.3961 78.281 48.0671 78.471 41.8781 77.643C27.2261 75.684 49.9111 70.295 49.9111 70.295C49.9111 70.295 41.0991 69.699 30.2671 74.939C17.4551 81.134 61.9581 83.958 85.0001 77.896ZM90.6091 93.041C90.5011 93.331 90.1411 93.657 90.1411 93.657C121.414 85.436 109.916 64.678 94.9631 69.932C93.6511 70.396 92.9631 71.475 92.9631 71.475C92.9631 71.475 93.7921 71.141 95.6411 70.755C103.2 69.18 114.03 80.874 90.6091 93.041ZM64.1811 70.069C59.5671 59.64 43.9211 50.516 64.1881 34.51C89.4591 14.563 76.4921 1.58704 76.4921 1.58704C81.7221 22.195 58.0411 28.42 49.4931 41.254C43.6721 49.999 52.3501 59.396 64.1811 70.069ZM91.4551 121.817C72.2681 125.429 48.6011 125.008 34.5681 122.691C34.5681 122.691 37.4421 125.071 52.2141 126.022C74.6901 127.459 109.214 125.222 110.03 114.586C110.031 114.586 108.46 118.618 91.4551 121.817Z" fill="#E9B864"/>
</svg>
