<svg width="189" height="183" viewBox="0 0 189 183" fill="none" xmlns="http://www.w3.org/2000/svg">
<path d="M77.6391 96.9571C77.6391 96.9571 72.7901 99.6892 81.0958 100.613C91.1571 101.725 96.2999 101.565 107.386 99.5362C107.386 99.5362 110.308 101.305 114.377 102.837C89.5181 113.15 58.1145 102.24 77.6391 96.9571ZM74.5989 83.4966C74.5989 83.4966 69.1592 87.3982 77.4708 88.2303C88.2202 89.304 96.706 89.3926 111.401 86.6533C111.401 86.6533 113.428 88.6492 116.622 89.7372C86.5709 98.2495 53.0987 90.4077 74.5989 83.4966Z" fill="#FDFDFD"/>
<path d="M100.207 60.6631C106.336 67.4941 98.6004 73.6361 98.6004 73.6361C98.6004 73.6361 114.153 65.8629 107.011 56.1253C100.338 47.0482 95.225 42.5404 122.915 26.9911C122.915 26.9911 79.4479 37.4993 100.207 60.6631Z" fill="#FFE4B6"/>
<path d="M133.086 106.913C133.086 106.913 136.677 109.78 129.131 111.996C114.785 116.204 69.4132 117.473 56.8108 112.163C52.2836 110.255 60.7783 107.607 63.4494 107.051C66.2357 106.466 67.8274 106.573 67.8274 106.573C62.7894 103.138 35.2618 113.32 53.8458 116.241C104.527 124.194 146.23 112.658 133.086 106.913ZM79.9736 69.55C79.9736 69.55 56.8964 74.8584 71.8023 76.7885C78.0984 77.6034 90.6403 77.4161 102.332 76.4668C111.884 75.6905 121.469 74.0306 121.469 74.0306C121.469 74.0306 118.104 75.4289 115.667 77.0387C92.2276 83.0077 46.9577 80.2269 59.9913 74.125C71.0109 68.9624 79.9736 69.55 79.9736 69.55ZM121.373 91.9532C145.198 79.9696 134.181 68.452 126.493 70.0032C124.613 70.3835 123.768 70.7123 123.768 70.7123C123.768 70.7123 124.47 69.6487 125.803 69.1926C141.015 64.0171 152.711 84.4631 120.898 92.5608C120.898 92.5608 121.263 92.2406 121.373 91.9532Z" fill="#FDFDFD"/>
<path d="M107.012 1.8772C107.012 1.8772 120.205 14.6572 94.497 34.3054C73.8813 50.0705 89.7956 59.0575 94.4882 69.3298C82.4542 58.8159 73.6273 49.5601 79.5483 40.9477C88.2438 28.3064 112.334 22.1745 107.012 1.8772Z" fill="#FFE4B6"/>
<path d="M82.3169 124.439C105.18 125.854 140.3 123.651 141.131 113.175C141.131 113.175 139.534 117.146 122.233 120.297C102.716 123.854 78.6403 123.441 64.3649 121.159C64.3649 121.159 67.2885 123.504 82.3169 124.439Z" fill="#FDFDFD"/>
<path d="M140.076 143.228H139.379V142.85H141.254V143.228H140.56V145.11H140.074L140.076 143.228ZM143.819 143.322H143.81L143.119 145.11H142.8L142.113 143.322H142.106V145.11H141.645V142.85H142.32L142.956 144.45L143.594 142.85H144.265V145.11H143.819V143.322ZM78.5694 164.467C76.4136 166.277 74.1338 167.295 72.0858 167.295C69.1711 167.295 67.5897 165.599 67.5897 162.884C67.5897 159.946 69.2818 157.795 76.0622 157.795H78.5679L78.5694 164.467ZM84.5214 170.969V150.843C84.5214 145.698 81.49 142.304 74.1899 142.304C69.9285 142.304 66.1928 143.325 63.1555 144.623L64.0297 148.187C66.4217 147.336 69.5151 146.547 72.5509 146.547C76.7591 146.547 78.5679 148.187 78.5679 151.581V154.125H76.4653C66.246 154.125 61.6347 157.963 61.6347 163.736C61.6347 168.71 64.6734 171.537 70.3951 171.537C74.0718 171.537 76.8197 170.067 79.3844 167.915L79.851 170.971L84.5214 170.969ZM104.384 170.969H96.9614L88.0268 142.82H94.5104L100.056 160.118L101.289 165.315C104.089 157.797 106.073 150.166 107.066 142.822H113.372C111.684 152.087 108.643 162.262 104.384 170.969ZM132.864 164.467C130.701 166.277 128.42 167.295 126.379 167.295C123.461 167.295 121.881 165.599 121.881 162.884C121.881 159.946 123.578 157.795 130.351 157.795H132.863L132.864 164.467ZM138.819 170.969V150.843C138.819 145.698 135.779 142.304 128.485 142.304C124.219 142.304 120.485 143.325 117.447 144.623L118.323 148.187C120.715 147.336 123.813 146.547 126.849 146.547C131.051 146.547 132.864 148.187 132.864 151.581V154.125H130.761C120.539 154.125 115.929 157.963 115.929 163.736C115.929 168.71 118.965 171.537 124.685 171.537C128.364 171.537 131.107 170.067 133.679 167.915L134.149 170.971L138.819 170.969ZM55.1083 175.753C53.4147 178.153 50.6712 180.053 47.6708 181.124L44.7339 177.772C47.0182 176.636 48.9746 174.805 49.8857 173.098C50.6712 171.578 50.9975 169.624 50.9975 164.947V132.805H57.3231V164.506C57.3231 170.76 56.8093 173.29 55.1083 175.753Z" fill="#E9B864"/>
</svg>
