<svg width="60" height="60" viewBox="0 0 60 60" fill="none" xmlns="http://www.w3.org/2000/svg">
<g clip-path="url(#clip0_175_74)">
<path d="M55.5738 0.000227214H4.42623C3.26573 -0.0115833 2.14794 0.437462 1.31813 1.24883C0.488316 2.0602 0.0142678 3.16762 0 4.3281V55.6822C0.0168481 56.841 0.49203 57.9459 1.32156 58.7551C2.15109 59.5644 3.26741 60.0121 4.42623 60.0002H55.5738C56.7343 60.0094 57.8514 59.5589 58.6808 58.747C59.5101 57.9351 59.9844 56.828 60 55.6674V4.31334C59.9793 3.15627 59.5027 2.05413 58.6739 1.24648C57.8451 0.43884 56.731 -0.00902934 55.5738 0.000227214ZM17.7885 51.1478H8.88197V22.4904H17.7885V51.1478ZM13.3623 18.5855C12.3408 18.5864 11.3419 18.2844 10.492 17.7176C9.64218 17.1508 8.97954 16.3446 8.58794 15.4011C8.19634 14.4576 8.09337 13.4192 8.29207 12.4171C8.49076 11.4151 8.98219 10.4945 9.70418 9.77183C10.4262 9.04915 11.3463 8.55684 12.3481 8.35719C13.35 8.15754 14.3885 8.25952 15.3324 8.65022C16.2763 9.04092 17.0831 9.70279 17.6507 10.5521C18.2183 11.4014 18.5213 12.4 18.5213 13.4215C18.52 14.1005 18.3849 14.7726 18.1235 15.3992C17.8622 16.0259 17.4799 16.5949 16.9984 17.0736C16.5169 17.5523 15.9458 17.9314 15.3176 18.1892C14.6895 18.4469 14.0167 18.5782 13.3377 18.5756L13.3623 18.5855ZM51.1475 51.1478H42.241V37.2051C42.241 33.8855 42.182 29.6117 37.6131 29.6117C33.0443 29.6117 32.2672 33.2314 32.2672 36.9888V51.1478H23.3754V22.4904H31.9131V26.4248H32.0311C33.2213 24.1724 36.123 21.7969 40.4557 21.7969C49.4754 21.7773 51.1475 27.7133 51.1475 35.4101V51.1478Z" fill="#FDFDFD"/>
</g>
<defs>
<clipPath id="clip0_175_74">
<rect width="60" height="60" fill="white"/>
</clipPath>
</defs>
</svg>
