<svg width="58" height="58" viewBox="0 0 58 58" fill="none" xmlns="http://www.w3.org/2000/svg">
<g clip-path="url(#clip0_38_70)">
<path d="M53.375 0.413949H4.625C3.5189 0.402631 2.4535 0.832971 1.66259 1.61054C0.871676 2.38811 0.419849 3.4494 0.40625 4.56153V53.7764C0.422308 54.8869 0.875216 55.9458 1.66586 56.7213C2.45651 57.4968 3.5205 57.9259 4.625 57.9146H53.375C54.4812 57.9234 55.5458 57.4916 56.3364 56.7135C57.1269 55.9355 57.5789 54.8744 57.5938 53.7623V4.54739C57.574 3.43852 57.1198 2.38229 56.3298 1.60829C55.5399 0.834291 54.478 0.405078 53.375 0.413949Z" fill="#FDFDFD"/>
<path d="M8.8719 21.9673H17.361V49.4309H8.8719V21.9673ZM13.1188 8.29907C14.0924 8.29907 15.0442 8.58944 15.8537 9.13343C16.6632 9.67742 17.2941 10.4506 17.6664 11.3552C18.0388 12.2597 18.136 13.255 17.9457 14.2151C17.7554 15.1752 17.2862 16.057 16.5974 16.7489C15.9086 17.4408 15.0312 17.9118 14.0761 18.1022C13.1211 18.2926 12.1313 18.1939 11.232 17.8187C10.3327 17.4434 9.56437 16.8083 9.02411 15.9939C8.48385 15.1794 8.19597 14.2222 8.1969 13.2432C8.19814 11.9315 8.71725 10.6739 9.64014 9.74688C10.563 8.81982 11.8142 8.29907 13.1188 8.29907ZM22.686 21.9673H30.8235V25.7378H30.936C32.0703 23.5792 34.836 21.3027 38.9657 21.3027C47.5625 21.2838 49.1563 26.9726 49.1563 34.3487V49.4309H40.6672V36.069C40.6672 32.8877 40.611 28.7919 36.2563 28.7919C31.9016 28.7919 31.161 32.2608 31.161 35.8617V49.4309H22.686V21.9673Z" fill="#1A1B1C"/>
</g>
<defs>
<clipPath id="clip0_38_70">
<rect width="58" height="58" fill="white"/>
</clipPath>
</defs>
</svg>
