<svg width="127" height="124" viewBox="0 0 127 124" fill="none" xmlns="http://www.w3.org/2000/svg">
<path fill-rule="evenodd" clip-rule="evenodd" d="M111.049 18.3057C111.049 8.19582 102.988 0 93.0361 0C83.0911 0 75.023 8.19582 75.023 18.3057C75.023 28.4156 83.0911 36.6115 93.0361 36.6115C102.988 36.6115 111.049 28.4156 111.049 18.3057ZM72.4968 2.04461C71.0817 1.92933 69.6665 1.86625 68.2578 1.85754C47.1296 1.73356 27.1254 13.3552 16.6152 32.1982L16.6238 32.1938C17.0833 32.1655 17.5385 32.1612 17.9915 32.1612C19.8194 32.1601 21.642 32.3577 23.4278 32.7506C26.3453 33.3802 29.1308 34.5205 31.6578 36.1199C39.7648 24.2655 52.8529 17.1529 67.0325 16.8876C67.3153 11.4949 69.2214 6.31725 72.4968 2.04461ZM125.761 50.6156C124.303 42.7904 121.326 35.333 116.999 28.6723C114.927 33.6395 111.392 37.8479 106.873 40.7246C111.742 50.0556 113.215 60.8116 111.036 71.1239C109.985 76.1388 108.09 80.9352 105.434 85.3057C109.656 88.8248 112.672 93.5948 114.054 98.9393L114.05 98.9436L114.059 98.9523L114.054 98.9393C119.687 91.7049 123.6 83.2656 125.494 74.2691C127.129 66.4794 127.219 58.4408 125.761 50.6156ZM36.0262 58.4518C36.0262 48.3418 27.9602 40.146 18.0131 40.146C8.06384 40.146 0 48.3418 0 58.4518C0 68.5617 8.06384 76.7575 18.0131 76.7575C27.9602 76.7575 36.0262 68.5617 36.0262 58.4518ZM58.6408 105.573C45.6605 102.748 34.816 94.3259 28.7196 82.3801C23.9048 84.6018 18.5277 85.2724 13.3211 84.3008C20.6967 102.713 36.3369 116.081 55.543 120.266C59.7458 121.182 64.0357 121.63 68.3355 121.602C65.0271 117.185 63.183 111.829 63.0653 106.295C61.5796 106.129 60.1035 105.885 58.6429 105.565L58.6408 105.573ZM106.998 105.671C106.998 95.5613 98.9341 87.3633 88.9848 87.3633C79.0355 87.3633 70.9673 95.5613 70.9673 105.671C70.9673 115.779 79.0377 123.977 88.9848 123.977C98.9341 123.977 106.998 115.779 106.998 105.671Z" fill="#E9B864"/>
</svg>
