<svg width="139" height="139" viewBox="0 0 139 139" fill="none" xmlns="http://www.w3.org/2000/svg">
<g clip-path="url(#clip0_176_94)">
<circle cx="69.5" cy="69.5" r="69.5" fill="#E9B864"/>
<g clip-path="url(#clip1_176_94)">
<path d="M43.0084 68.7262C43.0084 59.9197 47.1426 52.0799 53.5634 47.0326L43.7359 31.303C35.4999 37.2183 29.3025 45.7799 26.3787 55.746C30.9558 58.692 33.9912 63.8395 33.9912 69.6899C33.9912 75.3328 31.1857 80.3077 26.8791 83.3022C30.0226 92.7425 36.1484 100.824 44.1391 106.432L53.2788 90.1768C47.0165 85.1314 43.0084 77.3962 43.0084 68.7262Z" fill="#FDFDFD"/>
<path d="M29.3459 69.6896C29.3459 76.2705 24.0015 81.6094 17.4222 81.6094C10.8397 81.6094 5.49921 76.2708 5.49921 69.6896C5.49921 63.1119 10.8397 57.7733 17.4222 57.7733C24.0015 57.7733 29.3459 63.1119 29.3459 69.6896Z" fill="#FDFDFD"/>
<path d="M96.2987 98.5136C99.0717 98.5136 101.682 99.1919 103.976 100.396C111.121 92.8665 115.737 82.9309 116.501 71.9258L97.9837 71.5675C96.558 85.4555 84.8251 96.2751 70.5647 96.2751C66.6176 96.2751 62.8508 95.4447 59.4515 93.9432L50.2466 110.048C56.383 113.067 63.2717 114.763 70.5645 114.763C73.7117 114.763 76.7981 114.445 79.7723 113.838C80.4067 105.273 87.5622 98.5136 96.2987 98.5136Z" fill="#FDFDFD"/>
<path d="M108.215 115.084C108.215 121.663 102.882 127 96.2987 127C89.7157 127 84.3785 121.663 84.3785 115.084C84.3785 108.499 89.7157 103.164 96.2987 103.164C102.882 103.164 108.215 108.499 108.215 115.084Z" fill="#FDFDFD"/>
<path d="M105.244 38.4494C102.546 40.3599 99.2442 41.4906 95.6791 41.4906C86.5214 41.4906 79.1066 34.0738 79.1066 24.9216C79.1066 24.4355 79.1284 23.9654 79.1644 23.4936C76.3804 22.9606 73.5032 22.687 70.5647 22.687C63.204 22.687 56.243 24.4193 50.074 27.4873L59.2248 43.6023C62.6855 42.0432 66.524 41.1662 70.5647 41.1662C84.6989 41.1662 96.3489 51.8111 97.9407 65.521L116.458 64.9556C115.64 54.8458 111.546 45.6625 105.244 38.4494Z" fill="#FDFDFD"/>
<path d="M107.592 24.9218C107.592 31.5046 102.269 36.8416 95.6793 36.8416C89.0968 36.8416 83.7595 31.5046 83.7595 24.9218C83.7593 18.3386 89.0965 13 95.6791 13C102.269 13 107.592 18.3386 107.592 24.9218Z" fill="#FDFDFD"/>
</g>
</g>
<defs>
<clipPath id="clip0_176_94">
<rect width="139" height="139" fill="white"/>
</clipPath>
<clipPath id="clip1_176_94">
<rect width="114" height="114" fill="white" transform="translate(4 13)"/>
</clipPath>
</defs>
</svg>
