<svg width="154" height="179" viewBox="0 0 154 179" fill="none" xmlns="http://www.w3.org/2000/svg">
<path d="M75.501 14.1812C71.3686 14.1812 70.6756 14.2323 67.9293 14.9483C64.5413 15.8433 62.565 16.9684 60.255 19.2954C59.0743 20.4462 58.484 21.1877 57.9193 22.1339C56.5076 24.5632 55.5837 27.3249 55.019 31.0583C54.711 32.8739 54.6853 33.5387 54.711 38.0393C54.711 42.77 55.2756 57.1923 55.6093 61.5139C55.8403 64.3779 55.7377 64.6847 53.325 68.0346C52.478 69.2109 51.2973 70.9242 50.707 71.8447C49.09 74.3252 46.8056 77.5216 44.932 79.9764C41.467 84.4259 40.5943 86.0624 38.4126 91.9694C36.308 97.7486 35.0247 100.613 31.919 106.622C30.3277 109.639 29.917 110.918 29.84 113.066C29.7373 114.907 29.994 117.464 30.2763 117.924C30.5073 118.231 30.7896 118.308 31.3543 118.155C31.2773 118.231 31.226 118.282 31.1746 118.308C30.2763 118.896 29.2496 120.149 28.608 121.735C28.5823 121.76 28.5823 121.811 28.5567 121.837C28.3257 122.195 28.069 122.809 27.761 123.755C26.837 126.363 26.067 127.514 24.681 128.255C23.5003 128.895 22.448 129.048 19.368 129.048C16.1853 129.048 15.4923 129.201 14.5427 130.02C12.8487 131.452 12.592 134.29 13.747 138.228C14.7993 141.783 14.748 143.419 13.3877 147.408C12.6433 149.607 12.5406 150.068 12.5406 151.014C12.5406 151.73 12.6177 152.267 12.7717 152.599C13.1053 153.29 14.1577 154.134 15.1843 154.568C16.3393 155.003 22.14 156.435 26.298 157.253C32.7403 158.557 35.0503 159.248 41.0307 161.626C46.3437 163.723 48.6023 164.49 50.399 164.771C51.246 164.899 52.9913 164.746 53.787 164.439C54.7366 164.106 55.635 163.493 57.6113 161.831C61.102 158.915 63.0013 157.995 66.9026 157.381C68.3657 157.151 69.7003 157.125 80.8653 157.125C87.6413 157.125 93.6216 157.177 94.1606 157.253C95.4183 157.407 95.906 157.816 96.9583 159.657C98.5753 162.547 100.552 163.825 104.145 164.362C105.839 164.618 108.739 164.643 110.074 164.439C113 163.953 114.463 163.084 117.774 159.785C121.624 155.924 125.217 153.494 130.274 151.295C132.84 150.17 133.995 149.531 137.024 147.485C140.746 144.979 141.464 144.186 141.464 142.55C141.464 140.836 140.54 139.762 137.127 137.512C133.867 135.364 132.404 134.06 131.044 132.065C130.094 130.659 129.76 129.585 129.632 127.488C129.581 126.516 129.478 125.852 129.35 125.442C129.221 123.985 128.631 122.323 127.579 121.786C126.116 121.019 125.602 121.249 125.115 121.556C126.757 119.714 127.296 118.845 127.835 117.26C128.785 114.447 128.58 111.301 126.937 103.119C125.038 93.606 121.804 86.804 115.13 78.2632C110.895 72.8164 109.176 70.1059 105.043 62.3833C102.99 58.522 102.4 57.1923 101.912 55.121C101.193 52.1292 100.86 49.4441 100.321 41.7983C99.8073 34.6639 99.448 31.7232 98.7806 29.2427C97.0096 22.4919 91.6966 17.3776 84.279 15.2552C81.122 14.3602 79.7617 14.1812 75.501 14.1812Z" fill="#FDFDFD"/>
<path d="M91.2627 56.377C91.2627 59.9437 86.9982 60.6968 84.9301 61.9757C83.0046 63.7519 71.9225 68.7679 68.9844 68.7679C64.2634 67.7733 58.5155 60.7536 57.7739 56.0928C57.7739 53.3787 61.2397 51.2046 63.1794 49.4284C65.1049 47.6522 67.3299 45.9754 71.1238 46.6859C74.0619 46.6859 78.6545 48.0785 80.5799 49.8547C84.4309 51.1336 91.2627 51.9578 91.2627 56.377ZM13.6161 151.682C18.0019 153.671 28.2211 156.215 31.8153 156.641C34.2257 157.636 50.1429 161.33 53.8084 161.33C59.2425 157.494 60.1411 151.682 58.6149 145.799C51.8402 134.9 46.6057 120.619 33.9405 115.703C32.6711 116.328 31.6299 118.019 31.1735 118.303C30.2607 118.886 29.248 120.151 28.6062 121.728C27.9359 123.376 27.3226 125.394 26.5752 128.335C25.1118 131.263 19.1372 128.62 15.0452 130.751C13.5533 135.256 16.0992 146.368 13.6161 151.682ZM131.512 134.986C134.251 137.216 138.544 138.879 140.483 142.588C136.789 146.979 133.609 148.527 128.931 150.744C122.512 153.785 118.49 156.641 115.552 158.631C112.614 161.188 105.796 162.751 102.701 162.325C100.747 161.046 98.551 145.515 99.2641 140.442C99.2641 137.742 95.9409 126.929 101.261 120.335C106.41 119.355 110.831 124.044 114.097 127.241C116.793 125.437 121.058 122.666 124.281 121.969C125.336 121.728 125.379 120.634 127.59 121.785C128.645 122.339 129.259 124.072 129.373 125.55C129.558 127.937 129.801 132.996 131.512 134.986Z" fill="#E9B864"/>
<path d="M50.4 164.741C48.6029 164.457 46.3352 163.746 41.0294 161.615C35.0391 159.199 32.7428 158.631 26.296 157.21C22.1456 156.499 16.325 155.007 15.1882 154.552C14.1599 154.14 13.0916 153.288 12.765 152.591C12.6127 152.279 12.5325 151.725 12.5325 151.014C12.5325 150.048 12.6359 149.622 13.3829 147.419C14.7401 143.412 14.8057 141.778 13.7504 138.225C12.5817 134.289 12.8552 131.447 14.539 130.012C15.4903 129.202 16.1835 129.06 19.3598 129.06C22.4463 129.06 23.4889 128.904 24.6841 128.25C26.0604 127.497 26.8349 126.36 27.7477 123.746C28.3325 122.055 28.7176 121.387 29.0884 121.387C29.3879 121.387 29.6446 122.126 29.6446 123.021C29.6446 123.817 28.7461 127.17 28.304 128.037C27.8333 128.975 27.1915 129.7 26.4512 130.126C25.0706 130.936 22.4106 131.149 19.4924 130.708C17.6283 130.41 16.5586 130.481 15.8455 130.907C14.79 131.547 14.6175 132.982 15.3834 134.758C16.8667 138.183 17.1505 138.922 17.4643 140.073C17.8365 141.451 17.8965 142.659 17.6625 144.094C17.4301 145.515 17.0207 146.41 15.8098 148.101C15.1851 148.982 14.6132 149.92 14.5376 150.204C14.3236 150.972 14.6388 151.554 15.4889 151.995C16.2106 152.35 26.5026 155.007 33.7737 156.641C36.0129 157.21 40.0921 158.204 42.8305 158.915C45.5832 159.625 48.4358 160.194 49.1774 160.336C51.4737 160.62 53.5989 160.336 55.0679 159.483C57.1075 158.204 58.5338 155.263 58.7049 151.838C58.819 149.579 58.3198 147.547 56.9934 144.918C55.9807 142.9 55.4815 142.119 50.675 134.886C42.1887 122.154 38.5089 117.905 35.3711 117.252C34.3585 117.053 33.6881 117.166 32.3332 117.777C31.0353 118.36 30.5931 118.389 30.2793 117.92C29.9798 117.465 29.7374 114.921 29.8229 113.074C29.9228 110.928 30.3364 109.649 31.9053 106.609C35.0146 100.612 36.2839 97.7417 38.4091 91.9725C40.5913 86.0612 41.4756 84.4271 44.9129 79.9652C46.7956 77.5354 49.0776 74.324 50.6893 71.8515C51.3026 70.9278 52.4864 69.2084 53.3279 68.029C55.724 64.6755 55.8381 64.3629 55.6099 61.5067C55.2676 57.2012 54.6971 42.764 54.6971 38.0464C54.6828 33.5561 54.7114 32.874 54.9966 31.0552C55.5814 27.3379 56.4942 24.5485 57.9205 22.1328C58.4625 21.1893 59.0758 20.4433 60.231 19.2809C62.5416 16.959 64.5384 15.845 67.9186 14.964C70.6713 14.2461 71.3702 14.1748 75.4921 14.1785C79.7424 14.1822 81.0974 14.3497 84.2637 15.256C91.6803 17.3789 97.0003 22.4973 98.7831 29.237C99.4392 31.7237 99.7958 34.6794 100.309 41.8127C100.851 49.4433 101.179 52.129 101.907 55.1415C102.392 57.1877 102.976 58.5376 105.03 62.3884C109.166 70.1186 110.878 72.8184 115.114 78.2466C121.789 86.8009 125.012 93.5931 126.923 103.114C128.564 111.299 128.763 114.439 127.822 117.267C127.252 118.972 126.695 119.824 124.741 121.97C120.634 126.503 116.055 129.345 112.917 129.345C110.065 129.345 107.455 127.412 105.586 123.903C104.716 121.97 104.831 120.421 102.335 120.975C101.122 121.302 100.124 122.766 99.8243 124.656C99.5961 126.006 99.6389 131.178 99.8814 132.471C99.9812 133.054 100.324 134.787 100.609 136.308C101.122 138.937 101.151 139.221 101.151 141.921C101.151 144.407 101.094 145.16 100.68 147.889C100.295 150.447 100.224 151.328 100.266 152.72C100.324 154.34 100.352 154.496 100.837 155.505C101.422 156.784 102.705 158.205 103.818 158.916C106.271 160.479 109.694 160.621 112.575 159.2C113.388 158.773 114.572 157.921 116.569 156.358C119.806 153.743 122.217 152.081 124.042 151.157C124.741 150.816 126.424 150.177 127.779 149.736C133.399 147.931 135.966 146.851 137.392 145.672C139.09 144.294 139.903 142.802 139.603 141.679C139.218 140.287 137.606 139.292 134.312 138.439C131.83 137.786 131.231 137.487 130.218 136.379C129.32 135.398 128.621 133.992 128.107 132.116C127.608 130.283 127.537 127.313 127.965 126.148C128.264 125.324 128.564 124.94 128.906 124.94C129.305 124.94 129.505 125.636 129.619 127.498C129.762 129.572 130.09 130.666 131.045 132.059C132.4 134.063 133.841 135.356 137.107 137.516C140.516 139.761 141.457 140.841 141.457 142.56C141.457 144.194 140.73 144.99 137.021 147.477C133.984 149.523 132.842 150.177 130.275 151.285C125.212 153.487 121.618 155.931 117.753 159.768C114.444 163.036 113.003 164.031 110.051 164.457C108.724 164.599 105.829 164.599 104.132 164.315C100.537 163.889 98.5835 162.61 96.9432 159.626C95.9021 157.779 95.4171 157.352 94.162 157.21C93.62 157.21 87.6297 157.068 80.8406 157.068C69.6872 157.068 68.3465 157.21 66.906 157.352C62.998 158.063 61.0725 158.916 57.5924 161.757C55.6242 163.463 54.7256 164.031 53.77 164.457C52.9856 164.742 51.2313 164.884 50.3898 164.742L50.4 164.741ZM63.265 155.576C63.5788 155.306 64.0494 154.68 64.3204 154.183C64.7483 153.387 64.8054 153.146 64.8482 151.924C64.948 149.678 64.4631 148.414 62.8656 146.737C61.7674 145.586 61.6105 145.089 62.2381 144.805C62.8228 144.549 63.5645 144.876 64.8909 145.984C67.4012 148.101 68.8845 148.456 74.3614 148.343C80.2519 148.201 83.461 147.59 86.6986 145.97C88.7952 144.918 90.1787 143.725 91.933 141.408C93.1739 139.788 93.7301 139.234 94.429 138.95C95.5843 138.467 96.1976 139.405 96.1691 141.636C96.1548 142.673 96.0407 143.327 95.57 145.06C94.2864 149.678 93.887 152.279 94.2436 153.6C94.4575 154.368 95.1279 154.95 95.7412 154.893C96.1691 154.851 96.1833 154.822 96.2974 153.998C96.3545 153.529 96.5969 151.938 96.8394 150.446C97.0676 148.968 97.3529 147.05 97.4812 146.183C97.7807 143.938 98.009 136.975 98.0232 129.415C98.0375 122.893 98.0375 122.879 98.3798 121.884C98.6508 121.117 98.8932 120.733 99.4495 120.179C100.32 119.326 101.132 119.014 102.972 118.886L104.199 118.786L104.37 117.92C104.784 115.944 105.968 114.822 108.307 114.197C109.063 113.998 109.818 113.927 111.444 113.927C113.798 113.927 114.454 114.069 116.579 115.092C117.535 115.547 118.362 115.703 118.362 115.433C118.362 115.22 117.207 114.14 116.279 113.486C115.795 113.131 114.953 112.676 114.425 112.463C113.698 112.165 113.427 111.98 113.398 111.767C113.37 111.596 113.584 110.644 113.869 109.635C114.696 106.651 114.967 104.761 114.982 101.919C115.01 97.2443 114.183 94.1466 111.459 88.9032C108.934 84.0434 106.267 80.4768 104.156 79.1411C103.543 78.7716 102.815 78.5158 102.815 78.6721C102.815 78.729 103.329 79.4821 103.942 80.3631C106.852 84.4697 109.876 89.7132 111.159 92.9104C112.2 95.4681 112.985 98.9353 113.227 102.09C113.641 107.262 112.229 111.681 109.804 112.761C109.319 112.989 108.777 113.074 107.593 113.102C105.711 113.174 105.454 113.074 104.955 112.079L104.598 111.369L104.513 105.685C104.356 96.0081 103.899 94.3598 98.8077 85.1945C97.2388 82.3809 96.925 81.642 96.2546 79.0842C94.8854 73.8266 93.559 70.7431 91.4766 67.958C88.2961 63.7235 87.8824 61.9614 89.1518 58.0538C89.9648 55.5102 89.9505 54.2029 89.0948 53.3361C88.4672 52.6967 87.9823 52.4693 85.1155 51.5599C80.7653 50.1815 78.7543 48.9453 78.1981 47.3112C77.6418 45.7054 78.0412 43.0908 79.0396 41.7978C79.7527 40.8599 80.6655 40.462 82.0632 40.462C82.9903 40.4762 83.3612 40.5473 84.003 40.8315C84.9871 41.3004 85.7715 41.9683 86.1709 42.7214C86.5988 43.5313 86.5845 45.4497 86.1424 46.8564C85.415 49.1442 85.4435 48.9026 85.957 49.3574C86.884 50.1815 88.3531 50.2526 88.9949 49.4852C89.5512 48.8316 89.7223 48.1637 89.7936 46.288C89.8792 44.2418 89.6653 42.8777 88.8238 40.3057C87.6685 36.7817 86.5132 35.7586 83.0189 35.1902C80.4088 34.7639 78.9825 35.1049 77.6703 36.4549C75.6165 38.5863 74.5896 41.9825 75.0032 45.3928C75.2314 47.2827 75.1886 47.368 74.1189 47.027C73.1633 46.7285 71.0667 46.487 69.8544 46.5296C68.5565 46.5865 68.4424 46.4728 68.4424 45.0234C68.4281 39.1263 66.6453 35.9149 63.3791 35.9433C61.1113 35.9433 59.2714 37.6627 58.5868 40.391C58.3158 41.4567 58.3729 44.5118 58.6724 46.288C59.2857 49.7837 60.6121 51.5315 61.6533 50.1673C62.0812 49.5847 62.452 48.8458 62.452 48.6042C62.452 48.5048 62.124 48.2774 61.7389 48.0927C61.311 47.8938 60.9259 47.5811 60.7548 47.2969C59.9418 46.0039 59.5424 43.6877 59.8847 42.4514C60.3269 40.8883 62.4805 39.9221 63.9639 40.6183C65.219 41.2152 66.5597 43.9719 66.417 45.7054C66.3029 47.0838 66.0462 47.5101 64.7911 48.4337C64.1635 48.8884 63.1509 49.7126 62.5233 50.2668C61.8958 50.821 61.1256 51.4604 60.8118 51.6878C59.2144 52.8388 58.3158 54.1887 58.3158 55.4676C58.3158 56.3059 58.6581 56.7607 59.7278 57.2864C60.5693 57.7127 61.3253 58.4516 62.124 59.6168C63.1937 61.1515 64.4631 61.6346 67.3727 61.6204C70.9241 61.6062 74.1047 60.8531 80.0665 58.6363C83.3041 57.4285 84.2027 57.0449 84.3881 56.7607C84.9158 55.9933 85.5291 55.4534 85.8999 55.4534C86.3991 55.4534 86.8413 55.9223 86.8413 56.4338C86.8413 57.3006 85.5006 58.0111 80.8509 59.5884C79.4817 60.0573 77.3566 60.9099 76.1442 61.4783C73.691 62.6435 73.0064 62.8851 71.3947 63.1977C70.0683 63.4535 67.0018 63.4819 65.3188 63.2545C63.9496 63.0698 63.1224 63.1693 63.1937 63.5245C63.265 63.894 66.4313 66.3523 67.1587 66.6223C68.1856 66.9775 70.2109 67.0485 71.5231 66.7501C73.5056 66.3238 79.767 63.6382 82.8762 61.9046C83.9174 61.322 84.5022 61.0804 84.873 61.0804C85.5006 61.0662 85.9855 61.4641 85.9855 61.9614C85.9855 62.5014 84.9301 63.425 83.7748 63.9082C81.7352 64.7323 81.3073 64.9597 79.282 66.2386C76.5151 68.0006 75.3027 68.8816 73.4771 70.4731C71.5231 72.1641 70.9669 72.3914 68.7989 72.4198C67.0731 72.4341 66.5454 72.2635 65.4187 71.2973C64.5344 70.5442 62.4235 67.9296 61.8245 66.8354C61.1969 65.6986 59.7992 64.1213 59.4283 64.1213C59.1859 64.1213 59.1573 64.1782 58.7437 65.9686C58.4585 67.2475 57.403 69.6631 55.6915 73.0024C53.6377 77.0238 53.5378 77.3791 53.5378 81.5994C53.5378 85.1234 53.6234 84.825 51.8976 87.2122C49.7867 90.1679 46.5063 97.8838 45.7219 101.777C45.1228 104.69 44.7092 109.649 44.8233 112.435C44.9089 114.651 44.7948 115.305 44.2671 115.632C43.7251 115.973 43.0833 115.618 41.7568 114.31C39.6745 112.221 39.0041 110.488 39.0184 107.177C39.0326 105.074 39.2181 103.454 39.6317 101.891C39.9882 100.555 40.0025 100.172 39.6745 100.243C39.3322 100.299 38.562 101.877 38.1911 103.284C37.9629 104.122 37.8774 104.989 37.8203 106.751C37.7633 108.911 37.7775 109.223 38.1198 110.729C38.5477 112.619 39.3607 114.381 40.4874 115.859C42.2132 118.133 50.9563 125.863 56.7755 130.282C58.1732 131.334 59.7278 132.655 60.2413 133.209C63.322 136.534 62.723 139.575 58.5155 141.92C57.8594 142.289 57.3174 142.616 57.3174 142.645C57.3174 142.673 57.8594 143.426 58.5155 144.293C60.9259 147.533 62.3237 149.906 62.8086 151.568C63.1366 152.663 63.1224 154.24 62.7658 155.249C62.6232 155.703 62.5376 156.073 62.5946 156.073C62.6517 156.073 62.9512 155.789 63.265 155.576ZM65.7324 49.7694C65.2903 48.9311 66.1175 48.2064 67.5295 48.2064C68.0287 48.2064 68.4709 48.2632 68.5137 48.3485C68.6135 48.519 68.1286 48.7748 67.7007 48.7748C67.444 48.7748 67.3013 48.9169 67.0874 49.3858C66.8592 49.8831 66.7308 49.9968 66.3457 50.0252C66.0034 50.0536 65.8608 49.9968 65.7324 49.7694ZM74.1902 49.1584C73.363 48.86 72.7212 48.4479 72.8781 48.2916C72.9208 48.249 73.4058 48.1779 73.9478 48.1211C75.2314 48.0074 75.7163 48.1922 75.7163 48.7606C75.7163 49.0447 75.6165 49.2437 75.4453 49.3432C75.2885 49.4142 75.1458 49.4852 75.1173 49.471C75.103 49.471 74.6752 49.3289 74.1902 49.1584ZM44.4953 88.9885C45.8645 87.5817 46.2496 86.8712 46.164 85.8623C46.1212 85.166 45.8502 84.9245 45.2797 85.0666C44.8661 85.166 44.6379 85.5923 44.2671 86.8854C44.1102 87.5106 43.8534 87.9227 43.2687 88.5764C42.4842 89.4574 42.3416 89.7842 42.6554 90.0968C42.9834 90.4236 43.2544 90.2673 44.4953 88.9885ZM99.3497 65.0023C99.6492 64.8176 100.248 63.354 100.248 62.7998C100.248 62.3593 100.163 62.1604 99.8061 61.8336C99.5636 61.6062 99.3069 61.4215 99.2355 61.4215C99.1642 61.4215 98.608 61.1941 97.9947 60.8957C97.253 60.5405 96.597 60.1 95.9551 59.4747C95.4417 58.9916 94.9425 58.5795 94.8569 58.5795C94.7713 58.5795 94.6572 58.75 94.6002 58.949C94.4433 59.6026 94.6715 60.6115 95.2705 61.8051C95.784 62.8709 95.9694 63.084 97.1532 64.0503C98.4226 65.0876 98.8932 65.2865 99.3497 65.0023ZM65.0336 45.9754C65.2047 45.5349 65.1619 45.1939 64.7198 43.7587C64.5344 43.1335 64.2634 42.6077 63.9781 42.2951C63.5645 41.8546 63.4932 41.8262 63.1652 41.9967C62.6945 42.2525 62.7373 42.8209 63.2935 43.4461C63.7071 43.915 64.0637 44.8102 64.2349 45.8333C64.349 46.487 64.8054 46.5722 65.0336 45.9754ZM85.1297 45.5776C85.4435 45.2081 85.2153 43.4461 84.7874 42.7924C84.3453 42.1246 83.3184 41.5136 82.5054 41.4283C81.9634 41.3573 81.8636 41.3999 81.7067 41.6699C81.507 42.0393 81.6068 42.153 82.3057 42.3661C83.19 42.6503 84.003 43.8582 84.2169 45.1939C84.3025 45.6912 84.3738 45.7907 84.6305 45.7907C84.8159 45.7907 85.0299 45.6912 85.1297 45.5776ZM86.0853 26.437C87.1122 25.7307 87.1836 25.6995 88.1677 25.6739C89.4228 25.6412 89.6938 25.5361 89.6938 25.0956C89.6938 24.4092 87.3262 22.3176 86.3278 22.1328C85.3294 21.9453 84.9728 22.4852 84.7732 24.5073C84.6876 25.2632 84.5877 25.5787 84.2597 25.9837C83.8176 26.5421 83.7462 26.8704 84.0315 27.1517C84.3167 27.443 84.9301 27.2285 86.0853 26.437Z" fill="#372911"/>
</svg>
