<svg width="59" height="59" viewBox="0 0 59 59" fill="none" xmlns="http://www.w3.org/2000/svg">
<g clip-path="url(#clip0_65_54)">
<path d="M29.5 1C6.60317 1 1 6.603 1 29.4999C1 52.3967 6.60317 58 29.5 58C52.3969 58 58 52.3967 58 29.4999C58 6.603 52.3969 1 29.5 1ZM12.406 15.681H46.5928C47.0261 15.681 47.434 15.7839 47.8017 15.9565L31.3616 27.4965C29.932 28.9275 29.0467 28.9275 27.617 27.4965L11.1836 15.9631C11.5567 15.7866 11.9673 15.681 12.406 15.681ZM49.4614 41.2178C49.4614 42.8025 48.1775 44.0877 46.5941 44.0877H12.406C10.8225 44.0877 9.53866 42.8025 9.53866 41.2178V19.4108C9.53866 19.2664 9.56006 19.1287 9.58146 18.9909L26.4589 30.9696C28.1386 32.6507 30.8628 32.6507 32.5425 30.9696L49.4199 18.9909C49.44 19.1287 49.4627 19.2664 49.4627 19.4108L49.4614 41.2178Z" fill="#FDFDFD"/>
<mask id="path-2-inside-1_65_54" fill="white">
<rect width="59" height="59" rx="6"/>
</mask>
<rect width="59" height="59" rx="6" stroke="#FDFDFD" stroke-width="16" mask="url(#path-2-inside-1_65_54)"/>
</g>
<defs>
<clipPath id="clip0_65_54">
<rect width="59" height="59" fill="white"/>
</clipPath>
</defs>
</svg>
