<svg width="122" height="123" viewBox="0 0 122 123" fill="none" xmlns="http://www.w3.org/2000/svg">
<g clip-path="url(#clip0_20_1044)">
<path d="M59.0755 -0.898037C54.0257 -0.874154 49.2055 -0.445445 44.9618 0.304497C32.4628 2.50894 30.195 7.12323 30.195 15.6341V26.8725H59.7298V30.6186H19.1097C10.5267 30.6186 3.01052 35.7691 0.659031 45.5709C-2.05367 56.8021 -2.17328 63.8119 0.659031 75.5399C2.75815 84.2705 7.77211 90.4898 16.3564 90.4898H26.5123V77.0171C26.5123 67.2834 34.9458 58.6984 44.963 58.6984H74.4642C82.6765 58.6984 89.231 51.9466 89.231 43.7139V15.6353C89.231 7.6427 82.478 1.63958 74.4642 0.305691C69.3881 -0.537396 64.1241 -0.920726 59.0755 -0.898037ZM43.1031 8.14067C46.1531 8.14067 48.6457 10.6687 48.6457 13.7784C48.6457 16.8749 46.1543 19.379 43.1031 19.379C40.0411 19.379 37.5616 16.8749 37.5616 13.7784C37.5604 10.6687 40.0411 8.14067 43.1031 8.14067Z" fill="#E9B864"/>
<path d="M92.9138 30.6187V43.714C92.9138 53.8645 84.2924 62.4088 74.4631 62.4088H44.9618C36.8811 62.4088 30.195 69.3147 30.195 77.3945V105.476C30.195 113.466 37.1538 118.167 44.9618 120.459C54.3103 123.202 63.2761 123.699 74.4631 120.459C81.8979 118.308 89.2298 113.983 89.2298 105.476V94.236H59.7298V90.4886H103.999C112.582 90.4886 115.783 84.5118 118.768 75.5388C121.852 66.3018 121.719 57.4184 118.768 45.5698C116.646 37.0374 112.595 30.6175 103.999 30.6175L92.9138 30.6187ZM76.3206 101.728C79.3837 101.728 81.8632 104.232 81.8632 107.331C81.8632 110.439 79.3825 112.967 76.3206 112.967C73.2706 112.967 70.7791 110.439 70.7791 107.331C70.7791 104.232 73.2706 101.728 76.3206 101.728Z" fill="#FDFDFD"/>
</g>
<defs>
<clipPath id="clip0_20_1044">
<rect width="122" height="123" fill="white"/>
</clipPath>
</defs>
</svg>
