<svg width="122" height="123" viewBox="0 0 122 123" fill="none" xmlns="http://www.w3.org/2000/svg">
<g clip-path="url(#clip0_20_1044)">
<path d="M59.0754 -0.897976C54.0256 -0.874093 49.2054 -0.445384 44.9617 0.304558C32.4627 2.509 30.1949 7.1233 30.1949 15.6342V26.8726H59.7297V30.6187H19.1097C10.5266 30.6187 3.01046 35.7692 0.65897 45.5709C-2.05374 56.8022 -2.17334 63.812 0.65897 75.54C2.75809 84.2706 7.77205 90.4898 16.3563 90.4898H26.5122V77.0172C26.5122 67.2834 34.9458 58.6985 44.9629 58.6985H74.4642C82.6765 58.6985 89.231 51.9466 89.231 43.714V15.6354C89.231 7.64276 82.4779 1.63965 74.4642 0.305752C69.388 -0.537335 64.1241 -0.920665 59.0754 -0.897976ZM43.103 8.14073C46.153 8.14073 48.6456 10.6688 48.6456 13.7784C48.6456 16.8749 46.1542 19.3791 43.103 19.3791C40.041 19.3791 37.5616 16.8749 37.5616 13.7784C37.5604 10.6688 40.041 8.14073 43.103 8.14073Z" fill="#E9B864"/>
<path d="M92.9138 30.6186V43.7139C92.9138 53.8644 84.2925 62.4088 74.4631 62.4088H44.9619C36.8811 62.4088 30.1951 69.3147 30.1951 77.3945V105.475C30.1951 113.466 37.1539 118.167 44.9619 120.459C54.3104 123.202 63.2762 123.699 74.4631 120.459C81.8979 118.308 89.2299 113.983 89.2299 105.475V94.2359H59.7298V90.4886H103.999C112.582 90.4886 115.783 84.5117 118.768 75.5387C121.852 66.3018 121.719 57.4183 118.768 45.5697C116.646 37.0373 112.595 30.6174 103.999 30.6174L92.9138 30.6186ZM76.3206 101.728C79.3838 101.728 81.8633 104.232 81.8633 107.331C81.8633 110.438 79.3826 112.967 76.3206 112.967C73.2706 112.967 70.7792 110.438 70.7792 107.331C70.7792 104.232 73.2706 101.728 76.3206 101.728Z" fill="#E9B864"/>
</g>
<defs>
<clipPath id="clip0_20_1044">
<rect width="122" height="123" fill="white"/>
</clipPath>
</defs>
</svg>
