<svg width="38" height="38" viewBox="0 0 38 38" fill="none" xmlns="http://www.w3.org/2000/svg">
<g clip-path="url(#clip0_167_50)">
<path d="M22.025 11.025C19.8494 11.025 17.7227 11.6701 15.9137 12.8788C14.1048 14.0875 12.6949 15.8055 11.8623 17.8155C11.0298 19.8255 10.8119 22.0372 11.2364 24.171C11.6608 26.3048 12.7084 28.2648 14.2468 29.8032C15.7852 31.3415 17.7452 32.3892 19.879 32.8136C22.0128 33.2381 24.2245 33.0202 26.2345 32.1877C28.2445 31.3551 29.9625 29.9452 31.1712 28.1363C32.3799 26.3273 33.025 24.2006 33.025 22.025C33.025 19.1076 31.8661 16.3097 29.8032 14.2468C27.7403 12.1839 24.9424 11.025 22.025 11.025ZM22.025 30.275C20.6009 30.2781 19.2002 29.9124 17.9593 29.2136C16.7184 28.5149 15.6795 27.5068 14.9437 26.2875L16.6625 26.4937C18.1059 26.5073 19.5331 26.1889 20.8339 25.5632C22.1347 24.9375 23.2743 24.0211 24.1647 22.8849C25.055 21.7488 25.6723 20.4231 25.9689 19.0104C26.2654 17.5977 26.2333 16.1358 25.875 14.7375C27.5002 15.5999 28.7905 16.9809 29.5408 18.6609C30.2911 20.3408 30.4582 22.2234 30.0157 24.0093C29.5732 25.7951 28.5464 27.3818 27.0985 28.5171C25.6507 29.6524 23.8649 30.2712 22.025 30.275Z" fill="#FDFDFD"/>
<path d="M22.025 8.27499C22.3897 8.27499 22.7394 8.13013 22.9973 7.87227C23.2551 7.6144 23.4 7.26467 23.4 6.89999V1.39999C23.4 1.03532 23.2551 0.685585 22.9973 0.427722C22.7394 0.169859 22.3897 0.0249939 22.025 0.0249939C21.6603 0.0249939 21.3106 0.169859 21.0527 0.427722C20.7949 0.685585 20.65 1.03532 20.65 1.39999V6.89999C20.65 7.26467 20.7949 7.6144 21.0527 7.87227C21.3106 8.13013 21.6603 8.27499 22.025 8.27499ZM8.27499 22.025C8.27499 21.6603 8.13013 21.3106 7.87226 21.0527C7.6144 20.7949 7.26467 20.65 6.89999 20.65H1.39999C1.03532 20.65 0.685584 20.7949 0.427722 21.0527C0.169859 21.3106 0.0249939 21.6603 0.0249939 22.025C0.0249939 22.3897 0.169859 22.7394 0.427722 22.9973C0.685584 23.2551 1.03532 23.4 1.39999 23.4H6.89999C7.26467 23.4 7.6144 23.2551 7.87226 22.9973C8.13013 22.7394 8.27499 22.3897 8.27499 22.025ZM10.3375 12.3312C10.6023 12.5298 10.9298 12.6262 11.26 12.6028C11.5901 12.5793 11.9007 12.4376 12.1348 12.2035C12.3688 11.9695 12.5106 11.6589 12.534 11.3287C12.5575 10.9986 12.4611 10.671 12.2625 10.4062L8.34374 6.48749C8.07896 6.2889 7.75142 6.19249 7.42127 6.21595C7.09112 6.23942 6.78051 6.38118 6.54647 6.61522C6.31243 6.84926 6.17067 7.15987 6.1472 7.49002C6.12374 7.82017 6.22015 8.14771 6.41874 8.41249L10.3375 12.3312ZM37.5625 6.48749C37.3055 6.23556 36.9599 6.09444 36.6 6.09444C36.2401 6.09444 35.8945 6.23556 35.6375 6.48749L31.7187 10.4062C31.5611 10.5244 31.4308 10.6751 31.3365 10.8481C31.2422 11.0211 31.1862 11.2123 31.1722 11.4088C31.1582 11.6053 31.1867 11.8025 31.2555 11.987C31.3244 12.1716 31.4322 12.3392 31.5715 12.4785C31.7108 12.6178 31.8784 12.7256 32.0629 12.7944C32.2475 12.8633 32.4447 12.8918 32.6412 12.8778C32.8377 12.8638 33.0289 12.8078 33.2019 12.7135C33.3749 12.6192 33.5255 12.4888 33.6437 12.3312L37.5625 8.41249C37.8144 8.15547 37.9555 7.8099 37.9555 7.44999C37.9555 7.09008 37.8144 6.74452 37.5625 6.48749ZM10.3375 31.7187L6.41874 35.6375C6.29235 35.7684 6.19297 35.9229 6.12629 36.0922C6.05962 36.2616 6.02694 36.4424 6.03013 36.6243C6.03332 36.8062 6.07232 36.9858 6.1449 37.1527C6.21747 37.3195 6.32221 37.4705 6.45312 37.5969C6.58403 37.7233 6.73856 37.8226 6.90787 37.8893C7.07719 37.956 7.25798 37.9887 7.43992 37.9855C7.62187 37.9823 7.8014 37.9433 7.96828 37.8707C8.13515 37.7981 8.2861 37.6934 8.41249 37.5625L12.3312 33.6437C12.4888 33.5255 12.6192 33.3749 12.7135 33.2019C12.8078 33.0289 12.8638 32.8377 12.8778 32.6412C12.8917 32.4447 12.8633 32.2475 12.7944 32.0629C12.7256 31.8784 12.6178 31.7108 12.4785 31.5715C12.3392 31.4322 12.1716 31.3244 11.987 31.2555C11.8025 31.1867 11.6053 31.1582 11.4088 31.1722C11.2123 31.1862 11.0211 31.2422 10.8481 31.3365C10.6751 31.4308 10.5244 31.5611 10.4062 31.7187H10.3375Z" fill="#FDFDFD"/>
</g>
<defs>
<clipPath id="clip0_167_50">
<rect width="38" height="38" fill="white"/>
</clipPath>
</defs>
</svg>
